<?xml version="1.0" standalone="no"?>
<!DOCTYPE svg PUBLIC "-//W3C//DTD SVG 20010904//EN"
 "http://www.w3.org/TR/2001/REC-SVG-20010904/DTD/svg10.dtd">
<svg version="1.0" xmlns="http://www.w3.org/2000/svg"
 width="260.000000pt" height="260.000000pt" viewBox="0 0 260.000000 260.000000"
 preserveAspectRatio="xMidYMid meet">
<metadata>
Created by potrace 1.14, written by Peter Selinger 2001-2017
</metadata>
<g transform="translate(0.000000,260.000000) scale(0.100000,-0.100000)"
fill="#000000" stroke="none">
<path d="M1179 2396 c-2 -2 -26 -6 -54 -9 -403 -43 -811 -344 -994 -732 -39
-81 -96 -252 -105 -310 -3 -22 -8 -51 -12 -65 -3 -14 -7 -95 -9 -180 -2 -128
2 -175 21 -270 42 -216 140 -432 256 -570 42 -50 108 -63 167 -32 53 27 76 64
75 125 0 46 -6 61 -52 128 -125 183 -184 373 -184 594 -2 271 90 509 272 708
191 208 472 331 747 326 276 -5 503 -100 699 -294 225 -221 335 -527 302 -838
-19 -188 -69 -326 -174 -483 -59 -89 -69 -119 -59 -171 19 -102 158 -147 230
-75 39 38 125 172 169 264 45 94 91 244 110 363 14 85 15 322 2 400 -93 573
-539 1025 -1092 1109 -79 12 -306 20 -315 12z"/>
<path d="M1180 1859 c-74 -13 -90 -17 -162 -45 -139 -53 -290 -177 -370 -304
-32 -51 -88 -172 -90 -195 0 -5 -5 -21 -10 -35 -30 -79 -30 -293 1 -403 26
-94 70 -193 106 -235 64 -76 184 -61 230 28 24 45 18 94 -20 173 -84 178 -77
349 22 505 169 268 541 308 762 81 92 -94 141 -216 141 -349 -1 -97 -13 -147
-59 -243 -31 -61 -38 -85 -34 -115 11 -84 80 -139 158 -128 62 10 89 36 135
129 85 172 105 366 59 552 -41 168 -152 331 -300 443 -151 114 -387 172 -569
141z"/>
<path d="M1240 1330 c-183 -52 -251 -262 -134 -415 86 -113 265 -124 366 -23
129 129 97 337 -64 419 -41 21 -128 31 -168 19z"/>
</g>
</svg>
