<?xml version="1.0" encoding="UTF-8"?>
<svg width="16px" height="16px" viewBox="0 0 16 16" version="1.1" xmlns="http://www.w3.org/2000/svg" xmlns:xlink="http://www.w3.org/1999/xlink">
    <title>Icons / 16x16 / Calendar@1x</title>
    <g id="Icons-/-16x16-/-Calendar" stroke="none" stroke-width="1" fill="none" fill-rule="evenodd">
        <path d="M10.8,1.25 C11.2142136,1.25 11.55,1.58578644 11.55,2 L11.549,2.85 L12,2.85 C13.5187831,2.85 14.75,4.08121694 14.75,5.6 L14.75,12 C14.75,13.5187831 13.5187831,14.75 12,14.75 L4,14.75 C2.48121694,14.75 1.25,13.5187831 1.25,12 L1.25,5.6 C1.25,4.08121694 2.48121694,2.85 4,2.85 L4.449,2.85 L4.45,2 C4.45,1.58578644 4.78578644,1.25 5.2,1.25 C5.61421356,1.25 5.95,1.58578644 5.95,2 L5.949,2.85 L10.049,2.85 L10.05,2 C10.05,1.58578644 10.3857864,1.25 10.8,1.25 Z M13.25,7.549 L2.75,7.549 L2.75,12 C2.75,12.6903559 3.30964406,13.25 4,13.25 L12,13.25 C12.6903559,13.25 13.25,12.6903559 13.25,12 L13.25,7.549 Z M4.449,4.35 L4,4.35 C3.30964406,4.35 2.75,4.90964406 2.75,5.6 L2.75,6.049 L13.25,6.049 L13.25,5.6 C13.25,4.90964406 12.6903559,4.35 12,4.35 L11.549,4.35 L11.55,4.8 C11.55,5.21421356 11.2142136,5.55 10.8,5.55 C10.3857864,5.55 10.05,5.21421356 10.05,4.8 L10.049,4.35 L5.949,4.35 L5.95,4.8 C5.95,5.21421356 5.61421356,5.55 5.2,5.55 C4.78578644,5.55 4.45,5.21421356 4.45,4.8 L4.449,4.35 Z" id="Shape" fill="#6D6A94" fill-rule="nonzero"></path>
    </g>
</svg>