<?xml version="1.0" encoding="UTF-8"?>
<svg width="16px" height="16px" viewBox="0 0 16 16" version="1.1" xmlns="http://www.w3.org/2000/svg" xmlns:xlink="http://www.w3.org/1999/xlink">
    <title>Icons / 16x16 / Download Archive</title>
    <g id="Icons-/-16x16-/-Download-Archive" stroke="none" stroke-width="1" fill="none" fill-rule="evenodd">
        <path d="M8,1 C8.41421356,1 8.75,1.33578644 8.75,1.75 L8.75,9.519 L10.5940385,7.67639381 C10.860305,7.41012725 11.2769687,7.3859212 11.5705802,7.60377566 L11.6546986,7.67639381 C11.9475919,7.96928703 11.9475919,8.44416077 11.6546986,8.73705399 L8.53033009,11.8614225 C8.23743687,12.1543158 7.76256313,12.1543158 7.46966991,11.8614225 L4.34530135,8.73705399 C4.05240813,8.44416077 4.05240813,7.96928703 4.34530135,7.67639381 C4.63819457,7.3835006 5.1130683,7.3835006 5.40596152,7.67639381 L7.25,9.521 L7.25,1.75 C7.25,1.33578644 7.58578644,1 8,1 Z M2.75,13 L13.25,13 C13.6642136,13 14,13.3357864 14,13.75 C14,14.1642136 13.6642136,14.5 13.25,14.5 L2.75,14.5 C2.33578644,14.5 2,14.1642136 2,13.75 C2,13.3703042 2.28215388,13.056509 2.64822944,13.0068466 L2.75,13 Z" id="Shape" fill="#FFFFFF"></path>
    </g>
</svg>