<?xml version="1.0" encoding="UTF-8"?>
<svg width="16px" height="16px" viewBox="0 0 16 16" version="1.1" xmlns="http://www.w3.org/2000/svg" xmlns:xlink="http://www.w3.org/1999/xlink">
    <title>Icons / 16x16 / Download@1x</title>
    <g id="Icons-/-16x16-/-Download" stroke="none" stroke-width="1" fill="none" fill-rule="evenodd">
        <path d="M8,0.25 C12.2802068,0.25 15.75,3.71979319 15.75,8 C15.75,12.2802068 12.2802068,15.75 8,15.75 C3.71979319,15.75 0.25,12.2802068 0.25,8 C0.25,3.71979319 3.71979319,0.25 8,0.25 Z M8,1.75 C4.54822031,1.75 1.75,4.54822031 1.75,8 C1.75,11.4517797 4.54822031,14.25 8,14.25 C11.4517797,14.25 14.25,11.4517797 14.25,8 C14.25,4.54822031 11.4517797,1.75 8,1.75 Z M8,4 C8.41421356,4 8.75,4.33578644 8.75,4.75 L8.75,9.519 L10.5940385,7.67639381 C10.860305,7.41012725 11.2769687,7.3859212 11.5705802,7.60377566 L11.6546986,7.67639381 C11.9475919,7.96928703 11.9475919,8.44416077 11.6546986,8.73705399 L8.53033009,11.8614225 C8.23743687,12.1543158 7.76256313,12.1543158 7.46966991,11.8614225 L4.34530135,8.73705399 C4.05240813,8.44416077 4.05240813,7.96928703 4.34530135,7.67639381 C4.63819457,7.3835006 5.1130683,7.3835006 5.40596152,7.67639381 L7.25,9.521 L7.25,4.75 C7.25,4.33578644 7.58578644,4 8,4 Z" id="Shape" fill="#6D6A94" fill-rule="nonzero"></path>
    </g>
</svg>