<?xml version="1.0" encoding="UTF-8"?>
<svg width="320px" height="359px" viewBox="0 0 320 359" version="1.1" xmlns="http://www.w3.org/2000/svg" xmlns:xlink="http://www.w3.org/1999/xlink">
    <title>michigan@1x</title>
    <g id="Desktop" stroke="none" stroke-width="1" fill="none" fill-rule="evenodd">
        <g id="Landing-Page-(Michigan)--v-Desktop" transform="translate(-301, -425)" fill="#4B7BE5">
            <g id="Group-3" transform="translate(301.0001, 72)">
                <g id="Group-83" transform="translate(0, 353)">
                    <g id="michigan" transform="translate(0, 0.003)">
                        <g id="Alcona_County" opacity="0.3" transform="translate(261.2516, 183.4714)">
                            <path d="M22.229931,0 C24.8046458,6.55346502 22.5732263,13.987386 22.229931,19.0615601 C14.819746,19.0615601 7.4095609,19.0615601 0,19.0615601 C0,12.7072904 0,6.35364522 0,0 C7.4095609,0 14.819746,0 22.229931,0 Z" id="Path"></path>
                        </g>
                        <g id="Alger_County" opacity="0.3" transform="translate(131.8436, 81.8049)">
                            <path d="M50.0162525,0.00256907837 C48.9601514,2.38729351 49.2091965,6.07896432 49.2223041,9.53397356 C42.6066916,9.53397356 35.990455,9.53397356 29.3748425,9.53397356 C29.3748425,12.7111084 29.3748425,15.8876188 29.3748425,19.065378 C25.9343994,19.065378 22.4945805,19.065378 19.0535133,19.065378 C19.0535133,22.2425129 19.0535133,25.4190233 19.0535133,28.5967825 C12.7031744,28.5967825 6.35096303,28.5967825 0,28.5967825 C0,22.5072741 0,16.4177657 0,10.3288817 C1.71647649,9.66323199 2.70766365,8.2732355 5.55701463,8.74093872 C5.26490154,13.5778268 8.2665508,10.9957803 10.320705,14.3003002 C11.4822915,13.609673 12.8361233,13.1113724 12.7025502,11.1237898 C15.1948741,10.7478788 14.7997724,13.2618617 16.6716681,13.5060165 C18.5473087,11.6426969 16.5424642,9.60391049 16.6716681,7.15237131 C21.0820764,7.37342197 16.5337258,11.9030871 20.6414101,12.7123573 C21.5820392,10.212112 25.2721516,10.4625112 25.4044763,7.15237131 C29.5046705,7.89357788 34.405679,3.05419209 38.1070265,0.798726096 C41.747205,2.45098607 45.5652729,-0.0917208899 50.0162525,0.00256907837 Z" id="Path"></path>
                        </g>
                        <g id="Allegan_County" opacity="0.3" transform="translate(165.9821, 300.228)">
                            <path d="M2.38122103,0 C11.1140293,0 19.8474617,0 28.5808941,0 C28.5808941,6.08888398 28.5808941,12.1765191 28.5808941,18.2666519 C19.0535133,18.2666519 9.52675663,18.2666519 0,18.2666519 C1.34134836,12.7247747 2.06975857,6.57157369 2.38122103,0 Z" id="Path"></path>
                        </g>
                        <g id="Alpena_County" opacity="0.3" transform="translate(261.1651, 164.4092)">
                            <path d="M19.9333013,0 C21.6104549,2.29480552 22.4237527,5.45070949 23.9042917,7.94283707 C22.3569661,10.4649376 20.159252,4.56213582 18.3460287,7.14855336 C15.3044323,10.163959 17.6906467,16.6843289 22.3157707,18.2691497 C14.9055856,18.2691497 7.49540054,18.2691497 0.085839637,18.2691497 C-0.414747326,11.4134572 1.46276587,6.93811813 0.879163864,0.000624436876 C7.23137524,0 13.5835866,0 19.9333013,0 Z" id="Path"></path>
                        </g>
                        <g id="Antrim_County" opacity="0.3" transform="translate(200.1194, 164.4092)">
                            <path d="M1.58852097,0 C3.44106724,0 5.29423768,0 7.1455356,0 C7.04129867,1.95823404 7.02444599,3.82717361 7.94010818,4.76570224 C12.4385249,4.76570224 16.9363175,4.76570224 21.4347343,4.76570224 C20.9522484,10.0153431 22.8235198,12.9077347 22.2280585,18.2685253 C16.6710439,18.2685253 11.1140293,18.2685253 5.5576388,18.2685253 C2.59718498,17.4242866 4.29992966,21.2464647 1.5878968,20.6501275 C1.30639466,19.6066935 0.189748674,19.4012537 0,18.2685253 C1.38691301,12.3869543 2.83312248,6.43482201 1.58852097,0 Z" id="Path"></path>
                        </g>
                        <g id="Arenac_County" opacity="0.3" transform="translate(250.1375, 222.3894)">
                            <path d="M23.0226311,0 C24.398309,5.9452635 17.5698534,5.87719988 18.2589407,8.73712077 C15.2928693,8.80768214 15.9963126,9.62756776 13.4952503,8.73712077 C11.3793029,9.53202892 10.8787159,11.9429797 9.52738081,13.502823 C7.93885983,13.502823 6.35033886,13.502823 4.76181788,13.502823 C4.76181788,11.9155045 4.76181788,10.3263126 4.76181788,8.73712077 C3.17516943,8.73712077 1.58602428,8.73712077 0,8.73712077 C0,5.82537162 0,2.91362246 0,0 C7.67358619,0 15.3484207,0 23.0226311,0 Z" id="Path"></path>
                        </g>
                        <g id="Baraga_County" opacity="0.3" transform="translate(69.1242, 66.7173)">
                            <path d="M24.6117762,2.38222668 C24.6117762,4.7650778 24.6117762,7.14730449 24.6117762,9.5301556 C24.9319771,11.0631481 28.2469614,9.5994681 26.9923731,12.7072904 C27.7451261,15.5778268 23.8665134,13.8150414 22.229931,14.2958578 C22.229931,19.3263213 22.229931,24.3561604 22.229931,29.3866238 C14.8191218,29.3866238 7.4095609,29.3866238 0,29.3866238 C0,21.4444112 0,13.5021986 0,5.55936151 C1.32324733,5.55936151 2.64711884,5.55936151 3.969742,5.55936151 C6.00080183,4.94366675 4.14575887,0.440227998 7.1455356,0.794283707 C7.67421037,0.794283707 8.20413347,0.794283707 8.73280823,0.794283707 C7.00821749,2.68882519 6.63933108,6.81760181 7.93885983,9.53078004 C9.79702366,10.0259585 10.1521783,8.05835789 11.1146534,7.14855336 C12.6863217,5.66301803 14.1256653,4.15937403 15.0843954,3.17713483 C16.7509381,1.46867553 18.2932702,0.403386222 20.6414101,0 C20.4516614,1.13397737 19.3337671,1.34004154 19.0535133,2.38285112 C20.3830023,3.78533634 21.7143639,1.67661301 24.6117762,2.38222668 Z" id="Path"></path>
                        </g>
                        <g id="Barry_County" opacity="0.3" transform="translate(195.3563, 300.228)">
                            <path d="M0,18.2666519 C0,12.1765191 0,6.08888398 0,0 C5.8216641,0 11.6452007,0 17.4662406,0 C17.9100278,5.64303605 16.5243632,13.1200432 18.2595649,17.4723682 C13.7530339,19.3169548 5.82977835,17.7433738 0,18.2666519 Z" id="Path"></path>
                        </g>
                        <g id="Bay_County" opacity="0.3" transform="translate(250.0045, 231.8253)">
                            <path d="M9.66040318,4.86063808 C9.98622162,8.36685114 9.4425667,10.999477 8.0718822,12.8040996 C8.44201695,15.6096945 10.0773509,17.152678 11.2470516,19.1571204 C15.2742176,20.0469429 15.8834107,19.9720105 18.3919631,21.5412204 C18.3919631,21.8047327 18.3919631,22.0701184 18.3919631,22.3348796 C18.3919631,24.1882083 18.3919631,26.0421614 18.3919631,27.8942411 C16.2941167,27.8742591 13.4173021,28.6354477 14.4234694,25.51139 C11.4030949,24.5616215 4.21761225,27.7787203 4.89484025,23.1291633 C3.3081918,23.1291633 1.71904665,23.1291633 0.13302237,23.1291633 C0.656703744,15.713351 -0.920582111,6.19068862 0.926346597,0.095560274 C1.4562697,0.095560274 1.98369612,0.095560274 2.51486757,0.095560274 C5.38294375,-0.656261725 3.62027843,3.22461346 4.10151603,4.86126251 C5.95468647,4.86063808 7.80660856,4.86063808 9.66040318,4.86063808 Z" id="Path"></path>
                        </g>
                        <g id="Benzie_County" opacity="0.3" transform="translate(166.7358, 188.2365)">
                            <path d="M7.1845395,0 C10.3603331,0 13.5361267,0 16.7119203,0 C16.7119203,4.500941 16.7119203,9.00188201 16.7119203,13.502823 C11.4195551,13.502823 6.1265658,13.502823 0.83420064,13.502823 C1.45712556,9.43773895 -0.279948648,7.73365071 0.0396280666,3.9707941 C2.70734463,2.93173113 6.09473297,2.61763939 7.1845395,0 Z" id="Path"></path>
                        </g>
                        <g id="Berrien_County" opacity="0.3" transform="translate(145.3401, 329.614)">
                            <path d="M17.4662406,0 C18.7888638,0 20.1121111,0 21.4353585,0 C21.4353585,8.47111066 21.4353585,16.9422213 21.4353585,25.4158297 C14.2898229,25.4158297 7.14491143,25.4158297 0,25.4158297 C8.97061825,20.3572666 9.72524373,7.08173861 16.6716681,0 C16.9363175,0 17.2015912,0 17.4662406,0 Z" id="Path"></path>
                        </g>
                        <g id="Branch_County" opacity="0.3" transform="translate(204.8831, 339.1448)">
                            <path d="M0,0 C6.08693774,0 12.1732513,0 18.260189,0 C18.260189,5.29460027 18.260189,10.589825 18.260189,15.8850497 C12.1732513,15.8850497 6.08693774,15.8850497 0,15.8850497 C0,10.589825 0,5.29522471 0,0 Z" id="Path"></path>
                        </g>
                        <g id="Calhoun_County" opacity="0.3" transform="translate(204.8831, 319.2902)">
                            <path d="M23.0238794,19.0609356 C15.3484207,19.0609356 7.67545871,19.0609356 0,19.0609356 C0,12.706666 0,6.35239634 0,0 C7.41018507,0 14.8203701,0 22.229931,0 C21.6251071,7.22286135 23.4701633,11.9954324 23.0238794,19.0609356 Z" id="Path"></path>
                        </g>
                        <g id="Cass_County" opacity="0.3" transform="translate(167.5706, 339.1448)">
                            <path d="M0,15.8850497 C0,10.589825 0,5.29460027 0,0 C6.08631356,0 12.172003,0 18.2595649,0 C18.2595649,5.03046347 18.2595649,10.0603025 18.2595649,15.0901416 C13.652542,16.8366915 5.89968576,15.4329574 0,15.8850497 Z" id="Path"></path>
                        </g>
                        <g id="Charlevoix_County" opacity="0.3" transform="translate(192.0227, 134.2283)">
                            <path d="M21.5932434,21.4437868 C22.3079218,22.8487697 23.5100795,23.7629453 23.9750886,25.4158297 C27.6808053,25.4158297 31.3852737,25.4158297 35.0903662,25.4158297 C35.0903662,28.3282033 35.0903662,31.2399525 35.0903662,34.1517016 C28.7381548,34.1517016 22.3865676,34.1517016 16.0374771,34.1517016 C16.0374771,32.5637587 16.0374771,30.9751912 16.0374771,29.3872483 C13.919033,29.3872483 11.8030856,29.3872483 9.68526573,29.3872483 C9.27143885,23.147875 15.6280194,23.682393 18.4168256,20.6501275 C19.8024903,20.590806 20.8873034,20.8268431 21.5932434,21.4437868 Z" id="Path"></path>
                            <path d="M2.5403543,0 C5.09197463,1.52425041 3.43292208,3.72039491 4.12700275,7.94158819 C2.21516003,7.61688102 2.40241201,9.39277949 0.158509098,8.7358719 C-0.414481965,5.77042117 0.608538026,3.22833865 2.5403543,0 Z" id="Path"></path>
                        </g>
                        <g id="Cheboygan_County" opacity="0.3" transform="translate(227.907, 133.4334)">
                            <path d="M0,0 C0.773350683,0.060570377 0.974334476,0.564490936 1.5878968,0.794283707 C3.69947498,1.58419635 6.64994203,2.9666996 7.93823566,3.9707941 C9.90937485,5.50565994 8.95813478,6.82634393 11.1152776,5.55873707 C12.5521245,4.71324954 15.9875742,5.47880915 18.260189,6.35302078 C18.260189,14.2952334 18.260189,22.237446 18.260189,30.1809075 C12.1738755,30.1809075 6.08693774,30.1809075 0,30.1809075 C0,20.1212295 0,10.0603025 0,0 Z" id="Path"></path>
                        </g>
                        <g id="Chippewa_County" opacity="0.3" transform="translate(207.2649, 77.0424)">
                            <path d="M45.2544347,43.6837305 C44.9117635,41.9072076 41.3408682,43.3608967 39.6955475,42.8894468 C40.4370654,38.970481 38.8497927,37.3819136 34.9318571,38.1237446 C34.9318571,36.5358016 34.9318571,34.9472342 34.9318571,33.3586668 C24.8751774,33.3586668 14.819746,33.3586668 4.76244206,33.3586668 C4.76244206,31.7700994 4.76244206,30.1809075 4.76244206,28.5923401 C3.17454526,28.5923401 1.5878968,28.5923401 0,28.5923401 C0,19.3269458 0,10.0603025 0,0.79365927 C3.4023685,0.109276453 6.31788185,1.28571553 10.320705,0 C5.97770742,2.64261686 8.79460139,10.6522687 6.35096303,13.502823 C8.09303063,18.2354301 13.2149965,14.654909 15.8783438,18.2679008 C18.7963539,18.0100084 20.2712753,16.3090423 23.0232553,15.8856741 C25.8183032,16.1879016 25.5018473,19.4237335 26.9929973,19.8564682 C28.2762975,20.2298815 28.8374293,17.0315158 30.1681667,19.0621845 C31.7847755,16.3490063 33.5243464,14.5037953 37.3130781,15.8856741 C38.9565264,19.2732442 39.1450267,24.1151277 40.4888717,27.7993053 C40.8721141,30.3014239 38.0527235,29.5976835 38.9015991,32.5650075 C40.8047034,35.6241238 41.242873,32.2022097 44.4579896,32.5650075 C44.2195554,34.6574955 45.5571587,35.1714071 47.6337832,34.9478587 C47.4440345,36.0805871 46.3267643,36.2872758 46.0471347,37.3300853 C47.1850026,40.271183 49.5512435,40.4797449 51.6041493,41.3015039 C52.2651488,41.5656407 53.3306126,44.3400137 54.7793188,42.8900713 C54.8654547,42.8051479 54.7181498,41.300255 54.7793188,41.3015039 C56.0314104,41.3277302 55.4003712,43.3608967 57.1617881,42.8900713 C57.9569849,42.892569 58.1061623,42.2462769 58.7490608,42.0957876 C59.8457332,38.8805621 57.0238459,39.5843025 57.1617881,37.3300853 C59.3126892,39.2496043 61.5696998,36.4583715 65.100648,37.3300853 C67.0449477,38.7225796 67.2203404,41.6824104 68.2758174,42.8900713 C68.7408265,43.4214671 70.5415664,42.7895369 69.8643384,44.4786387 C68.7489407,44.6853273 68.9592871,46.2208176 68.2758174,46.8614898 C58.5399627,45.306642 54.3411491,43.9066545 45.2544347,43.6837305 Z" id="Path"></path>
                            <path d="M42.8725895,12.7072904 C42.5992016,14.551877 42.3576465,16.4289342 39.6955475,15.8844253 C39.3291578,13.3979176 40.385259,12.3394971 42.8725895,12.7072904 Z" id="Path"></path>
                            <path d="M44.4586137,25.4158297 C44.4586137,27.0043971 44.4586137,28.5923401 44.4586137,30.1809075 C42.3782442,29.0868941 41.0219157,27.2660362 41.2840685,23.8272623 C42.8619785,23.8372533 42.2927325,25.9940583 44.4586137,25.4158297 Z" id="Path"></path>
                        </g>
                        <g id="Clare_County" opacity="0.3" transform="translate(213.6159, 222.3894)">
                            <path d="M0,19.0634334 C0,12.7085393 0,6.35489409 0,0 C6.08756191,0 12.1738755,0 18.2608132,0 C18.2608132,6.09138173 18.2608132,12.1790168 18.2608132,18.2685253 C11.927327,18.2866339 6.89773882,19.6091912 0,19.0634334 Z" id="Path"></path>
                        </g>
                        <g id="Clinton_County" opacity="0.3" transform="translate(223.1433, 280.3703)">
                            <path d="M0,0 C6.08693774,0 12.1738755,0 18.260189,0 C18.260189,6.35426965 18.260189,12.7091637 18.260189,19.0621845 C12.1738755,19.0621845 6.08693774,19.0621845 0,19.0621845 C0,12.7091637 0,6.35426965 0,0 Z" id="Path"></path>
                        </g>
                        <g id="Crawford_County" opacity="0.3" transform="translate(223.1433, 183.4714)">
                            <path d="M0,0 C6.08693774,0 12.1738755,0 18.260189,0 C18.260189,6.35426965 18.260189,12.7079149 18.260189,19.0615601 C12.1738755,19.0615601 6.08693774,19.0615601 0,19.0615601 C0,12.7079149 0,6.35426965 0,0 Z" id="Path"></path>
                        </g>
                        <g id="Delta_County" opacity="0.3" transform="translate(121.5182, 111.1953)">
                            <path d="M35.7305404,21.4437868 C32.6564871,20.7506618 34.4335084,24.9119092 30.9674742,23.8260134 C30.5879769,26.3587294 29.9850255,28.667897 27.7916806,29.3859994 C28.589374,28.0771797 26.1838103,27.2735294 26.2037838,27.0031483 C26.2967856,25.7967362 28.1249891,26.2201044 28.585629,25.4145809 C29.5980381,23.6480489 29.9775354,22.301763 30.9674742,21.4437868 C32.9042839,19.7640516 35.3591573,16.6743379 33.3486952,13.5009497 C29.061249,12.3894521 30.7271675,17.2332089 27.7910564,17.4723682 C27.0145849,16.3964635 25.1152256,16.4439207 24.615887,15.0901416 C22.4899528,17.1988649 22.1791146,21.1246995 20.6467692,23.8266379 C18.67563,23.7079949 17.3523827,24.2368929 16.6770272,25.4152053 C14.7732987,23.6143293 17.0353026,17.6434639 14.295182,16.6780845 C11.6274654,17.1863761 11.7516759,20.4871495 11.9139609,23.8266379 C8.22509691,25.9603387 5.63540201,29.1949217 3.97447694,33.3580424 C3.44580218,33.3580424 2.91650325,33.3580424 2.38720431,33.3580424 C2.38720431,27.2691584 2.38720431,21.17965 2.38720431,15.090766 C1.932182,12.8983681 -0.118227198,12.3026553 0.00535911005,9.53140448 C1.85790538,9.53140448 3.71107582,9.53140448 5.56237374,9.53140448 C5.56237374,6.35426965 5.56237374,3.17713483 5.56237374,0 C15.354404,0 25.1458101,0 34.9372162,0 C34.4216491,7.92722614 35.6288002,14.1328798 35.7305404,21.4437868 Z" id="Path"></path>
                        </g>
                        <g id="Dickinson_County" opacity="0.3" transform="translate(92.0382, 106.4296)">
                            <path d="M15.9875638,28.5923401 C8.94501677,29.192424 7.84834434,21.7335255 0.903792526,24.621546 C-0.818925701,22.9692861 1.00053938,22.054486 1.69774093,20.6501275 C-1.1996714,16.1354489 0.601692663,6.92000946 0.109844126,0 C6.46080716,0 12.8123944,0 19.1639816,0 C19.1639816,6.08888398 19.1639816,12.1783924 19.1639816,18.2672764 C18.1047595,18.2672764 17.0467858,18.2672764 15.9875638,18.2672764 C15.9875638,21.7091724 15.9875638,25.1504441 15.9875638,28.5923401 Z" id="Path"></path>
                        </g>
                        <g id="Eaton_County" opacity="0.3" transform="translate(213.5081, 300.228)">
                            <path d="M0.10776883,0 C6.19533074,0 12.2816443,0 18.368582,0 C18.368582,6.08888398 18.368582,12.1765191 18.368582,18.2666519 C12.8022048,17.7452471 5.1454713,19.3157059 0.901717231,17.4729927 C-0.833484462,13.1200432 0.552180199,5.64303605 0.10776883,0 Z" id="Path"></path>
                        </g>
                        <g id="Emmet_County" opacity="0.3" transform="translate(212.0231, 131.7484)">
                            <path d="M15.089978,0.0970703134 C15.089978,9.09832788 15.089978,18.0995855 15.089978,27.1014675 C10.0953435,26.8029866 3.03594383,28.5707674 2.38617945,23.9243326 C4.88162419,23.5078332 6.81593716,22.5318384 8.73776666,21.542106 C8.48872152,18.6147459 4.25308171,19.6744153 2.38617945,18.3649711 C0.892532816,16.0957675 -0.0730632345,14.5540329 0.0043342511,12.8049852 C0.21780151,8.12732854 8.44128435,6.62555785 6.35654563,2.47992143 C7.12365458,0.514194147 9.40563206,3.57393484 11.9129361,2.47992143 C14.002044,2.7147097 12.539606,-0.602298988 15.089978,0.0970703134 Z" id="Path"></path>
                        </g>
                        <g id="Genesee_County" opacity="0.3" transform="translate(259.5951, 274.8103)">
                            <path d="M9.59590318,19.0621845 C8.29762278,18.7062555 8.29762278,23.3907809 9.59590318,23.0336031 C8.2364538,24.8500899 3.53393238,23.3245906 0.863094949,23.8272623 C-0.665505391,17.1495344 0.365004679,7.90911747 0.0697707219,0 C6.15608429,0 12.2411495,0 18.3299598,0 C18.3299598,6.09013285 18.3299598,12.1771435 18.3299598,18.2685253 C15.0530501,18.1692398 13.3571713,19.6491552 9.59590318,19.0621845 Z" id="Path"></path>
                        </g>
                        <g id="Gladwin_County" opacity="0.6" transform="translate(232.6694, 222.3888)">
                            <path d="M0,18.2685253 C0,12.1790168 0,6.09138173 0,0 C5.55826298,0 11.1159018,0 16.6729164,0 C16.6729164,6.09138173 16.6729164,12.1790168 16.6729164,18.2685253 C14.5182703,17.776469 10.3718872,19.2782397 9.52738081,17.474866 C7.96133007,20.7069513 3.19576715,18.1711131 0,18.2685253 Z" id="Path"></path>
                        </g>
                        <g id="Gogebic_County" opacity="0.3" transform="translate(0, 77.0411)">
                            <path d="M20.695809,0.000624436876 C20.695809,2.91299803 20.695809,5.82537162 20.695809,8.73712077 C21.0372318,10.5130192 24.6087512,9.0593302 26.2528236,9.53140448 C26.2528236,11.3853576 26.2528236,13.2374373 26.2528236,15.090766 C31.2817877,15.090766 36.3095034,15.090766 41.3372191,15.090766 C41.3372191,18.2672764 41.3372191,21.4450356 41.3372191,24.621546 C46.1002853,24.621546 50.8645999,24.621546 55.6276661,24.621546 C55.6276661,28.3282033 55.6276661,32.0348606 55.6276661,35.7415179 C49.1837012,32.2534135 41.7179647,31.3873196 34.1923076,29.3872483 C27.3332675,27.564517 20.0934818,24.7070939 12.7569492,23.8278868 C9.94504857,20.5483443 10.0124593,16.5719303 7.19931035,14.2964823 C5.31930046,12.7759785 2.72586052,12.8902504 0.0537747427,11.9136312 C-0.11662456,11.8518119 0.184226956,10.4961595 0.0537747427,10.3250637 C5.29370935,7.4676406 16.7591482,7.22910572 19.9012364,0 C20.16651,0.000624436876 20.4305353,0.000624436876 20.695809,0.000624436876 Z" id="Path"></path>
                        </g>
                        <g id="Grand_Traverse_County" opacity="0.3" transform="translate(184.2417, 176.8791)">
                            <path d="M15.0843954,6.59228909 C20.5072128,8.3163593 17.4849658,18.4878116 18.260189,24.8601899 C12.1732513,24.8601899 6.08693774,24.8601899 0,24.8601899 C0,20.3592489 0,15.8583079 0,11.3573669 C2.11781991,11.3573669 4.23439147,11.3573669 6.35221138,11.3573669 C7.03318442,11.6489789 10.1103586,12.8041871 11.1152776,12.9465587 C13.9221848,11.6826985 10.9311465,9.22429052 14.2916954,8.18023206 C14.2916954,7.65008516 14.2916954,7.122436 14.2916954,6.59228909 C14.5544723,6.59228909 14.8191218,6.59228909 15.0843954,6.59228909 Z" id="Path"></path>
                            <path d="M11.9079777,0.238019436 C13.3354619,-1.40862061 11.7500618,5.9778432 11.1146534,7.38657279 C9.85881681,5.14921547 11.0965524,3.32336204 11.9079777,0.238019436 Z" id="Path"></path>
                        </g>
                        <g id="Gratiot_County" opacity="0.3" transform="translate(223.1433, 261.3087)">
                            <path d="M0,0 C6.08693774,0 12.1738755,0 18.260189,0 C18.260189,6.08950842 18.260189,12.1790168 18.260189,18.2679008 C12.1738755,18.2679008 6.08693774,18.2679008 0,18.2679008 C0,12.1790168 0,6.08950842 0,0 Z" id="Path"></path>
                        </g>
                        <g id="Hillsdale_County" opacity="0.3" transform="translate(223.905, 339.1448)">
                            <path d="M0.0310206306,0 C5.8533089,0 11.6768455,0 17.4978854,0 C17.4978854,6.35426965 17.4978854,12.7091637 17.4978854,19.0615601 C11.2779988,18.6631694 6.27712255,19.4861772 0.826217378,19.8552194 C-0.353470104,14.1516129 0.0978071706,6.81822625 0.0310206306,0 Z" id="Path"></path>
                        </g>
                        <g id="Houghton_County" opacity="0.3" transform="translate(56.4222, 48.4488)">
                            <path d="M19.0535133,0 C21.7000079,0 24.3458784,0 26.9929973,0 C26.9929973,1.58856741 26.9929973,3.17713483 26.9929973,4.76570224 C27.7869457,4.76570224 28.5802699,4.76570224 29.3742183,4.76570224 C29.9428401,7.28280729 28.5159801,6.90627185 27.7869457,7.94221263 C27.0341927,9.01062412 27.5453906,11.1742979 25.4051005,10.3250637 C25.4843705,12.7872184 24.4338869,14.1191422 23.8172037,15.8844253 C23.07631,16.7324105 20.8879585,16.1317023 21.4353585,18.2666519 C20.3767606,18.2666519 19.3181627,18.2666519 18.260189,18.2666519 C16.945056,19.0696778 17.3975816,21.6398599 16.6722922,23.0323542 C15.0843954,23.0323542 13.4964986,23.0323542 11.9086018,23.0323542 C11.9086018,31.2399525 11.9086018,39.4469263 11.9086018,47.6539002 C7.93948401,47.6539002 3.969742,47.6539002 0,47.6539002 C0,42.8888224 0,38.1231202 0,33.3574179 C1.85317044,33.3574179 3.70509254,33.3574179 5.5576388,33.3574179 C5.5576388,31.769475 5.5576388,30.1809075 5.5576388,28.5923401 C5.31109036,27.5145621 3.56964694,27.9335592 2.3818452,27.7980564 C2.3818452,23.2971154 2.3818452,18.7967988 2.3818452,14.2964823 C3.4841352,13.428515 3.44293976,10.9482518 3.969742,10.3250637 C4.50715519,9.68938701 5.67498338,10.0646736 6.35096303,9.53078004 C6.60874659,9.32783806 6.15372428,8.22196035 6.35096303,7.94283707 C6.35595642,7.93534382 7.91638959,7.16666203 7.93885983,7.14855336 C8.62482626,6.60466884 9.70776688,6.89253424 10.3200809,6.35489409 C10.5859787,6.1213547 10.1103586,5.06293419 10.3200809,4.76632668 C10.266402,4.84188354 11.9966103,3.91209703 11.9079777,3.97204297 C14.384073,2.29355665 17.4518847,2.3316473 19.0535133,0 Z" id="Path"></path>
                        </g>
                        <g id="Huron_County" opacity="0.3" transform="translate(278.7184, 227.9513)">
                            <path d="M33.3433361,19.8545949 C22.7860694,20.9404906 10.6696179,20.4696652 0,21.4437868 C0,20.3853663 0,19.324448 0,18.2672764 C0.168526783,16.2515941 1.05173196,15.2568662 1.58664845,14.2952334 C2.16276038,13.2586682 2.00047533,12.3288817 3.96786948,11.9130067 C3.55217008,9.45397431 5.83914095,10.1502214 5.55639046,8.73524746 C5.52767849,8.5885048 4.27496273,8.700279 4.76306623,7.94158819 C5.23868626,7.19913275 8.06431866,7.37147732 7.93885983,4.7650778 C13.5489292,4.8175305 16.242861,1.95386299 19.8468375,0 C29.7942869,1.1870545 32.5443943,11.9354865 33.3433361,19.8545949 Z" id="Path"></path>
                        </g>
                        <g id="Ingham_County" opacity="0.3" transform="translate(232.6694, 299.3652)">
                            <path d="M18.2614374,19.1294865 C12.1738755,19.1294865 6.08756191,19.1294865 0,19.1294865 C0,13.0393537 0,6.95171856 0,0.86283458 C6.69550668,1.46978722 10.94363,-0.369179377 17.467489,0.0679264363 C16.8801419,7.27267911 18.3806545,12.3924371 18.2614374,19.1294865 Z" id="Path"></path>
                        </g>
                        <g id="Ionia_County" opacity="0.3" transform="translate(204.0898, 280.3703)">
                            <path d="M0,0 C6.08631356,0 12.1732513,0 18.2583165,0 C18.2583165,6.35426965 18.2583165,12.7091637 18.2583165,19.0621845 C12.1732513,19.0621845 6.08631356,19.0621845 0,19.0621845 C0,12.7091637 0,6.35426965 0,0 Z" id="Path"></path>
                        </g>
                        <g id="Iosco_County" opacity="0.3" transform="translate(261.2522, 203.3279)">
                            <path d="M22.2293069,0 C22.6194152,3.56678344 21.8260909,5.95088343 21.4347343,8.73649634 C19.0060761,12.3944476 11.7475651,11.223004 12.7013019,18.2672764 C8.73343241,18.2672764 4.76306623,18.2672764 0.793324227,18.2672764 C0.787706668,11.9205 1.08606149,5.26712505 0,0 C7.40893673,0 14.8191218,0 22.2293069,0 Z" id="Path"></path>
                        </g>
                        <g id="Iron_County" opacity="0.3" transform="translate(56.4216, 96.8982)">
                            <path d="M0,0 C11.6439524,0 23.2885289,0 34.9324813,0 C34.9324813,8.73649634 34.9324813,17.4736171 34.9324813,26.2107379 C33.6391943,25.1092312 33.2135081,25.0855026 31.7566877,24.6221705 C30.5969737,24.2531283 28.6857552,24.6502701 28.5815182,24.6221705 C26.1934313,23.9814982 24.8277402,21.2708178 22.229931,23.0336031 C21.4528353,21.9576983 19.5541002,22.0045311 19.0541374,20.6507519 C17.0255743,21.0041832 15.4045963,21.7647473 14.2910712,23.0336031 C13.4877602,20.3953573 10.046693,20.3959817 6.3515872,20.6507519 C4.92285459,18.6388163 2.45549765,17.6659437 0.000624173271,16.6799578 C0,11.1199719 0,5.55998595 0,0 Z" id="Path"></path>
                        </g>
                        <g id="Isabella_County" opacity="0.3" transform="translate(213.6159, 241.4529)">
                            <path d="M18.2608132,0 C18.2608132,6.35302078 18.2608132,12.7072904 18.2608132,19.0615601 C12.1738755,19.0615601 6.08756191,19.0615601 0,19.0615601 C0,12.9708028 0,6.88316769 0,0.793034833 C6.89773882,1.33879266 11.927327,0.0162353588 18.2608132,0 Z" id="Path"></path>
                        </g>
                        <g id="Jackson_County" opacity="0.3" transform="translate(227.7844, 319.2896)">
                            <path d="M0.12261671,0 C7.79807542,0 15.4710374,0 23.1471203,0 C23.1471203,6.35302078 23.1471203,12.7072904 23.1471203,19.0609356 C15.7369353,19.0609356 8.32612601,19.0609356 0.915940937,19.0609356 C1.36347317,11.9960568 -0.480958843,7.22348578 0.12261671,0 Z" id="Path"></path>
                        </g>
                        <g id="Kalamazoo_County" opacity="0.3" transform="translate(185.7787, 319.2896)">
                            <path d="M0.845502149,0 C6.66716625,0 12.4888303,0 18.3111186,0 C18.3111186,6.35302078 18.3111186,12.7072904 18.3111186,19.0609356 C12.4888303,19.0609356 6.66716625,19.0609356 0.845502149,19.0609356 C0.394224874,13.0644683 -0.807308673,5.71234854 0.845502149,0 Z" id="Path"></path>
                        </g>
                        <g id="Kalkaska_County" opacity="0.3" transform="translate(203.1289, 183.4714)">
                            <path d="M19.2192144,0 C19.2192144,6.35426965 19.2192144,12.7079149 19.2192144,19.0615601 C13.1341492,19.0615601 7.04721145,19.0615601 0.960897884,19.0615601 C-0.445364495,14.2952334 -0.188829281,4.81003726 0.960897884,0 C7.04721145,0 13.1341492,0 19.2192144,0 Z" id="Path"></path>
                        </g>
                        <g id="Kent_County" opacity="0.3" transform="translate(184.9015, 270.8389)">
                            <path d="M0.134126296,0 C6.22168821,0 12.3067534,0 18.3936912,0 C18.3936912,9.53140448 18.3936912,19.0615601 18.3936912,28.593589 C12.5707787,28.593589 6.74973879,28.593589 0.92869887,28.593589 C0.968021786,18.7568349 -0.429502168,10.3600322 0.134126296,0 Z" id="Path"></path>
                        </g>
                        <g id="Keweenaw_County" opacity="0.3" transform="translate(63.5678, 0)">
                            <path d="M23.0226311,52.4202269 C22.2293069,52.4202269 21.4353585,52.4202269 20.6414101,52.4202269 C20.6414101,50.8322839 20.6414101,49.2437165 20.6414101,47.6551491 C17.9942912,47.6551491 15.3484207,47.6551491 12.7019261,47.6551491 C13.9190639,43.9097767 16.5680553,43.5513499 19.0528891,42.0957876 C25.6535214,38.2280256 34.8869166,35.8058349 43.6640412,38.9186527 C42.337673,42.7046135 39.85596,41.3564543 35.7245572,41.3015039 C33.6685304,42.3230826 33.2297366,42.9437729 34.1366604,45.2729224 C30.2705311,46.1702382 28.2076385,48.8721766 26.1984247,51.6271921 C24.8158809,51.5666217 23.7291952,51.8032833 23.0226311,52.4202269 Z" id="Path"></path>
                            <path d="M27.7863215,0 C29.3174185,0.821758929 25.7040795,3.1496596 24.6105279,3.97141853 C24.0899674,6.09825053 22.3360405,6.99119527 21.4353585,8.73712077 C17.7833207,9.58385718 15.3409307,11.6420011 11.1146534,11.9136312 C11.2494749,14.1672238 8.42946002,13.4634835 9.52675663,16.678709 C6.60874659,16.9372258 5.13320098,18.6388163 2.38122103,19.0615601 C1.93680966,17.9182162 1.14223709,17.123308 0,16.678709 C1.65905255,13.2880167 5.33418477,11.0106954 8.73280823,9.53078004 C9.85881681,9.04059709 11.638959,9.27850754 12.7025502,8.73712077 C13.4134836,8.37369851 13.5551709,7.60564115 14.2898229,7.14855336 C15.1205975,6.63214406 15.9245327,6.84695035 16.6716681,6.35426965 C17.2646327,5.9639966 17.0124667,5.08603836 17.4649923,4.76632668 C18.2832835,4.18747369 20.0578081,4.11628789 21.4347343,3.17775926 C22.964583,2.13432524 23.9258098,0.818012308 25.4044763,0.000624436876 C26.0448781,0.550753325 27.579096,1.23513614 27.7863215,0 Z" id="Path"></path>
                        </g>
                        <g id="Lake_County" opacity="0.3" transform="translate(174.7149, 222.3888)">
                            <path d="M0.793324227,18.2685253 C0.618555711,12.0903468 1.34634175,5.00923262 0,0 C6.35033886,0 12.7019261,0 19.0535133,0 C19.0535133,6.09138173 19.0535133,12.1790168 19.0535133,18.2685253 C11.8574196,18.2441722 7.42516523,19.4880505 0.793324227,18.2685253 Z" id="Path"></path>
                        </g>
                        <g id="Lapeer_County" opacity="0.3" transform="translate(278.7184, 269.0586)">
                            <path d="M18.260189,23.225325 C12.7169062,24.0339707 6.51262391,24.1819622 0,24.0202331 C0,17.665339 0,11.3110694 0,4.9567997 C3.99970232,6.04706649 4.50278598,3.63798902 3.96786948,0.191097462 C6.80036779,1.06655796 13.5308282,-1.96196089 12.7013019,2.57394858 C14.2898229,2.57394858 15.8764713,2.57394858 17.4649923,2.57394858 C17.3027072,9.88547997 18.8556503,15.4791855 18.260189,23.225325 Z" id="Path"></path>
                        </g>
                        <g id="Leelanau_County" opacity="0.3" transform="translate(173.8974, 164.4092)">
                            <path d="M0.0229676232,2.38285112 C0.817540197,2.38285112 1.61086442,2.38285112 2.40481282,2.38285112 C4.43150344,3.39381442 1.66766419,6.27309286 3.19813705,6.35364522 C1.99348264,8.27004199 -0.251044443,4.57275124 0.0229676232,2.38285112 Z" id="Path"></path>
                            <path d="M0.0229676232,23.0342275 C0.0229676232,20.6507519 0.0229676232,18.2685253 0.0229676232,15.8856741 C4.72860991,19.3950094 2.8748153,13.2780257 6.37455483,13.502823 C7.62664641,13.5746333 6.99623141,15.5291207 8.75640003,15.0913904 C11.2499722,13.878734 12.2954625,11.2186329 12.726142,7.94283707 C16.9124722,8.16076554 15.1772705,2.45278805 18.2825325,1.58856741 C19.4572266,1.1751902 20.283632,0.413377212 21.4583261,0 C20.8322803,1.7559165 18.6813792,1.98758258 17.4885841,3.17713483 C20.3535394,7.79047447 16.7576772,9.42462577 18.2825325,13.502823 C16.1328797,15.8294748 15.4606451,19.3219503 16.6952599,23.0342275 C11.1382452,23.0342275 5.58185477,23.0342275 0.0229676232,23.0342275 Z" id="Path"></path>
                        </g>
                        <g id="Lenawee_County" opacity="0.3" transform="translate(242.1968, 338.3424)">
                            <path d="M23.8178278,17.4810458 C23.6755163,20.3678175 19.6695723,19.0127894 18.2614374,19.0702376 C12.6750866,19.2956593 5.84288599,19.8763856 0,19.8640952 C0,13.5108761 0,7.15598203 0,0.802336815 C8.53057609,1.39180523 14.9483257,-0.127449694 23.0245036,0.00867754516 C23.3372144,5.78284534 22.2667573,12.9426386 23.8178278,17.4810458 Z" id="Path"></path>
                        </g>
                        <g id="Livingston_County" opacity="0.3" transform="translate(250.794, 299.4331)">
                            <path d="M19.1909666,19.0615601 C13.1034047,19.0615601 7.01709116,19.0615601 0.929529253,19.0615601 C1.05061887,12.3245106 -0.450517848,7.20537711 0.1368292,0 C6.22314276,0 12.3100805,0 18.3970182,0 C18.594257,6.42045996 17.8096712,13.8231591 19.1909666,19.0615601 Z" id="Path"></path>
                        </g>
                        <g id="Luce_County" opacity="0.3" transform="translate(181.7642, 77.8361)">
                            <path d="M24.7074506,0 C24.7074506,9.26664324 24.7074506,18.5332865 24.7074506,27.7986809 C16.5033171,27.7986809 8.29980785,27.7986809 0.0956743772,27.7986809 C0.498266137,19.9938443 -0.786906628,10.5011549 0.889622778,3.97141853 C9.72854047,5.08416505 18.2441364,4.62270619 24.7074506,0 Z" id="Path"></path>
                        </g>
                        <g id="Mackinac_County" opacity="0.3" transform="translate(181.8598, 106.429)">
                            <path d="M0,14.2971067 C0,9.53140448 0,4.76570224 0,0 C9.7914061,0 19.5828122,0 29.3748425,0 C29.3748425,1.58856741 29.3748425,3.17713483 29.3748425,4.76570224 C39.4315222,4.76570224 49.4875778,4.76570224 59.5436333,4.76570224 C58.6367096,8.85014385 60.2252306,10.4380868 64.3073238,9.53140448 C64.2024626,11.4896385 64.1874825,13.3579537 65.100648,14.2971067 C64.6456257,16.2234945 59.9643261,13.9236935 60.3369576,16.6793334 C58.2965352,16.5887901 58.5574396,14.9827384 57.9551124,14.2971067 C57.6099446,13.9018382 56.0095643,14.6143207 55.5738913,14.2971067 C52.9635987,12.3888276 52.8000653,11.0981166 50.0175009,10.3250637 C48.8864989,10.010972 48.6774009,9.37654413 47.6356557,10.3250637 C46.4178936,12.0197854 46.7287319,15.2412553 44.4604863,15.8850497 C45.1839031,17.6422151 46.2237757,21.17403 45.2538105,22.2393193 C42.8426291,21.2558313 41.7203656,19.3394345 39.6955475,17.4742415 C37.9659634,15.8794298 35.9511321,13.0232555 34.139157,11.9142556 C32.5550053,10.9451296 31.6193696,11.558951 30.1687909,11.1199719 C29.8729327,11.030053 29.0040836,9.6400565 28.5808941,9.53202892 C28.0965356,9.40714154 26.7689191,10.2563757 26.9942456,10.3256882 C25.9462587,10.0016054 25.4238257,9.11927614 24.6130246,8.73774521 C23.9620119,8.43177114 22.8809438,9.04559259 22.2318036,8.73774521 C21.9284554,8.59474916 21.8360777,7.25970312 21.437231,7.14980223 C20.7032032,6.94561137 20.442923,7.9434615 19.8499584,7.9434615 C17.9524716,7.9434615 16.131134,7.09859841 14.2916954,7.14980223 C11.5035134,9.12614495 9.30018174,11.6857117 7.9419807,15.0920149 C5.0089905,14.5543747 2.3375289,13.285519 0,14.2971067 Z" id="Path"></path>
                            <path d="M53.1920461,23.8278868 C55.7936003,23.8728462 56.2274008,26.0864749 59.5436333,25.4164542 C59.6447494,26.8407947 58.5724197,27.0911939 58.7490608,28.5929646 C56.1406407,27.7612146 53.3299884,27.1317823 53.1920461,23.8278868 Z" id="Path"></path>
                        </g>
                        <g id="Macomb_County" opacity="0.3" transform="translate(292.9078, 293.0794)">
                            <path d="M8.03928693,23.8278868 C5.65744173,23.8278868 3.27559653,23.8278868 0.894375498,23.8278868 C1.44239963,15.0726573 -0.447597034,8.75335613 0.101051271,0 C4.59946803,0 9.09850897,0 13.5963016,0 C15.1604798,2.14181849 14.0688007,6.93874257 14.3908741,10.3250637 C14.3908741,10.8533373 14.3908741,11.3834843 14.3908741,11.9142556 C12.9159527,12.5543034 11.1819993,12.9389565 10.4211321,14.294609 C9.43930758,16.8654156 12.988981,14.9028105 12.0096531,17.4729927 C8.97991605,17.8838721 7.9606411,20.3054383 8.03928693,23.8278868 Z" id="Path"></path>
                        </g>
                        <g id="Manistee_County" opacity="0.6" transform="translate(162.0124, 202.5336)">
                            <path d="M5.55826298,0 C10.8506281,0 16.1429933,0 21.4359826,0 C21.4359826,6.35426965 21.4359826,12.7085393 21.4359826,19.0615601 C13.4465648,19.6416619 7.50443524,18.1729864 0,18.2679008 C1.88500328,12.2102387 5.27863335,7.66308934 5.55826298,0 Z" id="Path"></path>
                        </g>
                        <g id="Marquette_County" opacity="0.3" transform="translate(92.148, 68.8658)">
                            <path d="M2.3818452,0.233746824 C7.47322657,-0.888366243 8.12860851,2.42676913 12.7025502,1.8216898 C13.0733092,4.89329479 16.3127684,5.09436347 19.0541374,5.7924839 C21.1395003,10.8547937 22.7454982,16.3966709 28.5808941,17.7067395 C27.5584983,19.5800501 28.685131,19.1841571 27.7869457,21.678158 C30.1525624,24.1209551 34.9356021,24.552441 38.9015991,23.266101 C38.9015991,29.354985 38.9015991,35.4444934 38.9015991,41.5340018 C37.3143265,41.5340018 35.7264297,41.5340018 34.1385329,41.5340018 C34.1385329,44.7111366 34.1385329,47.8870226 34.1385329,51.0647819 C29.3748425,51.0647819 24.6117762,51.0647819 19.8480858,51.0647819 C19.8480858,46.5638409 19.8480858,42.0628999 19.8480858,37.5625833 C14.8122559,35.7167479 6.35720476,37.2915777 0,36.7682996 C0,28.8260869 0,20.8838743 0,12.9410373 C1.5878968,12.9410373 3.1757936,12.9410373 4.76306623,12.9410373 C5.17314807,9.61965751 4.83484616,7.04510427 2.3818452,6.5867676 C2.3818452,4.46992659 2.3818452,2.35121227 2.3818452,0.233746824 Z" id="Path"></path>
                        </g>
                        <g id="Mason_County" opacity="0.3" transform="translate(156.4521, 221.4734)">
                            <path d="M4.76633144,0.121724845 C9.74411327,-0.357842676 13.1633345,0.721184246 17.4688817,0.915384115 C18.8158476,5.9239923 18.0886857,13.0057309 18.2634542,19.1839094 C13.2344902,19.1839094 8.20677451,19.1839094 3.17843464,19.1839094 C2.60169854,14.9951868 2.0280833,10.8039665 0.00264103574,8.06393747 C-0.121569445,3.7041192 4.173991,3.76593845 4.76633144,0.121724845 Z" id="Path"></path>
                        </g>
                        <g id="Mecosta_County" opacity="0.3" transform="translate(194.563, 241.3218)">
                            <path d="M18.260189,0.924160489 C18.260189,7.01429334 18.260189,13.1019284 18.260189,19.1926857 C12.1738755,19.1926857 6.08756191,19.1926857 0,19.1926857 C0,12.8377917 0,6.483522 0,0.131125656 C6.96764622,-0.485817977 11.5372187,1.29507599 18.260189,0.924160489 Z" id="Path"></path>
                        </g>
                        <g id="Menominee_County" opacity="0.3" transform="translate(102.004, 120.7255)">
                            <path d="M9.19822798,47.6545246 C6.21842478,48.2527352 7.4673955,44.6216347 5.22848597,44.4780143 C6.5380015,41.2871418 7.46177794,37.7109918 9.19822798,34.9466098 C8.35309737,33.999339 7.62468716,31.9249597 6.81638278,31.7700994 C6.38570322,31.6876737 2.72867203,35.1058412 0.464795572,34.9466098 C-1.41396597,32.0879378 2.96523369,29.3441621 3.64058917,25.4152053 C4.08312802,22.8431498 2.69059746,20.07627 2.84664077,17.4729927 C2.86224511,17.217598 4.40083222,15.9387513 2.84664077,15.8844253 C3.05074543,14.2352875 6.33514518,15.6671212 6.81638278,14.2958578 C6.81638278,11.1193475 6.81638278,7.94221263 6.81638278,4.7650778 C10.6488067,5.95150787 10.1301187,2.78498847 9.99217638,0 C12.9033205,0 15.8144646,0 18.7249846,0 C19.4646299,1.04405846 18.6581981,2.36474245 19.5183088,3.9707941 C19.929639,4.73822702 20.8983559,4.59023548 21.1062056,5.55936151 C22.191643,10.6285401 20.3958965,18.24105 21.1062056,23.0323542 C21.2953301,24.3118253 21.3558749,24.5859531 22.6941024,24.6202972 C21.4913205,27.2691584 20.6143571,31.1837532 19.5183088,32.5631342 C19.4015884,32.7092524 17.9141835,33.3880153 17.930412,33.3567935 C17.1208593,34.8772973 17.3493067,37.3987734 16.3431394,38.9167794 C14.7827062,41.2709065 11.7510967,42.9824879 9.99217638,45.2704247 C9.47660926,45.9435676 10.0389894,47.3404329 9.19822798,47.6545246 Z" id="Path"></path>
                        </g>
                        <g id="Midland_County" opacity="0.3" transform="translate(232.6694, 241.4303)">
                            <path d="M16.6729164,0.0225503862 C16.6729164,6.1120588 16.6729164,12.1996939 16.6729164,18.2892023 C10.3562829,17.792775 6.40901115,19.6704567 0,19.0841105 C0,12.7292164 0,6.37494673 0,0.0225503862 C5.67061417,1.66981487 10.2863755,-0.22410218 16.6729164,0.0225503862 Z" id="Path"></path>
                        </g>
                        <g id="Missaukee_County" opacity="0.6" transform="translate(203.2952, 202.5336)">
                            <path d="M19.0528891,0.794283707 C17.3713663,6.82447062 19.6389878,11.9329887 19.0528891,19.0615601 C12.7025502,19.0615601 6.35096303,19.0615601 0,19.0615601 C0,12.7079149 0,6.35364522 0,0 C4.86355813,1.75341875 12.8960439,0.337195913 19.0528891,0.794283707 Z" id="Path"></path>
                        </g>
                        <g id="Monroe_County" opacity="0.3" transform="translate(265.983, 337.5568)">
                            <path d="M12.7354732,19.0615601 C7.97303117,18.5332865 4.9857379,19.7821602 0.826871395,19.8552194 C-0.310372304,14.3714147 0.0691250446,7.37397507 0.0322988216,0.79365927 C7.0592415,1.20453873 12.8109982,0.340318098 19.0870604,0 C20.1057112,1.36002352 20.728012,3.12280882 23.0555541,3.17651039 C21.5631558,4.26615274 21.5881227,6.21439579 20.6743331,7.14855336 C19.5252301,8.31999694 17.7194968,8.3075082 16.7039669,9.52890673 C16.3107377,10.0041032 17.0310337,11.3822354 16.7039669,11.9117579 C16.4542976,12.3195151 14.6822697,12.2139853 14.3227459,12.706666 C13.5444018,13.7763264 13.0987421,15.6028042 12.7360974,16.6768357 C12.4939182,17.3924403 12.9277186,18.3315934 12.7354732,19.0615601 Z" id="Path"></path>
                        </g>
                        <g id="Montcalm_County" opacity="0.3" transform="translate(194.563, 261.3087)">
                            <path d="M0,0 C9.26273134,0 18.5235902,0 27.7856973,0 C27.7856973,6.08950842 27.7856973,12.1790168 27.7856973,18.2679008 C21.7006321,18.2679008 15.6136944,18.2679008 9.52738081,18.2679008 C9.52738081,15.3555272 9.52738081,12.4444025 9.52738081,9.53078004 C7.90827534,7.70929767 2.93486272,9.24416352 0,8.7358719 C0,5.82412274 0,2.91174915 0,0 Z" id="Path"></path>
                        </g>
                        <g id="Montmorency_County" opacity="0.600000024" transform="translate(242.1968, 164.4092)">
                            <path d="M18.2614374,18.2685253 C12.1738755,18.2685253 6.08693774,18.2685253 0,18.2685253 C0,12.1790168 0,6.08950842 0,0 C6.35221138,0 12.7025502,0 19.0541374,0 C19.6383636,6.93749369 17.7589779,11.4128328 18.2614374,18.2685253 Z" id="Path"></path>
                        </g>
                        <g id="Muskegon_County" opacity="0.3" transform="translate(158.8366, 261.3087)">
                            <path d="M0,0 C5.29236516,0 10.5847303,0 15.878968,0 C15.878968,2.91174915 15.878968,5.82412274 15.878968,8.73524746 C17.24778,11.0731391 24.0350401,7.98842096 25.4051005,10.3244393 C26.5904055,14.1597306 23.425847,13.6401991 20.6426584,13.5021986 C20.6426584,15.0901416 20.6426584,16.678709 20.6426584,18.2679008 C16.1436175,18.2679008 11.6445765,18.2679008 7.1455356,18.2679008 C4.39605235,12.5455613 0.806431866,7.66433822 0,0 Z" id="Path"></path>
                        </g>
                        <g id="Newaygo_County" opacity="0.3" transform="translate(175.5083, 241.4525)">
                            <path d="M18.2608132,0.000410159723 C18.2608132,9.52994133 18.2608132,19.0619702 18.2608132,28.5915014 C12.1732513,28.5915014 6.08693774,28.5915014 0,28.5915014 C0,19.0619702 0,9.52994133 0,0.000410159723 C6.631841,1.21868651 11.0640954,-0.0258161891 18.2608132,0.000410159723 Z" id="Path"></path>
                        </g>
                        <g id="Oakland_County" opacity="0.3" transform="translate(269.191, 293.7981)">
                            <path d="M23.0226311,0.0743673156 C22.553877,8.75029327 24.4132891,15.0976941 23.8172037,23.9022541 C16.9307,24.4261566 7.94447739,22.8488291 2.3818452,24.6959133 C-1.07919559,19.4206706 2.13529676,7.46645106 0,0.868026585 C7.26974609,0.199254691 14.8428404,-0.166665319 23.0226311,0.0743673156 Z" id="Path"></path>
                        </g>
                        <g id="Oceana_County" opacity="0.3" transform="translate(154.8662, 241.4529)">
                            <path d="M4.7636904,0 C9.79203027,0 14.8203701,0 19.84871,0 C19.84871,6.35302078 19.84871,12.7072904 19.84871,19.0615601 C14.2910712,19.0615601 8.73343241,19.0615601 3.1757936,19.0615601 C2.97855485,15.2874636 0.743390366,13.552778 0,10.3244393 C0.6678654,5.96024998 4.09769752,4.36356489 4.7636904,0 Z" id="Path"></path>
                        </g>
                        <g id="Ogemaw_County" opacity="0.3" transform="translate(242.1974, 203.3279)">
                            <path d="M19.0541374,18.2672764 C12.7019261,18.2672764 6.3515872,18.2672764 0,18.2672764 C0,12.1790168 0,6.08950842 0,0 C6.08693774,0 12.1738755,0 18.2614374,0 C19.3450022,5.26712505 19.0485199,11.9205 19.0541374,18.2672764 Z" id="Path"></path>
                        </g>
                        <g id="Ontonagon_County" opacity="0.3" transform="translate(21.4891, 63.5389)">
                            <path d="M36.5203781,0.000624436876 C36.5203781,4.23617977 36.5203781,8.47235954 36.5203781,12.7085393 C36.8418273,14.5050442 41.1735898,12.2895422 39.6955475,15.8856741 C40.3428152,19.1808275 34.8014049,16.2840649 34.1379087,18.2685253 C34.1379087,24.6227949 34.1379087,30.9770646 34.1379087,37.3307098 C29.6401161,37.3307098 25.140451,37.3307098 20.6414101,37.3307098 C20.6414101,34.4183362 20.6414101,31.5059626 20.6414101,28.593589 C17.1884835,26.7533735 10.3300676,28.3194612 5.55701463,27.7993053 C5.55701463,25.9459766 5.55701463,24.0932724 5.55701463,22.2393193 C3.70446836,22.2393193 1.85192209,22.2393193 0,22.2393193 C0,19.062809 0,15.8850497 0,12.7079149 C1.40376569,10.6073092 6.69675502,9.27288761 9.52675663,11.1193475 C17.4887109,9.02498617 26.0111727,7.49012033 29.3748425,0.794283707 C30.9358998,2.26171037 34.2839652,1.03906296 35.7258055,0 C35.9917033,0.000624436876 36.2557286,0.000624436876 36.5203781,0.000624436876 Z" id="Path"></path>
                        </g>
                        <g id="Osceola_County" opacity="0.6" transform="translate(194.563, 222.3888)">
                            <path d="M0,18.2685253 C0,12.1790168 0,6.09138173 0,0 C6.08756191,0 12.1738755,0 18.260189,0 C18.260189,6.35551853 18.260189,12.7091637 18.260189,19.0634334 C11.5372187,19.4343489 6.96764622,17.6515816 0,18.2685253 Z" id="Path"></path>
                        </g>
                        <g id="Oscoda_County" opacity="0.6" transform="translate(242.1968, 183.4714)">
                            <path d="M0,0 C6.08693774,0 12.1738755,0 18.2614374,0 C18.2614374,6.35426965 18.2614374,12.7079149 18.2614374,19.0615601 C12.1738755,19.0615601 6.08693774,19.0615601 0,19.0615601 C0,12.7079149 0,6.35426965 0,0 Z" id="Path"></path>
                        </g>
                        <g id="Otsego_County" opacity="0.3" transform="translate(222.2681, 164.4092)">
                            <path d="M0.08002697,4.76570224 C4.20518812,5.45070949 6.87602554,4.68077882 5.63828995,0 C10.1385792,0 14.6351235,0 19.1347886,0 C19.1347886,6.08888398 19.1347886,12.1790168 19.1347886,18.2685253 C13.048475,18.2685253 6.96153728,18.2685253 0.874599544,18.2685253 C1.47006084,12.9077347 -0.401210622,10.0153431 0.08002697,4.76570224 Z" id="Path"></path>
                        </g>
                        <g id="Ottawa_County" opacity="0.3" transform="translate(165.9821, 275.3188)">
                            <path d="M0,5.05145007 C4.49904094,5.05145007 8.99808187,5.05145007 13.4971228,5.05145007 C15.7073204,4.61434425 12.381101,-1.3590189 16.6722922,0.285747828 C19.4979246,0.210190966 18.1796707,3.69767092 18.2595649,5.05145007 C18.5941217,10.6563955 19.0291705,17.8667681 19.0535133,24.1136346 C13.4971228,24.1136346 7.93823566,24.1136346 2.38122103,24.1136346 C2.81065224,16.537342 1.5086268,10.6907395 0,5.05145007 Z" id="Path"></path>
                        </g>
                        <g id="Presque_Isle_County" opacity="0.3" transform="translate(246.8285, 140.582)">
                            <path d="M0.925350603,0 C3.68294811,0.948519615 4.27591272,4.06071301 4.89446843,7.14792892 C7.95853502,8.15639448 8.56460727,7.01617274 12.0406282,7.94221263 C14.6721427,8.22071148 15.4841921,10.3213171 16.8036944,11.9136312 C21.7608786,11.1899088 23.4061993,13.7813219 25.5371268,15.8844253 C28.0294507,15.3399163 28.779707,15.9762175 29.5068688,15.0901416 C31.6927236,16.7686279 32.7413347,19.0840398 33.4753625,19.8558438 C34.6238413,21.0603825 31.8531362,20.496516 33.4753625,23.0329786 C22.3613332,23.0329786 11.2466798,23.0329786 0.13077803,23.0329786 C0.65758027,15.6159174 -0.920329758,6.09450391 0.925350603,0 Z" id="Path"></path>
                        </g>
                        <g id="Roscommon_County" opacity="0.3" transform="translate(222.5096, 203.3279)">
                            <path d="M0.633737461,0 C6.7206752,0 12.8076129,0 18.8939265,0 C18.8939265,6.08950842 18.8939265,12.1790168 18.8939265,18.2672764 C12.8076129,18.2672764 6.7206752,18.2672764 0.633737461,18.2672764 C1.21858782,11.138705 -1.04903368,6.03018691 0.633737461,0 Z" id="Path"></path>
                        </g>
                        <g id="Saginaw_County" opacity="0.3" transform="translate(242.1968, 255.6539)">
                            <path d="M0,23.9227245 C0,17.5678304 0,11.2135608 0,4.86116442 C2.38122103,4.86116442 4.7636904,4.86116442 7.1455356,4.86116442 C9.39318355,4.99104729 6.48578446,-0.0350451295 8.73405658,0.0942133039 C10.8081844,-0.12683735 12.7050469,-0.173670116 11.909226,2.4783133 C14.9289763,3.42745735 22.114459,0.211607437 21.4359826,4.86053998 C23.0245036,4.86053998 24.6130246,4.86053998 26.199673,4.86053998 C26.199673,9.36148098 26.199673,13.8611731 26.199673,18.3614897 C23.2891531,18.3614897 20.3780089,18.3614897 17.4681132,18.3614897 C15.7129379,18.4613996 17.1304354,21.7309511 16.6735406,23.1284408 C11.2195145,23.4962341 6.22113499,24.3204908 0,23.9227245 Z" id="Path"></path>
                        </g>
                        <g id="Saint_Joseph_County" opacity="0.3" transform="translate(185.8296, 339.1448)">
                            <path d="M0.794572574,0 C6.61623667,0 12.4379008,0 18.260189,0 C18.260189,5.29460027 18.260189,10.589825 18.260189,15.8850497 C12.1732513,15.8850497 6.08631356,15.8850497 0,15.8850497 C1.71460398,12.0410163 0.365141363,5.13224669 0.794572574,0 Z" id="Path"></path>
                        </g>
                        <g id="Sanilac_County" opacity="0.3" transform="translate(292.2137, 248.6014)">
                            <path d="M23.8178278,28.5923401 C16.6148683,28.0053695 11.49852,29.5052668 4.76493875,29.3859994 C4.97778184,25.2010235 5.71430629,20.4927694 0,22.2380705 C1.79512233,16.0736296 0.456894834,7.24159445 0,0.79365927 C7.25663845,1.16894583 13.3816508,0.414001649 19.8480858,0 C19.232651,6.72518516 22.5388968,10.955745 23.0232553,15.8844253 C23.4264712,19.9788579 22.5750989,26.0895971 23.8178278,28.5923401 Z" id="Path"></path>
                        </g>
                        <g id="Schoolcraft_County" opacity="0.3" transform="translate(151.6923, 92.1332)">
                            <path d="M29.3735941,28.5929646 C28.2307329,29.0369392 27.4367845,29.8318473 26.9929973,30.9751912 C20.979712,26.9294647 8.95376557,28.7447027 10.3200809,38.9174039 C7.60367879,37.6210729 7.93449062,39.0116938 6.35096303,40.5059713 C6.44521319,32.9996156 4.97715766,27.0543521 5.55701463,19.0615601 C5.21559185,17.2856616 1.64469657,18.7393507 0,18.2679008 C0,15.3555272 0,12.4425292 0,9.53078004 C3.17516943,9.53078004 6.35096303,9.53078004 9.52675663,9.53078004 C11.3493426,7.91161522 9.81450051,2.93547776 10.3200809,0 C16.6716681,0 23.0238794,0 29.3735941,0 C29.3735941,9.53078004 29.3735941,19.0615601 29.3735941,28.5929646 Z" id="Path"></path>
                        </g>
                        <g id="Shiawassee_County" opacity="0.3" transform="translate(242.1968, 279.5766)">
                            <path d="M16.6729164,0 C16.8689068,6.4210844 16.0855694,13.8237836 17.467489,19.0615601 C11.6452007,19.0615601 5.8216641,19.0615601 0,19.0615601 C0,12.9720517 0,6.88254325 0,0.79365927 C6.22113499,1.19142556 11.2195145,0.368417757 16.6729164,0 Z" id="Path"></path>
                        </g>
                        <g id="St._Clair_County" opacity="0.3" transform="translate(296.9786, 277.9626)">
                            <path d="M11.1134051,25.4419249 C11.0216516,21.5610497 11.5403396,17.0694753 10.3200809,14.3213286 C7.14491143,14.3213286 3.96849366,14.3213286 0.793324227,14.3213286 C0.277132932,10.3367969 1.8331969,4.27913474 0,1.61341371 C5.26739823,0.000493262928 12.0852429,-0.0619504247 19.0528891,0.0242218642 C20.7531371,2.56006002 20.7993259,6.74940702 23.0213827,8.76134264 C18.2720483,15.3928623 22.9496028,31.4565009 14.2898229,34.1784212 C12.7905587,34.0891268 13.7374295,31.5507909 11.9086018,31.7943213 C12.427914,28.4204888 14.1818409,31.2117216 15.0831471,28.6178109 C15.1961225,26.1206878 13.0464697,25.8896462 11.1134051,25.4419249 Z" id="Path"></path>
                        </g>
                        <g id="Tuscola_County" opacity="0.3" transform="translate(269.1898, 247.5211)">
                            <path d="M8.73468075,0.284839916 C8.73468075,0.550225588 8.73468075,0.815611261 8.73468075,1.07974806 C9.09295621,3.86161434 12.9690722,2.73762797 15.0850196,2.6670666 C17.4094409,2.5908853 20.1888844,1.10097891 22.229931,1.87340733 C22.8316341,7.89048107 23.3016365,14.0380621 23.0232553,20.9349674 C19.8480858,20.9349674 16.6729164,20.9349674 13.4958745,20.9349674 C11.7413234,21.0342529 13.1594451,24.3044288 12.7025502,25.7000452 C8.39637884,25.8948695 4.97715766,26.973272 0,26.4937045 C0,19.8759225 0,13.2562671 0,6.63786069 C4.56957252,6.20200376 4.31990321,-1.56723986 8.73468075,0.284839916 Z" id="Path"></path>
                        </g>
                        <g id="Van_Buren_County" opacity="0.3" transform="translate(162.8063, 319.2896)">
                            <path d="M3.1757936,0 C9.7914061,0 16.4076428,0 23.0238794,0 C21.3710686,5.71172411 22.5726022,13.0644683 23.0238794,19.0609356 C16.9363175,19.0609356 10.8506281,19.0609356 4.76431458,19.0609356 C4.76431458,16.1485621 4.76431458,13.2374373 4.76431458,10.3244393 C4.66507103,8.56914725 1.39565143,9.98661896 0,9.53078004 C0.383866562,5.67738008 2.53102261,3.59051204 3.1757936,0 Z" id="Path"></path>
                        </g>
                        <g id="Washtenaw_County" opacity="0.3" transform="translate(251.7229, 318.4947)">
                            <path d="M22.229931,0 C23.3671747,5.48318021 22.9876774,12.4799954 23.0251278,19.0621845 C15.108114,19.0852887 6.82720724,18.741224 0,19.8558438 C0,13.5015741 0,7.14730449 0,0.794908143 C7.40581586,0.523902539 16.0437498,1.48865751 22.229931,0 Z" id="Path"></path>
                        </g>
                        <g id="Wayne_County" opacity="0.3" transform="translate(274.7481, 317.701)">
                            <path d="M14.290447,22.237446 C11.5028892,22.3791932 11.6776577,19.5548652 9.52675663,19.0609356 C5.73740071,18.4483631 4.41727424,20.303565 0.793324227,19.8558438 C0.756498004,13.2736547 1.13537118,6.27683948 0,0.79365927 C9.43437899,1.22951621 17.4868384,0.284118779 26.1990489,0 C26.4643225,0 26.728972,0 26.9923731,0 C26.1534842,4.45473267 22.9065349,6.50038788 18.2608132,7.14792892 C16.5424642,11.3872309 15.9988093,14.8903218 16.6722922,19.8564682 C14.9402114,19.7115989 14.1450147,20.5046337 14.290447,22.237446 Z" id="Path"></path>
                        </g>
                        <g id="Wexford_County" opacity="0.3" transform="translate(184.2417, 202.5336)">
                            <path d="M0,0 C6.08693774,0 12.1732513,0 18.260189,0 C18.260189,6.35426965 18.260189,12.7085393 18.260189,19.0615601 C12.1732513,19.0615601 6.08693774,19.0615601 0,19.0615601 C0,12.7079149 0,6.35364522 0,0 Z" id="Path"></path>
                        </g>
                    </g>
                </g>
            </g>
        </g>
    </g>
</svg>