<?xml version="1.0" encoding="UTF-8"?>
<svg width="16px" height="16px" viewBox="0 0 16 16" version="1.1" xmlns="http://www.w3.org/2000/svg" xmlns:xlink="http://www.w3.org/1999/xlink">
    <title>Icons / 16x16 / Pin@1x</title>
    <g id="Icons-/-16x16-/-Pin" stroke="none" stroke-width="1" fill="none" fill-rule="evenodd">
        <path d="M7.75,0.25 C11.0582321,0.25 13.75,2.85290826 13.75,6.0767913 C13.75,9.0443845 9.62207216,15.75 7.75,15.75 C6.3191935,15.75 1.75,8.78470844 1.75,6.0767913 C1.75,2.85300868 4.44181748,0.25 7.75,0.25 Z M7.75,1.75 C5.25919293,1.75 3.25,3.69290538 3.25,6.0767913 C3.25,7.13810672 4.13783975,9.0789124 5.51509068,11.1783976 C6.09068781,12.0558395 6.70901327,12.8924225 7.23589942,13.5159367 C7.43039859,13.746106 7.60523441,13.9384204 7.7497635,14.0823591 L7.886,14.211 L7.94544339,14.1800433 C9.02662766,13.5235098 12.1057065,8.41855719 12.2451062,6.22501295 L12.25,6.0767913 C12.25,3.69281197 10.2408632,1.75 7.75,1.75 Z M7.78283075,4.41211631 C8.74659371,4.41211631 9.528131,5.16766042 9.528131,6.09983538 C9.528131,7.03180175 8.74659371,7.78734586 7.78283075,7.78734586 C6.81885207,7.78734586 6.03753049,7.03180175 6.03753049,6.09983538 C6.03753049,5.16766042 6.81885207,4.41211631 7.78283075,4.41211631 Z" id="Shape" fill="#6D6A94" fill-rule="nonzero"></path>
    </g>
</svg>