<svg width="263" height="43" viewBox="0 0 263 43" xmlns="http://www.w3.org/2000/svg" xmlns:xlink="http://www.w3.org/1999/xlink">
    <defs>
        <linearGradient x1="49.999%" y1="-11.514%" x2="49.999%" y2="99.237%" id="3df7c93kaa">
            <stop offset="0%"/>
            <stop offset="50%"/>
            <stop offset="100%"/>
        </linearGradient>
        <linearGradient x1="49.998%" y1="-194.133%" x2="49.998%" y2="131.171%" id="4okttxv7ub">
            <stop offset="0%"/>
            <stop offset="50%"/>
            <stop offset="100%"/>
        </linearGradient>
        <linearGradient x1="50.119%" y1="-36.964%" x2="50.119%" y2="94.667%" id="2mpc24ulvc">
            <stop offset="0%"/>
            <stop offset="50%"/>
            <stop offset="100%"/>
        </linearGradient>
        <linearGradient x1="49.999%" y1="8.404%" x2="49.999%" y2="108.156%" id="9i5wjj0y3e">
            <stop offset="0%"/>
            <stop offset="50%"/>
            <stop offset="100%"/>
        </linearGradient>
        <linearGradient x1="49.999%" y1="8.404%" x2="49.999%" y2="108.156%" id="e0xnjck1fg">
            <stop offset="0%"/>
            <stop offset="50%"/>
            <stop offset="100%"/>
        </linearGradient>
        <linearGradient x1="49.999%" y1="8.404%" x2="49.999%" y2="108.156%" id="8et0a7bx4i">
            <stop offset="0%"/>
            <stop offset="50%"/>
            <stop offset="100%"/>
        </linearGradient>
        <linearGradient x1="49.999%" y1="8.404%" x2="49.999%" y2="108.156%" id="c5kpqmow8k">
            <stop offset="0%"/>
            <stop offset="50%"/>
            <stop offset="100%"/>
        </linearGradient>
        <linearGradient x1="49.999%" y1="-11.514%" x2="49.999%" y2="99.237%" id="fx0406ncdm">
            <stop offset="0%"/>
            <stop offset="100%"/>
        </linearGradient>
        <path d="M0 20.79V.877h8.42c2.133 0 3.767.513 4.903 1.54 1.137 1.028 1.705 2.448 1.705 4.261 0 1.794-.568 3.213-1.705 4.256-1.136 1.044-2.77 1.565-4.903 1.565H2.93v8.293H0zm2.929-10.658H8.11c1.34 0 2.349-.301 3.026-.903.678-.602 1.017-1.453 1.017-2.552s-.339-1.95-1.017-2.551c-.677-.602-1.686-.904-3.026-.904H2.93v6.91z" id="n49guzr8gd"/>
        <path d="M23.725 21.057c-1.413 0-2.637-.299-3.67-.896-1.035-.597-1.836-1.447-2.403-2.55-.568-1.104-.852-2.417-.852-3.94 0-1.522.284-2.832.852-3.93.567-1.1 1.37-1.948 2.406-2.545s2.26-.896 3.67-.896c1.409 0 2.634.299 3.674.896s1.846 1.446 2.417 2.547c.57 1.1.856 2.41.856 3.928 0 1.518-.286 2.83-.856 3.936-.57 1.105-1.376 1.957-2.415 2.554-1.04.597-2.266.896-3.679.896zm-.003-2.246c1.235 0 2.22-.432 2.955-1.295.734-.863 1.1-2.146 1.1-3.847 0-1.702-.367-2.982-1.104-3.838-.736-.856-1.72-1.285-2.953-1.285-1.232 0-2.214.429-2.946 1.285-.732.856-1.097 2.136-1.097 3.838 0 1.701.365 2.984 1.096 3.847.73.863 1.713 1.295 2.949 1.295z" id="f9cahvzozf"/>
        <path d="M39.445 21.057c-1.246 0-2.341-.296-3.286-.886-.944-.59-1.676-1.439-2.197-2.544-.522-1.106-.782-2.425-.782-3.958 0-1.54.26-2.857.782-3.953.52-1.096 1.253-1.94 2.197-2.53.945-.59 2.04-.886 3.286-.886 1.228 0 2.305.305 3.23.915.927.61 1.543 1.44 1.849 2.49h-.35V0h2.848v20.79h-2.809v-3.218h.33a4.452 4.452 0 0 1-1.847 2.55c-.926.623-2.01.935-3.25.935zm.71-2.246c1.23 0 2.218-.432 2.965-1.295.748-.863 1.122-2.146 1.122-3.847 0-1.702-.374-2.982-1.122-3.838-.747-.856-1.736-1.285-2.965-1.285-1.234 0-2.226.429-2.975 1.285-.749.856-1.123 2.136-1.123 3.838 0 1.701.374 2.984 1.123 3.847s1.74 1.295 2.975 1.295z" id="1a29jb0i8h"/>
        <path d="M56.066 21.057c-1.173 0-2.259-.152-3.256-.454-.998-.303-1.829-.726-2.492-1.27l.873-1.956a7.92 7.92 0 0 0 2.32 1.175 8.55 8.55 0 0 0 2.59.399c1.04 0 1.82-.185 2.343-.554.523-.369.785-.87.785-1.503 0-.499-.166-.897-.498-1.195-.333-.297-.87-.523-1.613-.677l-2.714-.536c-1.204-.27-2.114-.722-2.73-1.357-.616-.634-.925-1.453-.925-2.457 0-.852.23-1.606.687-2.262.458-.656 1.114-1.172 1.97-1.547.855-.375 1.86-.563 3.014-.563 1.037 0 2.007.15 2.91.448.904.3 1.656.737 2.258 1.312l-.902 1.896a6.278 6.278 0 0 0-1.97-1.163 6.359 6.359 0 0 0-2.216-.407c-1.048 0-1.827.2-2.335.6-.509.4-.763.92-.763 1.558 0 .485.155.885.466 1.199.31.313.801.547 1.471.7l2.715.546c1.265.26 2.218.692 2.859 1.293.64.601.96 1.413.96 2.435 0 .898-.242 1.672-.728 2.323-.486.65-1.164 1.15-2.034 1.496-.87.347-1.885.52-3.045.52z" id="xt0oi44tuj"/>
        <rect id="09wtf3ed9l" x="0" y="0" width="1.667" height="31.323" rx=".834"/>
    </defs>
    <g fill="none" fill-rule="evenodd">
        <g fill-rule="nonzero">
            <path d="M5.557 25.95c0-11.557 9.518-20.87 20.962-20.253 9.986.533 18.129 8.724 18.761 18.907.33 5.217-1.293 10.07-4.181 13.83-.853 1.121-.743 2.72.248 3.73 1.182 1.206 3.108 1.094 4.153-.252a26.06 26.06 0 0 0 5.393-15.793C50.975 11.952 39.723.199 25.803.002 11.582-.194 0 11.504 0 25.95c0 6.003 2.008 11.558 5.392 15.962a2.736 2.736 0 0 0 4.154.252c.99-1.01 1.073-2.637.192-3.759A20.576 20.576 0 0 1 5.557 25.95z" fill="url(#3df7c93kaa)"/>
            <g transform="translate(10.206 10.436)">
                <ellipse fill="url(#4okttxv7ub)" cx="15.24" cy="15.515" rx="4.979" ry="5.077"/>
                <path d="M5.584 15.515c0-5.667 4.704-10.211 10.344-9.818 4.787.336 8.638 4.291 8.94 9.172.138 2.188-.412 4.208-1.485 5.891-.688 1.122-.495 2.581.413 3.507a2.717 2.717 0 0 0 4.291-.505c1.568-2.525 2.42-5.526 2.31-8.752C30.15 6.79 23.494.142 15.434.002 6.933-.138 0 6.875 0 15.515c0 3.057.853 5.89 2.338 8.275a2.729 2.729 0 0 0 4.292.449c.908-.926 1.1-2.385.412-3.479a10.188 10.188 0 0 1-1.458-5.245z" fill="url(#2mpc24ulvc)"/>
            </g>
        </g>
        <g fill="#000" fill-rule="nonzero">
            <path d="M65.512 35.6V7.81h12.122c3.044 0 5.399.723 7.065 2.169 1.666 1.445 2.5 3.455 2.5 6.03 0 1.709-.375 3.167-1.122 4.376-.748 1.209-1.817 2.135-3.208 2.779-1.39.643-3.03.965-4.92.965l.551-.749h1.338c1.102 0 2.086.29 2.952.868.866.578 1.575 1.458 2.126 2.64l4.053 8.712h-5.588l-4.094-9.027c-.367-.92-.925-1.524-1.672-1.813-.748-.29-1.647-.434-2.696-.434h-4.33V35.6h-5.077zm5.077-15.018h6.219c1.784 0 3.142-.375 4.073-1.124.932-.748 1.398-1.846 1.398-3.29 0-1.446-.466-2.537-1.398-3.272-.931-.736-2.289-1.104-4.073-1.104h-6.219v8.79zM100.328 35.994c-1.732 0-3.254-.414-4.565-1.242-1.312-.828-2.336-2.017-3.07-3.567-.735-1.55-1.102-3.403-1.102-5.558s.367-4 1.102-5.538c.734-1.537 1.758-2.72 3.07-3.547 1.311-.828 2.833-1.242 4.565-1.242 1.68 0 3.155.414 4.428 1.242 1.272.827 2.119 1.938 2.538 3.33h-.432l.432-4.178h4.723c-.078.815-.15 1.643-.216 2.483-.066.841-.098 1.669-.098 2.484V35.6h-4.88l-.04-4.1h.472c-.42 1.367-1.272 2.457-2.558 3.272-1.286.814-2.742 1.222-4.369 1.222zm1.378-3.784c1.548 0 2.794-.546 3.739-1.636.944-1.09 1.417-2.74 1.417-4.947s-.473-3.85-1.417-4.927c-.945-1.077-2.191-1.616-3.74-1.616-1.547 0-2.794.539-3.738 1.616-.945 1.077-1.417 2.72-1.417 4.927 0 2.207.465 3.856 1.397 4.947.931 1.09 2.184 1.636 3.759 1.636zM124.872 35.994c-1.732 0-3.26-.414-4.586-1.242-1.325-.828-2.354-2.017-3.09-3.567-.734-1.55-1.101-3.403-1.101-5.558s.367-4 1.102-5.538c.735-1.537 1.764-2.72 3.09-3.547 1.325-.828 2.853-1.242 4.585-1.242 1.653 0 3.116.4 4.388 1.202 1.273.802 2.119 1.886 2.539 3.252h-.512V6.59h4.92v29.01h-4.841v-4.217h.472c-.42 1.419-1.266 2.542-2.539 3.37-1.272.828-2.748 1.242-4.427 1.242zm1.377-3.784c1.548 0 2.795-.546 3.74-1.636.944-1.09 1.416-2.74 1.416-4.947s-.472-3.85-1.417-4.927c-.944-1.077-2.19-1.616-3.739-1.616-1.548 0-2.8.539-3.758 1.616-.958 1.077-1.437 2.72-1.437 4.927 0 2.207.479 3.856 1.437 4.947.957 1.09 2.21 1.636 3.758 1.636zM149.337 35.994c-1.732 0-3.254-.414-4.566-1.242-1.312-.828-2.335-2.017-3.07-3.567-.735-1.55-1.102-3.403-1.102-5.558s.367-4 1.102-5.538c.735-1.537 1.758-2.72 3.07-3.547 1.312-.828 2.834-1.242 4.566-1.242 1.679 0 3.155.414 4.427 1.242 1.273.827 2.12 1.938 2.539 3.33h-.433l.433-4.178h4.723c-.079.815-.15 1.643-.217 2.483-.065.841-.098 1.669-.098 2.484V35.6h-4.88l-.04-4.1h.473c-.42 1.367-1.273 2.457-2.559 3.272-1.285.814-2.742 1.222-4.368 1.222zm1.377-3.784c1.548 0 2.795-.546 3.74-1.636.944-1.09 1.416-2.74 1.416-4.947s-.472-3.85-1.417-4.927c-.944-1.077-2.19-1.616-3.739-1.616-1.548 0-2.794.539-3.739 1.616-.944 1.077-1.417 2.72-1.417 4.927 0 2.207.466 3.856 1.397 4.947.932 1.09 2.185 1.636 3.76 1.636zM166.127 35.6V20.779c0-.841-.02-1.695-.06-2.562a30.6 30.6 0 0 0-.216-2.523h4.762l.551 5.44h-.787c.263-1.314.702-2.405 1.319-3.272.616-.867 1.37-1.51 2.263-1.931a6.745 6.745 0 0 1 2.912-.631c.473 0 .853.02 1.142.06.288.039.577.11.866.216l-.04 4.336c-.498-.21-.925-.342-1.279-.394a9.212 9.212 0 0 0-1.318-.08c-1.129 0-2.08.237-2.854.71a4.362 4.362 0 0 0-1.732 1.971c-.38.841-.57 1.8-.57 2.877V35.6h-4.96z"/>
        </g>
        <g fill-rule="nonzero">
            <g transform="translate(201.126 14.9)">
                <use fill="#000" xlink:href="#n49guzr8gd"/>
                <use fill="url(#9i5wjj0y3e)" xlink:href="#n49guzr8gd"/>
            </g>
            <g transform="translate(201.126 14.9)">
                <use fill="#000" xlink:href="#f9cahvzozf"/>
                <use fill="url(#e0xnjck1fg)" xlink:href="#f9cahvzozf"/>
            </g>
            <g transform="translate(201.126 14.9)">
                <use fill="#000" xlink:href="#1a29jb0i8h"/>
                <use fill="url(#8et0a7bx4i)" xlink:href="#1a29jb0i8h"/>
            </g>
            <g transform="translate(201.126 14.9)">
                <use fill="#000" xlink:href="#xt0oi44tuj"/>
                <use fill="url(#c5kpqmow8k)" xlink:href="#xt0oi44tuj"/>
            </g>
        </g>
        <g transform="translate(188.46 8.732)">
            <use fill="#000" xlink:href="#09wtf3ed9l"/>
            <use fill="url(#fx0406ncdm)" xlink:href="#09wtf3ed9l"/>
        </g>
    </g>
</svg>
