<svg width="340" height="250" viewBox="0 0 340 250" xmlns="http://www.w3.org/2000/svg">
    <g fill="none" fill-rule="evenodd">
        <g fill="#FFF">
            <path d="M253.739 197.077v-2.52h-1.009v2.52h-2.522v1.008h2.522v2.52h1.009v-2.52h2.522v-1.008h-2.522zM93.323 170.363h-1.008v2.52h-2.523v1.008h2.523v2.52h1.008v-2.52h2.523v-1.008h-2.523v-2.52zM63.056 25.706v-2.52h-1.009v2.52h-2.522v1.008h2.522v2.52h1.01v-2.52h2.522v-1.008h-2.523z" fill-rule="nonzero"/>
            <path d="M104.926 185.988a3.54 3.54 0 0 1 3.531-3.528 3.54 3.54 0 0 1 3.531 3.528 3.54 3.54 0 0 1-3.531 3.528 3.54 3.54 0 0 1-3.531-3.528zm1.009 0a2.529 2.529 0 0 0 2.522 2.52 2.529 2.529 0 0 0 2.522-2.52 2.529 2.529 0 0 0-2.522-2.52 2.529 2.529 0 0 0-2.522 2.52z"/>
            <path d="M221.454 7.56V5.04h-1.009v2.52h-2.522V8.57h2.522v2.52h1.009v-2.52h2.522V7.56h-2.522z" fill-rule="nonzero"/>
            <path d="M238.1 3.528A3.54 3.54 0 0 1 241.633 0a3.54 3.54 0 0 1 3.531 3.528 3.54 3.54 0 0 1-3.531 3.528 3.54 3.54 0 0 1-3.531-3.528zm1.01 0a2.529 2.529 0 0 0 2.522 2.52 2.529 2.529 0 0 0 2.522-2.52 2.529 2.529 0 0 0-2.522-2.52 2.529 2.529 0 0 0-2.522 2.52z"/>
            <path d="M316.025 30.24c4.367-.048 4.826-3.865 4.85-4.03l.965.094c0 .047-.58 4.83-5.79 4.878-4.295.047-4.343 3.935-4.343 4.1h-.965c0-.047.024-4.996 5.283-5.043zM32.329 59.476h.482-.482c0-.165-.024-4.053-4.343-4.1-5.235-.048-5.79-4.831-5.79-4.879l.965-.094c.024.165.507 3.983 4.85 4.03 5.259.07 5.283 4.996 5.283 5.043h-.965z" fill-rule="nonzero"/>
        </g>
        <path d="M83.739 134.523c0 5.33 4.35 9.63 9.684 9.63H261.71c5.36 0 9.685-4.325 9.685-9.63V29.791c0-5.329-4.35-9.63-9.685-9.63H93.423c-5.335 0-9.684 4.325-9.684 9.63v104.732z" fill="#00A3FF" fill-rule="nonzero" opacity=".3"/>
        <path d="M93.906 145.161c-5.6 0-10.167-4.54-10.167-10.11V30.271c0-5.569 4.567-10.11 10.167-10.11h168.33c5.6 0 10.167 4.541 10.167 10.11v104.756c.024 5.593-4.543 10.134-10.143 10.134H93.906zM84.7 30.271v104.756c0 5.043 4.135 9.154 9.206 9.154h168.33c5.072 0 9.206-4.11 9.206-9.154V30.271c0-5.043-4.134-9.154-9.206-9.154H93.906c-5.071 0-9.206 4.111-9.206 9.154z" fill="#FFF"/>
        <path d="M121.068 77.621h112.997V59.968c-5.472-7.613-12.952-6.59-22.44 3.07-3.12 3.163-10.633 11.895-17.401 3.83-4.345-5.163-8.665-19.7-12.77-23.791-2.903-2.879-10.296-4.663-14.904 3.64-2.088 3.782-5.448 13.656-6.768 15.916-1.632 2.783-9.288 7.66-12.96-.38-2.665-5.853-5.617-19.557-11.017-23.197-3.632-2.41-8.544-4.005-14.737-4.782v43.347z" fill="#50CD89" fill-rule="nonzero"/>
        <path d="M118.042 81.653V30.242H239.11v51.411H118.042zm120.103-.952V31.194h-119.14v49.507h119.14z" fill="#FFF"/>
        <path d="M201.544 56.989c-.48-1.158-.887-2.15-1.246-2.93-3.69-8.06-4.96-9.81-8.052-10.991-2.493-.97-4.89-.945-7.142.047-2.972 1.3-5.129 4.136-5.944 6.358a396.689 396.689 0 0 0-1.725 4.703c-2.684 7.35-3.906 10.707-6.854 13.921-2.277 2.482-4.937 3.664-7.67 3.404-3.139-.284-5.823-2.388-6.997-4.255-1.03-1.63-1.773-3.38-2.636-5.412-1.51-3.593-3.403-8.083-7.957-13.59-6.494-7.87-23.87-3.805-24.037-3.782l-.216-.921c.743-.166 18.142-4.231 25.02 4.088 4.625 5.602 6.543 10.163 8.1 13.827.84 1.985 1.558 3.71 2.565 5.27 1.054 1.655 3.475 3.546 6.279 3.806 2.468.212 4.769-.828 6.878-3.12 2.828-3.073 4.026-6.382 6.662-13.614a622.859 622.859 0 0 1 1.726-4.727c.886-2.41 3.235-5.46 6.446-6.901 2.493-1.111 5.153-1.111 7.885-.047 3.523 1.37 4.985 3.687 8.556 11.486.383.827.79 1.82 1.27 2.978 3.02 7.256 8.052 19.38 15.697 16.592 3.403-1.23 4.218-3.876 5.872-13.732.431-2.53 1.534-4.444 3.163-5.53 1.726-1.135 4.05-1.395 6.878-.757l-.215.922c-2.565-.591-4.626-.378-6.136.614-1.797 1.182-2.492 3.333-2.756 4.916-1.75 10.281-2.612 13.047-6.494 14.465-.887.354-1.75.52-2.588.52-7.022 0-11.528-10.849-14.332-17.608z" fill="#FFF" fill-rule="nonzero"/>
        <path d="m199.763 114.92 4.198-15.122c5.978 1.686 10.46 6.98 10.935 13.388l-15.133 1.733z" fill="#50CD89" fill-rule="nonzero"/>
        <path d="M184.63 114.415c0-8.611 7.018-15.625 15.637-15.625 1.433 0 2.865.191 4.226.573 6.303 1.765 10.863 7.323 11.364 13.86.024.381.048.787.048 1.192 0 8.612-7.02 15.625-15.638 15.625-8.619 0-15.638-7.013-15.638-15.625zm.954 0c0 8.087 6.59 14.671 14.683 14.671 8.094 0 14.683-6.584 14.683-14.67 0-.382-.024-.764-.048-1.122-.453-6.13-4.75-11.355-10.672-13.025a15.856 15.856 0 0 0-3.963-.524c-8.093 0-14.683 6.583-14.683 14.67z" fill="#FFF"/>
        <path d="m234.065 115.927 11.339-11.088c2.158 2.5 3.534 5.717 3.795 9.282l-15.134 1.806z" fill="#50CD89" fill-rule="nonzero"/>
        <path d="M218.932 114.415c0-8.611 7.019-15.625 15.638-15.625 1.432 0 2.865.191 4.226.573 2.865.81 5.42 2.41 7.425 4.628a15.648 15.648 0 0 1 3.366 6.059c.31 1.026.501 2.1.573 3.173.024.381.048.787.048 1.192 0 3.054-.884 6.012-2.531 8.54a15.631 15.631 0 0 1-13.107 7.085c-8.62 0-15.638-7.013-15.638-15.625zm.955 0c0 8.087 6.59 14.671 14.683 14.671 4.966 0 9.574-2.48 12.295-6.655a14.665 14.665 0 0 0 2.388-8.016c0-.381-.024-.763-.048-1.12a13.704 13.704 0 0 0-.55-2.983 14.482 14.482 0 0 0-3.15-5.677 14.387 14.387 0 0 0-6.972-4.342 14.85 14.85 0 0 0-3.963-.548c-8.094 0-14.683 6.583-14.683 14.67z" fill="#FFF"/>
        <path d="m98.872 125.42 11.876-15.708 9.865 13.282 17.67-18.575 13.41 14.213 13.049-14.801.718.637-13.768 15.585-13.408-14.213-17.766 18.673-9.77-13.184-11.11 14.68-.766-.59z" fill="#FFF" fill-rule="nonzero"/>
        <path d="M164.955 105.847a1.513 1.513 0 1 1 0-3.026 1.513 1.513 0 0 1 0 3.026zM151.84 119.96a1.513 1.513 0 1 1-.001-3.026 1.513 1.513 0 0 1 0 3.026zM137.715 106.855a1.513 1.513 0 1 1-.001-3.026 1.513 1.513 0 0 1 .001 3.026zM120.564 125a1.513 1.513 0 1 1-.001-3.025 1.513 1.513 0 0 1 0 3.025zM110.475 111.895a1.513 1.513 0 1 1-.001-3.025 1.513 1.513 0 0 1 0 3.025zM99.377 126.008a1.513 1.513 0 1 1-.001-3.025 1.513 1.513 0 0 1 0 3.025z" fill="#50CD89"/>
        <path d="M94.837 130.04V98.79h73.65v31.25h-73.65zm72.69-.961V99.752h-71.73v29.327h71.73z" fill="#FFF"/>
        <g fill="#FFF" fill-rule="nonzero">
            <path d="m246.763 122.984-12.698-7.434 14.543-4.663c.283.947.473 1.962.544 2.978.023.37.047.739.047 1.108 0 2.955-.899 5.702-2.436 8.01z"/>
        </g>
        <g>
            <path d="M151.335 187.598c0 2.714 2.187 4.942 4.902 4.942H233.2c2.691 0 4.902-2.204 4.902-4.942v-26.406c0-2.713-2.187-4.942-4.902-4.942h-76.962a4.943 4.943 0 0 0-4.902 4.942v26.406z" fill="#00A3FF" fill-rule="nonzero"/>
            <path d="M156.72 193.548c-2.957 0-5.385-2.425-5.385-5.432v-26.434c0-2.983 2.404-5.432 5.386-5.432h77.004c2.957 0 5.385 2.425 5.385 5.432v26.434c-.024 3.007-2.428 5.432-5.41 5.432h-76.98zm-4.423-31.841v26.433c0 2.45 1.971 4.463 4.424 4.463h77.004c2.428 0 4.423-1.989 4.423-4.463v-26.433c0-2.45-1.971-4.463-4.423-4.463H156.72c-2.429 0-4.424 1.989-4.424 4.463z" fill="#FFF"/>
            <path d="M170 183.468c-4.736 0-8.576-3.837-8.576-8.569 0-4.732 3.84-8.568 8.576-8.568 4.736 0 8.576 3.836 8.576 8.568 0 4.732-3.84 8.569-8.576 8.569z" fill="#50CD89"/>
            <path d="M211.87 169.355v4.032h-28.25v-4.032h28.25z" fill="#FFF"/>
            <g fill="#50CD89">
                <path d="M230.03 176.411v4.033h-46.41v-4.033h46.41z"/>
            </g>
        </g>
        <g>
            <path d="M121.913 234.875c1.453-4.514.99-8.82-1.389-12.92-3.593-6.173 0-13.136 4.192-14.117 4.192-1.005 9.15 2.393 10.347 7.154 1.198 4.762.192 8.16 7.378 11.724 4.79 2.377 7.082 9.802 6.875 22.276h-29.798c-1.054-4.77-.256-9.475 2.395-14.117z" fill="#00A3FF" fill-rule="nonzero"/>
            <path d="m119.61 250-.071-.383c-.072-.312-1.585-7.405 2.425-14.427.168-.575 1.922-6.854-1.368-12.51-1.802-3.09-2.042-6.71-.649-9.945 1.08-2.516 3.05-4.41 5.14-4.888 4.49-1.055 9.701 2.516 10.95 7.524.24.935.384 1.822.528 2.66.6 3.475 1.033 5.992 6.604 8.771 7.373 3.667 7.157 21.976 7.157 22.743l-.024.455H119.61zm29.731-.959c-.024-2.9-.408-18.308-6.628-21.4-6.004-2.995-6.532-5.99-7.108-9.466-.144-.838-.288-1.677-.529-2.588-1.128-4.53-5.811-7.764-9.798-6.83-1.8.432-3.506 2.085-4.49 4.338-1.273 2.947-1.057 6.255.6 9.082 3.65 6.279 1.537 13.06 1.44 13.325l-.047.095c-3.338 5.848-2.642 11.887-2.402 13.444h28.962z" fill="#FFF"/>
            <path d="m124.095 207.807.942-.146c.048.292 4.36 28.938 10.156 41.95l-.872.389c-5.843-13.134-10.179-41.902-10.226-42.193z" fill="#FFF" fill-rule="nonzero"/>
            <path d="M103.917 226.815a3.025 3.025 0 0 1-3.027-3.025 3.025 3.025 0 0 1 3.027-3.024 3.025 3.025 0 0 1 3.027 3.024 3.025 3.025 0 0 1-3.027 3.025z" fill="#FFF"/>
            <path d="m103.917 230.256 1.129-.417c.048.147 5.621 15.495 15.013 19.031l-.408 1.13c-9.92-3.733-15.494-19.105-15.734-19.744z" fill="#FFF" fill-rule="nonzero"/>
            <path d="m132.268 210.69.902.338-5.116 13.755-.902-.337 5.116-13.756zM135.243 217.845l.923.35-6.103 14.75-.924-.349 6.104-14.75z" fill="#FFF"/>
            <path d="M108.796 223.263c.905 4.682-.33 7.198-3.703 7.548-3.818.398-5.891-1.783-6.22-6.545 3.324-1.672 6.632-2.006 9.923-1.003z" fill="#50CD89" fill-rule="nonzero"/>
            <path d="M91.81 224.798a3.025 3.025 0 1 1 0-6.048 3.025 3.025 0 1 1 0 6.048z" fill="#FFF"/>
            <path d="M111.016 237.847c.39-3.163 2.442-4.162 3.248-3.948.805.19 2.222.594 1.611 3.568-.407 1.966-1.213 4.464-2.417 7.493-1.888-2.633-2.702-5.004-2.442-7.113z" fill="#FFF" fill-rule="nonzero"/>
            <path d="m120.906 237.903 14.555 11.245-.559.8-14.555-11.244.559-.8zM119.665 242.944l8.513 6.236-.546.775-8.513-6.236.546-.775z" fill="#FFF"/>
            <path d="M160.858 208.873c2.024-5.378 3.439-22.16-8.706-21.344-12.17.792-12.974 16.758-11.755 24.945 1.22 8.187-.61 13.757-2.633 18.367-2.025 4.586-8.511 7.971-7.512 18.15h41.141s2.024-16.157-10.535-30.539c-1.35-2.8-1.35-5.994 0-9.58z" fill="#00A3FF" fill-rule="nonzero"/>
            <path d="m130.305 250-.05-.433c-.73-7.352 2.414-11.34 4.948-14.537 1.048-1.321 2.023-2.57 2.607-3.868 2.048-4.662 3.802-10.068 2.608-18.117-.95-6.488-.536-15.955 3.875-21.314 2.096-2.546 4.898-3.964 8.334-4.204 3.436-.217 6.117.889 7.945 3.291 3.874 5.118 2.705 14.874 1.267 18.718-1.804 4.83-.268 8.675-.049 9.155a43.62 43.62 0 0 1 10.04 20.857c1.073 5.839.585 9.851.56 10.02l-.097.432h-41.988zm41.111-.961c.195-2.62.682-16.988-10.454-29.771l-.05-.048-.024-.048c-.097-.168-2.095-4.445-.024-9.948 1.39-3.676 2.51-13-1.121-17.805-1.608-2.138-3.997-3.1-7.091-2.907-3.144.216-5.727 1.49-7.628 3.844-4.192 5.118-4.606 14.273-3.656 20.568 1.243 8.29-.658 14.081-2.656 18.622-.633 1.418-1.633 2.715-2.73 4.085-2.51 3.148-5.336 6.704-4.8 13.408h40.234z" fill="#FFF"/>
            <path d="M87.976 231.723c-.957-1.591 1.619-3.003 4.992-.59.319.222.942.77 1.869 1.642-3.936.36-6.222.009-6.86-1.052zM89.16 236.381c-1.372-1.443 1.143-3.58 5.307-1.887.407.148 1.202.574 2.388 1.277-4.216 1.369-6.781 1.572-7.695.61z" fill="#FFF" fill-rule="nonzero"/>
            <path d="m90.801 228.419 1.041-.596c.071.119 7.147 12.686 18.128 21.223l-.733.954c-11.17-8.704-18.365-21.462-18.436-21.581zM148.795 202.592c.876-10.045 2.629-14.877 2.695-15.092l.81.359c-.022.048-1.774 4.95-2.629 14.9-.81 9.16-.986 24.588 2.673 46.065l-.876.168c-3.681-21.621-3.484-37.168-2.673-46.4z" fill="#FFF" fill-rule="nonzero"/>
            <path d="m143 196.586 7.321 8.405-.722.63-7.321-8.405.722-.63zM140.97 202.65l8.32 9.402-.733.64-8.32-9.404.733-.639z" fill="#FFF"/>
            <path d="M95.697 221.23c.813 4.069-.293 6.256-3.32 6.561-3.448.35-5.319-1.547-5.611-5.693 2.798-1.524 5.775-1.813 8.93-.868z" fill="#50CD89" fill-rule="nonzero"/>
            <g fill="#FFF">
                <path d="m162.66 220.816.758.593-12.333 15.497-.759-.593 12.333-15.497z"/>
            </g>
            <g fill="#FFF">
                <path d="m165.68 223.898.766.608-14.346 17.496-.765-.609 14.346-17.495z"/>
            </g>
        </g>
        <g>
            <path d="M268.207 219.915a2.934 2.934 0 0 1-4.075-.355 2.795 2.795 0 0 1 .362-3.992 2.934 2.934 0 0 1 4.075.354 2.795 2.795 0 0 1-.362 3.993z" fill="#FFF"/>
            <path d="M275.425 222.651c-.198-1.7-3.211-1.011-4.52 2.804-.116.383-.289 1.172-.52 2.368 3.492-2.314 5.172-4.038 5.04-5.172zM277.441 227.87c.172-1.666-2.9-1.576-5.014 1.846-.197.315-.54 1.028-1.032 2.139 3.916-1.546 5.931-2.874 6.046-3.985z" fill="#FFF" fill-rule="nonzero"/>
            <path d="M268.368 248.635c5.204-14.379 1.174-25.353 1.148-25.472l1.254-.38c.187.452 4.217 11.426-1.121 26.209l-1.281-.357z" fill="#FFF" fill-rule="nonzero"/>
            <path d="M263.323 220.84c2.167 3.924 4.521 5.025 7.062 3.303 2.867-1.97 2.998-4.775.391-8.417-3.193.546-5.677 2.251-7.453 5.115z" fill="#50CD89" fill-rule="nonzero"/>
            <path d="M247.369 238.321c1.128-3.412.768-6.671-1.08-9.778-2.746-4.66 0-9.922 3.213-10.67 3.213-.749 7.038 1.81 7.946 5.407.907 3.622.343 8.692 5.836 11.396 3.663 1.802 5.355 6.574 5.077 14.316h-22.832c-.817-3.605-.204-7.162 1.84-10.671z" fill="#00A3FF" fill-rule="nonzero"/>
            <path d="m245.594 248.992-.074-.386c-.049-.218-1.226-5.626 1.865-10.986.147-.507 1.422-5.143-1.03-9.344-1.4-2.367-1.57-5.143-.491-7.63.858-1.932 2.38-3.38 4.023-3.767 3.483-.82 7.556 1.932 8.537 5.77.196.774.319 1.619.466 2.488.49 3.235 1.006 6.567 5.127 8.595 5.716 2.825 5.373 14.27 5.348 14.753l-.049.507h-23.722zm22.765-.966c0-2.149-.27-11.155-4.832-13.4-4.563-2.246-5.152-6.012-5.643-9.32-.122-.845-.245-1.666-.441-2.39-.859-3.357-4.367-5.771-7.36-5.07-1.35.313-2.625 1.544-3.336 3.21-.957 2.198-.785 4.66.441 6.76 2.822 4.806 1.178 9.949 1.104 10.166l-.049.096c-2.453 4.25-2.036 8.644-1.84 9.948h21.956z" fill="#FFF"/>
            <path d="m249.199 217.885 1.003-.143c.025.215 3.487 21.302 8.077 30.868l-.903.382c-4.666-9.685-8.127-30.892-8.177-31.107z" fill="#FFF" fill-rule="nonzero"/>
            <path d="m256.31 219.944.96.318-4.084 9.704-.96-.318 4.084-9.704zM257.49 224.81l.849.338-4.197 10.68-.848-.337 4.196-10.68zM246.763 240.172l11.516 8.082-.59.768-11.517-8.081.59-.769z" fill="#FFF"/>
            <g fill="#FFF">
                <path d="m245.938 242.944 6.506 5.062-.556.84-6.507-5.063.557-.84z"/>
            </g>
        </g>
        <g>
            <path d="M28.25 236.895v6.049h-8.072v-6.049h8.071z" fill="#00A3FF"/>
            <path d="M20.178 243.952v-7.057h9.08v7.057h-9.08zm8.156-.938v-5.181h-7.232v5.18h7.232z" fill="#FFF"/>
            <path d="m29.378 241.935 11.69 6.018c.513.266.317 1.039-.245 1.039H20.159a.972.972 0 0 1-.954-1.233l1.54-5.824c3.13 2.353 6.008 2.353 8.633 0z" fill="#FFF" fill-rule="nonzero"/>
            <path d="M71.632 236.895v6.049h-8.071v-6.049h8.071z" fill="#00A3FF"/>
            <path d="M63.56 243.952v-7.057h9.08v7.057h-9.08zm8.157-.938v-5.181h-7.232v5.18h7.232z" fill="#FFF"/>
            <path d="m72.76 241.935 11.69 6.018c.514.266.318 1.039-.245 1.039H63.541a.972.972 0 0 1-.953-1.233l1.54-5.824c3.13 2.353 6.008 2.353 8.633 0z" fill="#FFF" fill-rule="nonzero"/>
            <path d="M44.392 166.088 31.207 238.91H17.151c4.565-45.189 6.911-68.094 7.04-68.715.218-1.218-.484-48.223-.435-47.196l13.305 9.029 7.33 34.059z" fill="#00A3FF" fill-rule="nonzero"/>
            <path d="m16.142 239.92.049-.526c.29-2.772 6.863-67.834 7.032-68.79.169-1.147-.266-32.209-.387-42.435l-.048-4.373v-.31c.024-.263.12-.502.459-.502h.483v.239l13.267 8.984.048.191 7.347 34.168-13.267 73.353H16.142zm14.161-.956 13.074-72.374-7.25-33.786-12.397-8.387c0 .837.025 2.175.049 3.776.29 20.572.531 41.718.386 42.602-.145.908-4.591 44.681-6.96 68.169h13.098z" fill="#FFF"/>
            <path d="M64.564 163.419a19.323 19.323 0 0 1 1.619 5.145l11.502 71.355H62.703l-18.487-71.26L25.223 125l24.14 6.636 15.2 31.783z" fill="#00A3FF" fill-rule="nonzero"/>
            <path d="m61.884 239.92-18.44-71.462-19.23-44.466 25.129 6.959 15.178 31.915a19.533 19.533 0 0 1 1.63 5.28l11.534 71.773H61.884zm14.674-.96-11.317-70.67a19.332 19.332 0 0 0-1.559-5.016l-14.986-31.507-22.78-6.311 18.463 42.69v.048l18.248 70.765h13.931z" fill="#FFF"/>
            <path d="m81.1 128.424 12.714-10.12 3.243-6.44 3.006-2.993c.302.158.302.697 0 1.616-.303.918-.764 1.686-1.384 2.304l-.691 1.616c1.08-.159 1.693.071 1.836.689.922.3 1.304.84 1.145 1.615.461 0 .771.31.93.927l-.692 2.305-2.552 2.067-1.383.237-18.58 17.82c-2.337 2.256-6.249.688-6.416-2.543l-.644-14.113 9.469-5.108v10.121z" fill="#00A3FF" fill-rule="nonzero"/>
            <path d="M74.972 140.82a4.183 4.183 0 0 1-2.672-3.754l-.668-14.423 10.45-5.584v9.932l11.856-9.433 3.22-6.416 3.293-3.28.31.143c.19.096.787.547.238 2.187a7.27 7.27 0 0 1-1.43 2.423l-.359.856c.597.047 1.217.261 1.503.808.525.237 1.24.784 1.288 1.615.358.167.716.5.883 1.165l.024.118-.763 2.567-2.744 2.233-1.36.238-18.489 17.702c-.858.808-1.908 1.212-2.982 1.212a4.245 4.245 0 0 1-1.598-.309zm-1.718-3.778a3.32 3.32 0 0 0 2.076 2.923 3.338 3.338 0 0 0 3.53-.69l18.704-17.916 1.408-.237 2.338-1.901.62-2.02c-.143-.404-.382-.451-.453-.451h-.573l.12-.57-.836-1.07-.238-.071-.072-.261c-.095-.38-.954-.38-1.312-.333l-.835.119 1.05-2.472.071-.07c.573-.571.994-1.276 1.265-2.116.071-.19.095-.332.12-.475l-2.291 2.281-3.245 6.463-13.598 10.812v-10.313l-8.493 4.539.644 13.83z" fill="#FFF"/>
            <g>
                <path d="m74.653 83.117 7.06-8.52 11.106 8.065c-5.154 11.696-10.276 15.78-15.366 12.254l-2.824 4.882-8.041-5.576 8.065-11.105z" fill="#00A3FF" fill-rule="nonzero"/>
                <path d="m65.579 93.725 8.297-11.368 7.279-8.768 11.664 8.46-.166.355c-.213.473-5.12 11.462-11.143 13.14-1.517.426-2.963.237-4.338-.567l-2.798 4.821-8.795-6.073zm8.463 4.703 2.798-4.822.427.284c1.256.874 2.56 1.11 3.959.709 5.026-1.418 9.483-10.399 10.384-12.266l-10.313-7.468-6.71 8.059-7.68 10.564 7.135 4.94z" fill="#FFF"/>
            </g>
            <g fill="#FFF" fill-rule="nonzero">
                <path d="M74.121 67.165c4.869-3.46 7.692-2.263 8.471 3.592 11.117 3.1 14.25 7.875 9.397 14.324-1.201.094-2.345 0-3.433-.281l-2.142 4.133-1.412-.047c.503-2.615.057-3.632-1.339-3.053-2.093.869-2.41 2.536-1.947 3.546-3.1 2.833-6.556 2.05-10.37-2.349-.024-.023-2.58-4.39 2.069-9.58-4.398-3.397-4.163-6.826.706-10.285z"/>
            </g>
            <g fill="#50CD89" fill-rule="nonzero">
                <path d="M52.463 91.734c-14.36 4.443-22.47 7.831-24.33 10.165-1.514 1.908 1.395 7.727 3.68 11.06l-9.617 9.875 29.113 16.13c1.555-3.896 7.917-11.928 19.088-24.098v12.87l12.333-6.085v-14.874a6.788 6.788 0 0 0-2.981-5.602l-14.256-9.441h-13.03z"/>
            </g>
            <g fill="#FFF" fill-rule="nonzero">
                <path d="M29.258 115.198c11.06-9.059 23.524-18.33 23.643-18.424l.57.753c-.118.094-12.558 9.365-23.594 18.4l-.619-.729z"/>
            </g>
        </g>
        <g>
            <path d="M302.67 234.879v9.073h-9.08v-9.073h9.08z" fill="#00A3FF"/>
            <path d="M293.59 244.96v-10.081h10.09v10.08h-10.09zm9.13-.996v-8.09h-8.17v8.09h8.17z" fill="#FFF"/>
            <path d="m312.875 229.839 7.956-5.123-4.151-6.974-7.956 5.123 4.15 6.974z" fill="#00A3FF" fill-rule="nonzero"/>
            <path d="m307.715 222.217 8.576-5.483 4.54 7.622-8.576 5.483-4.54-7.622zm4.852 6.245 6.943-4.45-3.531-5.926-6.943 4.45 3.531 5.926z" fill="#FFF"/>
            <path d="m261.46 92.38-12.488-19.205-4.484-3.285-5.183-2.35c-.707 1.487-.12 2.694 1.76 3.62 1.88.928 3.021 1.671 3.423 2.23-1.173.08-1.8.784-1.88 2.11-.627.16-.98.824-1.06 1.99-.949.624-1.182 1.328-.7 2.11.707 1.647 1.768 2.702 3.182 3.166 1.414.463 2.515.695 3.303.695l10.8 18.39c1.012 1.751 3.206 2.446 5.062 1.655l9.209-3.98-4.34-9.95-6.605 2.805z" fill="#00A3FF" fill-rule="nonzero"/>
            <path d="m258.124 101.632-10.648-18.087c-.481-.048-1.563-.191-3.15-.717-2.187-.717-3.317-3.082-3.437-3.393-.649-1.1.072-2.079.673-2.58.144-1.267.697-1.817 1.058-2.055.144-1.076.77-1.697 1.37-2.008-.48-.358-1.298-.884-2.668-1.577-3.197-1.6-1.995-4.229-1.971-4.253l.192-.43 5.673 2.58 4.543 3.322 12.284 18.876 6.634-2.82 4.735 10.8-9.639 4.158a4.26 4.26 0 0 1-1.779.383c-1.538 0-3.052-.813-3.87-2.199zM241.78 70.38c2.836 1.41 3.51 2.27 3.581 2.366l.505.693-.865.047c-.145 0-1.346.144-1.443 1.65l-.024.357-.336.096c-.4.143-.633.661-.697 1.553l-.024.24-.193.119c-.096.071-1.01.716-.552 1.457l.024.048c0 .024 1.01 2.27 2.884 2.891 1.995.67 3.125.67 3.15.67h.263l.145.238 10.769 18.327c.89 1.529 2.812 2.15 4.447 1.433l8.75-3.775-3.967-9.056-6.514 2.772-12.62-19.402-4.35-3.178-4.616-2.079c-.096.622.024 1.697 1.683 2.533z" fill="#FFF"/>
            <path d="m306.543 165.689-.945 73.222h-17.052l1.187-73.007 4.02-37.88 17.998 1.628-5.208 36.037z" fill="#FFF" fill-rule="nonzero"/>
            <path d="M275.57 162.543a14.751 14.751 0 0 0 1.334 8.442l27.8 56.838 12.091-9.405-23.016-51.233 12.663-38.654-25.92-1.515-4.951 35.527z" fill="#F0EFF5" fill-rule="nonzero"/>
            <path d="m294.029 241.935-12.23 6.026c-.546.27-.333 1.03.26 1.03h21.593c.688 0 1.185-.604.996-1.231l-1.588-5.825c-3.271 2.345-6.282 2.345-9.031 0z" fill="#FFF" fill-rule="nonzero"/>
            <path d="M293.778 75.152c-7.216 1.49-9.223-3.026-6.021-13.544 2.453-8.059 7.255-8.949 14.406-2.67 1.689 1.132 2.04 6.125 1.052 14.976l.31 13.788-10.584-.777.837-11.773z" fill="#00A3FF" fill-rule="nonzero"/>
            <path d="m292.926 87.86.838-11.654c-1.173.121-3.807.097-5.58-1.894-2.058-2.307-2.202-6.483-.406-12.359 1.053-3.471 2.801-5.584 5.172-6.264 4.525-1.31 9.65 3.035 10.033 3.35.407.317 2.658 2.647 1.245 15.37l.311 14.3-11.613-.85zm10.631-.194-.31-13.306v-.024c1.388-12.407-.815-14.495-.839-14.52l-.048-.023c-.048-.049-5.052-4.37-9.17-3.181-2.036.607-3.569 2.476-4.526 5.609-1.653 5.462-1.605 9.396.191 11.411 1.916 2.16 5.268 1.505 5.292 1.505l.623-.121-.048.631-.79 11.315 9.625.704z" fill="#FFF"/>
            <g>
                <path d="m270.689 101.786 9.412-3.618.57 6.206-2.33 26.456c4.596 4.776 9.508 6.366 14.736 4.768 8.034-2.444 14.34-2.7 18.92-.766l.118-17.949c5.656-1.486 8.556-2.692 8.699-3.618.214-1.318-1.426-18.332-13.167-29.69-1.284-1.247-2.971-2.013-4.73-2.23l-14.332-1.653a8.605 8.605 0 0 0-4.325.623L265.34 88.44l5.348 13.347z" fill="#00A3FF" fill-rule="nonzero"/>
                <path d="m277.569 131.678-.142-.168 2.324-26.64-.522-5.54-9.227 3.573-5.67-14.22 19.333-8.32c1.424-.623 3.013-.839 4.555-.671l14.304 1.654c1.897.216 3.677 1.056 5.005 2.35 11.956 11.606 13.497 28.87 13.284 30.141-.095.576-.735 1.343-4.744 2.71-1.613.552-3.25 1.007-3.938 1.199l-.119 18.296-.664-.288c-.071-.024-6.88-2.806-18.574.767a10.587 10.587 0 0 1-3.463.576c-6.452 0-11.481-5.156-11.742-5.42zm14.944 3.98c10.082-3.093 16.558-1.607 18.55-.983l.12-17.648.355-.096c3.82-1.007 8.089-2.566 8.35-3.261.071-.48-.19-4.916-2.088-10.863-1.636-5.155-4.839-12.517-10.935-18.415-1.186-1.151-2.776-1.895-4.46-2.086l-14.304-1.655a7.95 7.95 0 0 0-4.08.6l-18.479 7.936 4.982 12.47 9.536-3.693.64 6.882-2.277 26.304c1.044 1.007 7.259 6.594 14.09 4.508z" fill="#FFF"/>
            </g>
            <g fill="#F0EFF5" fill-rule="nonzero">
                <path d="m310.936 227.735-7.17 12.284c-.316.54.292 1.152.827.809l18.763-11.843c.584-.367.68-1.2.17-1.691l-4.74-4.512c-1.49 3.972-4.107 5.623-7.85 4.953z"/>
            </g>
            <g fill="#FFF" fill-rule="nonzero">
                <path d="M311.892 117.944c0-14.003-3.125-25.822-3.168-25.943l.825-.267c.043.121 3.21 12.085 3.21 26.21h-.867z"/>
            </g>
            <g fill="#FFF" fill-rule="nonzero">
                <path d="M294.116 66.547h1.617c.76-2.786 2.077-3.261 3.947-1.425.5.483.928 1.884.476 3.769.65 1.562 1.84 2.456 3.567 2.682.682-.226 1.118-.411 1.308-.556 2.735-2.295 5.85-11.138 1.617-14.641-5.422-6.604-11.216-8.005-17.384-4.204-2.33 1.474-3.52 6.572 4.614 10.123l.238 4.252z"/>
            </g>
        </g>
        <g>
            <path fill="#50CD89" d="M0 248.992h340"/>
            <path d="M340 248.992V250H0v-1.008h340z" fill="#000"/>
        </g>
    </g>
</svg>
