<?xml version="1.0" encoding="UTF-8"?>
<svg width="16px" height="16px" viewBox="0 0 16 16" version="1.1" xmlns="http://www.w3.org/2000/svg" xmlns:xlink="http://www.w3.org/1999/xlink">
    <title>Icons / 16x16 / Upload@1x</title>
    <g id="Icons-/-16x16-/-Upload" stroke="none" stroke-width="1" fill="none" fill-rule="evenodd">
        <path d="M8,0.25 C12.2802068,0.25 15.75,3.71979319 15.75,8 C15.75,12.2802068 12.2802068,15.75 8,15.75 C3.71979319,15.75 0.25,12.2802068 0.25,8 C0.25,3.71979319 3.71979319,0.25 8,0.25 Z M8,1.75 C4.54822031,1.75 1.75,4.54822031 1.75,8 C1.75,11.4517797 4.54822031,14.25 8,14.25 C11.4517797,14.25 14.25,11.4517797 14.25,8 C14.25,4.54822031 11.4517797,1.75 8,1.75 Z M8.53033009,4.13857745 L11.6546986,7.26294601 C11.9475919,7.55583923 11.9475919,8.03071297 11.6546986,8.32360619 L11.5705802,8.39622434 C11.2769687,8.6140788 10.860305,8.58987275 10.5940385,8.32360619 L8.75,6.48 L8.75,11.25 C8.75,11.6296958 8.46784612,11.943491 8.10177056,11.9931534 L8,12 C7.58578644,12 7.25,11.6642136 7.25,11.25 L7.25,6.478 L5.40596152,8.32360619 C5.1130683,8.6164994 4.63819457,8.6164994 4.34530135,8.32360619 C4.05240813,8.03071297 4.05240813,7.55583923 4.34530135,7.26294601 L7.46966991,4.13857745 C7.76256313,3.84568423 8.23743687,3.84568423 8.53033009,4.13857745 Z" id="Shape" fill="#6D6A94" fill-rule="nonzero"></path>
    </g>
</svg>