<?xml version="1.0" encoding="UTF-8"?>
<svg width="402px" height="357px" viewBox="0 0 402 357" version="1.1" xmlns="http://www.w3.org/2000/svg" xmlns:xlink="http://www.w3.org/1999/xlink">
    <title>westvirginia@1x</title>
    <g id="Desktop" stroke="none" stroke-width="1" fill="none" fill-rule="evenodd">
        <g id="Landing-Page-(West-Virginia)--v-Desktop" transform="translate(-259, -427)" fill="#4B7BE5" stroke="#FFFFFF">
            <g id="Group-3" transform="translate(260, 72)">
                <g id="Group-83" transform="translate(0, 353)">
                    <g id="westvirginia" transform="translate(0, 3)">
                        <polygon id="c54083" opacity="0.3" points="196.470721 196.932662 205.477087 196.785976 208.951065 175.90392 224.286764 173.271408 230.095834 158.513916 233.257872 166.662337 255.684565 173.158505 267.934481 174.256302 268.567982 174.981856 254.814616 181.79051 255.576274 193.343188 246.073127 205.428374 236.92531 203.811332 233.908016 197.554129 226.771718 217.146177 213.181776 226.590854 206.030157 225.012157 195.458047 233.807083 200.600191 219.633849 192.911107 201.978387"></polygon>
                        <polygon id="c54105" opacity="0.3" points="87.809661 165.91207 100.7302 154.831422 111.093834 149.866198 108.537942 153.239403 114.672185 165.585829 121.749785 166.159241 112.629616 175.771731 112.121486 177.990771 106.767623 179.879726 98.414024 174.926465 93.9418908 177.291151 91.7501441 168.154446"></polygon>
                        <polygon id="c54031" opacity="0.3" points="286.107552 189.896043 293.152366 178.044332 289.627831 166.539792 298.396786 145.795194 327.293821 157.934918 332.317093 156.541501 336.664698 160.939055 334.751769 164.682882 332.41519 169.249841 327.682919 172.03872 322.779375 177.976966 315.410655 181.372155 311.534247 187.917051 307.676161 195.002721 297.08328 187.068145 295.153799 191.382295 292.393623 195.257783"></polygon>
                        <polygon id="c54095" opacity="0.3" points="129.627893 116.568174 132.781766 113.674856 140.420669 106.651711 148.233928 107.378756 157.100433 118.877412 166.335193 123.27294 158.683599 125.262821 144.339484 139.168338 143.20934 130.448994 134.829696 133.136721 133.255027 120.9823 125.885118 121.896192"></polygon>
                        <polygon id="c54093" opacity="0.3" points="229.050026 156.932426 231.379736 146.610377 241.277941 142.395289 257.431405 150.35069 272.031067 148.84993 268.092296 161.592825 272.733108 162.964186 267.934481 174.256302 255.684565 173.158505 233.257872 166.662337 230.095834 158.513916"></polygon>
                        <polygon id="c54015" fill-opacity="0.6" points="110.765494 223.939485 118.201127 218.310352 123.439444 214.429515 127.360479 209.720498 131.698403 203.99684 141.165842 214.949921 143.688667 220.883935 148.851529 223.919326 141.079869 230.421441 114.628899 245.643134"></polygon>
                        <polygon id="c54077" opacity="0.3" points="224.226196 120.484878 233.163041 105.796238 235.240773 95.7341548 258.266729 95.7336043 257.813139 115.392808 257.655207 134.843804 257.455641 149.2032 257.431405 150.35069 241.277941 142.395289 231.379736 146.610377 226.38045 139.949111 224.48113 139.415154 224.611601 125.298491"></polygon>
                        <polygon id="c54051" opacity="0.3" points="146.600286 90.4877611 150.261202 86.6456491 150.387231 81.8649154 150.458695 81.5676878 152.166597 74.457143 155.324331 71.23316 157.30021 69.1279065 157.542452 62.6164198 175.01306 64.6146012 174.945931 70.2418077 174.647701 95.2365461 149.289615 95.127654"></polygon>
                        <polygon id="c54065" opacity="0.3" points="339.957492 115.501802 341.742705 111.58428 346.105162 105.435483 350.12572 104.73229 351.708623 104.45479 358.730117 101.464632 370.172479 100.01754 374.642336 105.189443 365.746082 108.118156 358.798708 129.307387 349.194117 121.615071 340.233169 117.064761 339.368659 115.483955"></polygon>
                        <polygon id="c54049" opacity="0.3" points="176.163711 111.663364 181.496269 103.834855 184.467104 104.066985 188.323548 106.770371 203.899772 107.029053 221.061655 123.530179 209.064856 130.338529 200.210176 129.551645 193.417509 125.108711 176.383779 121.395456"></polygon>
                        <polygon id="c54033" opacity="0.3" points="173.217112 132.724264 172.275623 125.550855 176.383779 121.395456 193.417509 125.108711 200.210176 129.551645 199.932413 142.26481 202.583623 145.233638 197.816204 152.598383 197.566349 158.636033 191.64958 159.513223 169.268771 152.651137 167.787842 152.699869 173.267619 149.791981 167.335067 139.825307"></polygon>
                        <polygon id="c54021" opacity="0.3" points="134.360502 185.543606 132.145071 168.526674 134.656438 168.568994 150.172512 158.450117 157.000499 159.971106 157.80918 169.039184 166.669907 179.976848 161.448448 181.102333 135.588107 198.865281 130.252633 192.328497"></polygon>
                        <polygon id="c54005" opacity="0.3" points="56.5683026 269.048741 55.1288666 259.29724 61.2884848 257.559933 65.1990699 250.147378 80.758849 249.37314 90.9936009 260.865935 95.5677141 273.952393 85.9821269 279.926571 90.3777067 294.201176 85.1765498 296.980313 82.6826575 294.284534 73.2917796 291.898378 68.3954039 278.597036 52.5360344 272.97385"></polygon>
                        <polygon id="c54067" fill-opacity="0.6" points="114.628899 245.643134 141.079869 230.421441 148.851529 223.919326 143.688667 220.883935 151.601228 215.747943 162.517572 219.120158 160.242468 221.488503 164.354543 237.019626 179.71583 246.233606 156.9005 265.49981 142.965898 262.772897 135.998381 251.01048 127.709959 251.449844 114.611958 245.663781"></polygon>
                        <polygon id="c54079" opacity="0.3" points="47.4501507 208.291076 56.4500279 203.415867 71.4036442 201.370424 74.0719593 202.010788 77.4903267 207.171921 72.9843104 210.737449 74.9067666 223.582033 60.255306 230.390712 58.8281607 237.930375 51.9808124 243.860962 47.8148799 241.308454 48.1825919 232.565152 47.8245705 222.158471"></polygon>
                        <polygon id="c54063" opacity="0.3" points="143.932469 333.638153 160.311903 304.052318 160.42381 301.619478 177.917095 306.792381 182.581381 303.407584 191.178041 306.684221 190.992237 306.932243 196.551908 313.182138 196.627016 313.266471 191.713827 317.140275 190.908157 322.218715 181.877667 329.837728 176.459952 333.537553 176.069753 333.234128 169.889592 328.42235 159.862268 334.579678 151.091562 338.8072 145.670016 333.32914"></polygon>
                        <polygon id="c54001" opacity="0.3" points="197.816204 152.598383 202.583623 145.233638 214.132328 144.727862 224.48113 139.415154 226.38045 139.949111 231.379736 146.610377 229.050026 156.932426 230.095834 158.513916 224.286764 173.271408 208.951065 175.90392 211.476328 166.755138 205.518884 166.480726 197.566349 158.636033"></polygon>
                        <polygon id="c54009" opacity="0.3" points="162.066982 46.7429473 165.30429 40.1137532 168.39575 34.6911557 166.51455 26.1951571 166.863429 25.1920484 171.12396 24.7682406 175.471772 24.830693 175.403238 30.8043885 175.18469 49.7429334 163.662496 47.6017714"></polygon>
                        <polygon id="c54019" opacity="0.3" points="101.757921 275.974231 106.448003 253.9156 114.611958 245.663781 127.709959 251.449844 135.998381 251.01048 142.965898 262.772897 152.009373 275.177085 148.584569 278.879073 153.570971 287.676267 148.837589 287.212558 137.329171 292.20664 126.87396 286.139052 108.637564 284.401095 104.527966 275.242519"></polygon>
                        <polygon id="c54029" opacity="0.3" points="167.171587 1.85651507 170.61222 2.35740775 175.756633 0 175.564345 16.7615137 175.471772 24.830693 171.12396 24.7682406 166.863429 25.1920484 168.713434 19.8679294 167.436419 12.1857674 163.892704 5.70255875"></polygon>
                        <polygon id="c54101" opacity="0.3" points="162.517572 219.120158 174.250354 206.911734 178.533525 197.240686 183.748488 198.498297 189.7934 203.047975 192.911107 201.978387 200.600191 219.633849 195.458047 233.807083 186.698231 238.205474 185.935209 250.602866 179.71583 246.233606 164.354543 237.019626 160.242468 221.488503"></polygon>
                        <polygon id="c54037" opacity="0.3" points="374.593665 140.739488 378.335568 136.331922 379.964023 131.416782 382.846904 129.912997 389.468638 123.00606 392.276703 117.328748 393.350942 119.906051 398.183828 127.498182 397.805399 132.538003 400 135.807396 395.461439 145.448035 393.072225 151.799017 391.604033 155.588567 391.59214 155.579086 374.827972 142.170454 374.799956 142.148 374.799811 142.147884"></polygon>
                        <polygon id="c54087" fill-opacity="0.6" points="91.9019332 178.933174 93.9418908 177.291151 98.414024 174.926465 106.767623 179.879726 112.121486 177.990771 116.653662 185.477374 121.322329 206.28371 127.360479 209.720498 123.439444 214.429515 118.201127 218.310352 95.6072672 215.907832 91.6439404 208.924622 89.7921441 202.690359"></polygon>
                        <polygon id="c54081" opacity="0.3" points="85.9821269 279.926571 95.5677141 273.952393 97.0120625 275.987707 101.757921 275.974231 104.527966 275.242519 108.637564 284.401095 126.87396 286.139052 137.329171 292.20664 142.666146 306.154562 136.99697 302.966286 126.814212 310.64858 124.584391 315.922624 115.943304 317.127302 113.891547 323.850791 106.360457 315.602239 94.9933338 295.030124 90.3777067 294.201176"></polygon>
                        <polygon id="c54053" opacity="0.3" points="38.4428796 207.976632 37.7544279 202.649636 36.7693511 192.153553 36.2717042 187.745888 40.2152486 185.583315 42.6382126 177.248922 45.7159908 171.59607 46.5555295 170.05244 50.5275336 165.814944 53.3552987 164.679473 58.5346145 168.589618 61.8705717 175.292953 60.7371036 180.831614 70.0429664 195.909451 71.4036442 201.370424 56.4500279 203.415867 47.4501507 208.291076 47.8245705 222.158471 34.8226728 209.612709"></polygon>
                        <polygon id="c54107" opacity="0.3" points="74.3502514 149.131082 76.9454287 146.466536 77.7612846 145.628281 80.5874474 140.035821 85.7907299 139.995624 89.7182974 140.000153 90.3001485 134.344715 94.9506228 130.04058 98.8230975 126.384881 102.289114 127.981128 103.718687 132.466635 105.598745 132.818028 106.082274 135.755695 115.990353 141.370992 114.38614 141.464034 111.093834 149.866198 100.7302 154.831422 87.809661 165.91207 76.6840394 159.618678 74.3414482 157.504239 74.9396403 157.25476 74.3776918 149.509843"></polygon>
                        <polygon id="c54045" opacity="0.3" points="35.2103153 273.692752 51.9457009 268.971173 56.5683026 269.048741 52.5360344 272.97385 68.3954039 278.597036 73.2917796 291.898378 82.6826575 294.284534 69.8572727 297.337678 74.6974018 303.159551 66.2385346 307.195498 55.7900372 304.686938 50.4546377 308.84127 43.2710371 302.306716 41.2761223 286.412095"></polygon>
                        <polygon id="c54073" opacity="0.3" points="105.598745 132.818028 107.432267 133.160223 115.460654 128.729754 120.627162 124.599031 125.285166 122.749353 125.885118 121.896192 133.255027 120.9823 134.829696 133.136721 117.533417 137.284643 115.990353 141.370992 106.082274 135.755695"></polygon>
                        <polygon id="c54013" fill-opacity="0.6" points="112.629616 175.771731 121.749785 166.159241 123.881799 164.692742 132.145071 168.526674 134.360502 185.543606 130.252633 192.328497 135.588107 198.865281 131.698403 203.99684 127.360479 209.720498 121.322329 206.28371 116.653662 185.477374 112.121486 177.990771"></polygon>
                        <polygon id="c54109" opacity="0.3" points="61.5591052 318.665363 66.7724661 310.221073 66.2385346 307.195498 74.6974018 303.159551 69.8572727 297.337678 82.6826575 294.284534 85.1765498 296.980313 90.3777067 294.201176 94.9933338 295.030124 106.360457 315.602239 113.891547 323.850791 106.730378 328.999558 107.956074 333.707637 106.341342 332.624412 93.6682424 326.106308 78.1566908 321.740676 64.5877994 323.137796"></polygon>
                        <polygon id="c54069" opacity="0.3" points="157.721894 57.7881237 160.279505 50.3974303 160.559669 49.8249093 162.066982 46.7429473 163.662496 47.6017714 175.18469 49.7429334 175.01306 64.6146012 157.542452 62.6164198"></polygon>
                        <polygon id="c54023" opacity="0.3" points="257.455641 149.2032 262.500078 146.895357 268.198958 141.712111 273.842956 138.420586 275.559236 136.692791 285.883635 138.084644 298.396786 145.795194 289.627831 166.539792 293.152366 178.044332 286.107552 189.896043 268.567982 174.981856 267.934481 174.256302 272.733108 162.964186 268.092296 161.592825 272.031067 148.84993 257.431405 150.35069"></polygon>
                        <polygon id="c54041" opacity="0.3" points="157.000499 159.971106 159.201058 160.56151 167.787842 152.699869 169.268771 152.651137 191.64958 159.513223 190.114508 174.572475 184.393525 183.220931 182.450973 194.254636 183.748488 198.498297 178.533525 197.240686 177.27502 187.445121 168.423254 184.700191 166.669907 179.976848 157.80918 169.039184"></polygon>
                        <polygon id="c54007" opacity="0.3" points="135.588107 198.865281 161.448448 181.102333 166.669907 179.976848 168.423254 184.700191 177.27502 187.445121 178.533525 197.240686 174.250354 206.911734 162.517572 219.120158 151.601228 215.747943 143.688667 220.883935 141.165842 214.949921 131.698403 203.99684"></polygon>
                        <polygon id="c54043" opacity="0.3" points="35.2968578 266.265522 28.1335846 256.115922 29.9264734 247.10823 33.7890584 238.791811 48.1825919 232.565152 47.8148799 241.308454 51.9808124 243.860962 58.8281607 237.930375 67.1625242 239.623156 65.1990699 250.147378 61.2884848 257.559933 55.1288666 259.29724 56.5683026 269.048741 51.9457009 268.971173 35.2103153 273.692752 25.5985358 276.632878"></polygon>
                        <polygon id="c54017" opacity="0.3" points="144.339484 139.168338 158.683599 125.262821 166.335193 123.27294 169.197488 123.20004 172.275623 125.550855 173.217112 132.724264 167.335067 139.825307 173.267619 149.791981 167.787842 152.699869 159.201058 160.56151 157.000499 159.971106 150.172512 158.450117 142.2798 141.352692"></polygon>
                        <polygon id="c54057" opacity="0.3" points="283.264814 128.920274 289.287144 121.471683 291.20905 121.420992 293.770128 121.352648 300.138789 124.75071 301.251444 120.659284 308.567334 112.884109 314.917425 104.08019 317.519205 107.036827 320.135067 112.603121 324.331314 113.756032 315.375806 123.918647 308.743631 136.049319 298.396786 145.795194 285.883635 138.084644 275.559236 136.692791"></polygon>
                        <polygon id="c54085" fill-opacity="0.6" points="111.093834 149.866198 114.38614 141.464034 115.990353 141.370992 117.533417 137.284643 134.829696 133.136721 143.20934 130.448994 144.339484 139.168338 142.2798 141.352692 150.172512 158.450117 134.656438 168.568994 132.145071 168.526674 123.881799 164.692742 121.749785 166.159241 114.672185 165.585829 108.537942 153.239403"></polygon>
                        <polygon id="c54047" opacity="0.3" points="50.6256596 328.196722 55.1434046 322.332349 58.5968053 320.917853 61.5591052 318.665363 64.5877994 323.137796 78.1566908 321.740676 93.6682424 326.106308 106.341342 332.624412 101.933485 341.551923 96.3285382 348.358851 91.6652247 350.377502 87.4902226 353.108562 85.1614708 354.795569 75.3490465 355 70.4222747 351.032156 70.0192536 350.707249 67.5513642 347.287875 61.3378932 346.049697 57.6457472 341.096776 54.6886665 335.070182 54.4976699 331.87563"></polygon>
                        <polygon id="c54091" opacity="0.3" points="200.210176 129.551645 209.064856 130.338529 221.061655 123.530179 224.611601 125.298491 224.48113 139.415154 214.132328 144.727862 202.583623 145.233638 199.932413 142.26481"></polygon>
                        <polygon id="c54103" opacity="0.3" points="146.790411 100.955766 149.739939 95.9038979 149.289615 95.127654 174.647701 95.2365461 182.502722 95.3435705 183.620229 95.7117346 184.467104 104.066985 181.496269 103.834855 176.163711 111.663364 176.383779 121.395456 172.275623 125.550855 169.197488 123.20004 166.335193 123.27294 157.100433 118.877412 148.233928 107.378756 140.420669 106.651711"></polygon>
                        <polygon id="c54035" fill-opacity="0.6" points="61.8705717 175.292953 67.6808563 173.753769 71.9572118 170.245902 70.6915708 164.023724 69.6299082 159.466887 74.3414482 157.504239 76.6840394 159.618678 87.809661 165.91207 91.7501441 168.154446 93.9418908 177.291151 91.9019332 178.933174 89.7921441 202.690359 91.6439404 208.924622 82.4874657 214.739892 77.4903267 207.171921 74.0719593 202.010788 71.4036442 201.370424 70.0429664 195.909451 60.7371036 180.831614"></polygon>
                        <polygon id="c54027" opacity="0.3" points="308.743631 136.049319 315.375806 123.918647 324.331314 113.756032 329.522475 115.178403 339.368659 115.483955 340.233169 117.064761 349.194117 121.615071 350.071687 127.504552 349.876703 133.286786 345.029642 141.313597 344.823091 145.338391 342.970817 150.632894 344.199239 153.607951 336.664698 160.939055 332.317093 156.541501 327.293821 157.934918 298.396786 145.795194"></polygon>
                        <polygon id="c54039" fill-opacity="0.6" points="60.255306 230.390712 74.9067666 223.582033 72.9843104 210.737449 77.4903267 207.171921 82.4874657 214.739892 91.6439404 208.924622 95.6072672 215.907832 118.201127 218.310352 110.765494 223.939485 114.628899 245.643134 114.611958 245.663781 106.448003 253.9156 101.757921 275.974231 97.0120625 275.987707 95.5677141 273.952393 90.9936009 260.865935 80.758849 249.37314 65.1990699 250.147378 67.1625242 239.623156 58.8281607 237.930375"></polygon>
                        <polygon id="c54075" opacity="0.3" points="185.935209 250.602866 186.698231 238.205474 195.458047 233.807083 206.030157 225.012157 213.181776 226.590854 226.771718 217.146177 233.908016 197.554129 236.92531 203.811332 246.073127 205.428374 246.68594 209.934046 244.244855 212.971769 242.594693 221.338593 240.792408 226.228146 240.900699 229.581752 237.210566 237.328401 231.512724 241.754854 232.853497 245.976334 232.075978 246.599754 227.697262 250.107153 222.279457 255.164813 220.375333 262.709821 218.459878 267.684508 201.425954 270.431838 193.591854 269.278751 185.557913 262.17604"></polygon>
                        <polygon id="c54089" opacity="0.3" points="126.814212 310.64858 136.99697 302.966286 142.666146 306.154562 137.329171 292.20664 148.837589 287.212558 160.06349 298.367943 160.42381 301.619478 160.311903 304.052318 143.932469 333.638153 143.866865 333.649811 143.164336 332.228648 124.584391 315.922624"></polygon>
                        <polygon id="c54055" opacity="0.3" points="106.341342 332.624412 107.956074 333.707637 106.730378 328.999558 113.891547 323.850791 115.943304 317.127302 124.584391 315.922624 143.164336 332.228648 143.866865 333.649811 143.285236 333.753149 141.728098 337.467403 145.611862 342.626331 138.615505 345.495744 133.496028 345.964653 132.235072 346.079599 122.521142 348.097679 113.095078 352.453582 101.933485 341.551923"></polygon>
                        <polygon id="c54025" opacity="0.3" points="142.965898 262.772897 156.9005 265.49981 179.71583 246.233606 185.935209 250.602866 185.557913 262.17604 193.591854 269.278751 201.425954 270.431838 218.459878 267.684508 217.689931 269.682173 212.303358 277.584185 210.683478 279.239774 204.377717 285.674217 198.754794 292.068855 197.154148 296.646964 193.840773 303.127558 191.178041 306.684221 182.581381 303.407584 177.917095 306.792381 160.42381 301.619478 160.06349 298.367943 148.837589 287.212558 153.570971 287.676267 148.584569 278.879073 152.009373 275.177085"></polygon>
                        <polygon id="c54099" opacity="0.3" points="2.47661833 249.140624 3.77810815 245.081923 4.04410513 244.251892 5.09455439 237.309086 3.06437206 234.213936 3.3578066 230.486842 3.69131144 226.248215 6.32476856 228.153037 10.5829028 227.226462 23.7024983 239.019725 28.4711371 237.509908 29.9264734 247.10823 28.1335846 256.115922 35.2968578 266.265522 25.5985358 276.632878 17.3240527 284.757098 17.6919903 286.829831 16.1258562 283.733443 10.6128356 278.919422 11.3562657 276.70171 12.6741228 272.767324 6.04130727 263.591086 0 255.928261"></polygon>
                        <polygon id="c54059" opacity="0.3" points="17.3240527 284.757098 25.5985358 276.632878 35.2103153 273.692752 41.2761223 286.412095 43.2710371 302.306716 50.4546377 308.84127 55.7900372 304.686938 66.2385346 307.195498 66.7724661 310.221073 61.5591052 318.665363 58.5968053 320.917853 55.1434046 322.332349 52.2376817 319.569352 44.3093745 318.649497 38.0863928 313.20792 31.2830232 306.987589 25.6108894 303.376836 23.7796588 297.108636 23.2820379 295.403238 19.900594 291.191298 17.6919903 286.829831"></polygon>
                        <polygon id="c54061" opacity="0.3" points="182.502722 95.3435705 210.205587 95.5576202 223.031284 95.6589233 235.240773 95.7341548 233.163041 105.796238 224.226196 120.484878 224.611601 125.298491 221.061655 123.530179 203.899772 107.029053 188.323548 106.770371 184.467104 104.066985 183.620229 95.7117346"></polygon>
                        <polygon id="c54071" opacity="0.3" points="246.68594 209.934046 246.073127 205.428374 255.576274 193.343188 254.814616 181.79051 268.567982 174.981856 286.107552 189.896043 292.393623 195.257783 289.923165 202.670298 289.538755 205.848151 284.560292 211.370364 280.74929 219.55293 278.564735 224.550645 278.305523 225.14316 272.919515 231.136672 271.812931 230.929747 266.990595 230.025914 258.302785 226.920866 252.92355 216.956405 244.244855 212.971769"></polygon>
                        <polygon id="c54097" opacity="0.3" points="182.450973 194.254636 184.393525 183.220931 190.114508 174.572475 191.64958 159.513223 197.566349 158.636033 205.518884 166.480726 211.476328 166.755138 208.951065 175.90392 205.477087 196.785976 196.470721 196.932662 192.911107 201.978387 189.7934 203.047975 183.748488 198.498297"></polygon>
                        <polygon id="c54003" opacity="0.3" points="358.798708 129.307387 365.746082 108.118156 374.642336 105.189443 376.353632 107.166836 382.828084 106.401781 390.591722 108.374784 391.196865 114.736065 392.276703 117.328748 389.468638 123.00606 382.846904 129.912997 379.964023 131.416782 378.335568 136.331922 374.593665 140.739488 374.799811 142.147884 362.203828 132.027563"></polygon>
                        <polygon id="c54011" opacity="0.3" points="15.6791662 226.113936 21.03722 225.477539 25.8014004 224.124459 27.5681462 219.294507 28.6680898 212.684814 29.638772 210.68175 30.323786 209.267486 34.8226728 209.612709 47.8245705 222.158471 48.1825919 232.565152 33.7890584 238.791811 29.9264734 247.10823 28.4711371 237.509908 23.7024983 239.019725 10.5829028 227.226462"></polygon>
                    </g>
                </g>
            </g>
        </g>
    </g>
</svg>