<?xml version="1.0" encoding="utf-8" ?>
<svg xmlns="http://www.w3.org/2000/svg" xmlns:xlink="http://www.w3.org/1999/xlink" width="48" height="48">
	<defs>
		<linearGradient id="gradient_0" gradientUnits="userSpaceOnUse" x1="23.999554" y1="-4.7208114" x2="23.999554" y2="40.687355">
			<stop offset="0" stop-color="#5534A5"/>
			<stop offset="0.5" stop-color="#4B7BE5"/>
			<stop offset="1" stop-color="#6FDFDF"/>
		</linearGradient>
	</defs>
	<path fill="url(#gradient_0)" transform="translate(0 4)" d="M5.2410345 24.74324C5.2410345 13.723501 14.218252 4.8435187 25.011671 5.4319515C34.429966 5.9401431 42.109898 13.750249 42.70665 23.459387C43.017998 28.434317 41.487202 33.061535 38.762901 36.645626C37.958584 37.715504 38.062366 39.240078 38.99641 40.202969L38.99641 40.202969C40.112076 41.353088 41.928276 41.246098 42.914215 39.962246C46.07959 35.789722 47.973629 30.574072 48 24.903721C48.077412 11.396518 37.465614 0.18955176 24.337082 0.002323206C10.923146 -0.18490535 0 10.968567 0 24.74324C0 30.467083 1.8940372 35.762978 5.0853605 39.962246C6.045352 41.246098 7.8874974 41.353088 9.0031633 40.202969L9.0031633 40.202969C9.9372091 39.240078 10.015046 37.688755 9.184783 36.618881C6.7199407 33.329006 5.2410345 29.209978 5.2410345 24.74324Z"/>
	<defs>
		<linearGradient id="gradient_1" gradientUnits="userSpaceOnUse" x1="4.6959672" y1="-18.79673" x2="4.6959672" y2="12.700516">
			<stop offset="0" stop-color="#5534A5"/>
			<stop offset="0.5" stop-color="#E565BB"/>
			<stop offset="1" stop-color="#FFC44D"/>
		</linearGradient>
	</defs>
	<path fill="url(#gradient_1)" transform="translate(19.3036 23.902)" d="M9.3923492 4.8411956Q9.3923492 4.9600401 9.386692 5.078742Q9.3810358 5.197443 9.3697357 5.3157158Q9.3584356 5.4339876 9.3415203 5.5515461Q9.324604 5.6691046 9.3021135 5.7856655Q9.279623 5.9022264 9.2516108 6.0175099Q9.2235985 6.1327925 9.190134 6.24652Q9.1566687 6.3602471 9.1178303 6.4721446Q9.0789919 6.5840416 9.034874 6.69384Q8.990757 6.803638 8.9414654 6.9110723Q8.8921757 7.018507 8.8378305 7.1233187Q8.7834854 7.2281299 8.7242174 7.3300662Q8.6649494 7.4320025 8.6009007 7.5308185Q8.5368519 7.6296339 8.4681778 7.7250915Q8.3995028 7.8205481 8.3263674 7.9124165Q8.253231 8.0042849 8.1758108 8.0923424Q8.0983906 8.1804008 8.0168715 8.2644367Q7.9353533 8.3484726 7.8499336 8.4282837Q7.764513 8.5080957 7.6753969 8.5834904Q7.5862799 8.658884 7.4936824 8.7296791Q7.4010844 8.8004742 7.3052287 8.8665009Q7.2093735 8.9325275 7.1104908 8.9936256Q7.0116076 9.0547237 6.909936 9.1107473Q6.8082638 9.1667709 6.7040472 9.2175827Q6.5998316 9.2683954 6.4933224 9.3138752Q6.3868132 9.359355 6.2782679 9.3993921Q6.1697226 9.4394302 6.059402 9.4739294Q5.9490814 9.5084276 5.8372517 9.5373049Q5.7254219 9.5661812 5.6123524 9.5893679Q5.4992833 9.6125526 5.3852468 9.6299915Q5.2712102 9.6474304 5.1564808 9.6590796Q5.0417509 9.6707277 4.9266052 9.6765594Q4.8114595 9.6823902 4.6961746 9.6823912Q4.5808897 9.6823902 4.465744 9.6765594Q4.3505983 9.6707277 4.2358689 9.6590796Q4.1211395 9.6474304 4.007103 9.6299915Q3.8930659 9.6125526 3.7799964 9.5893679Q3.6669269 9.5661812 3.5550971 9.5373049Q3.4432678 9.5084286 3.3329473 9.4739304Q3.2226267 9.4394312 3.1140809 9.3993931Q3.0055351 9.3593559 2.8990262 9.3138762Q2.7925172 9.2683964 2.6883011 9.2175837Q2.584085 9.1667709 2.4824133 9.1107483Q2.3807411 9.0547256 2.2818582 8.9936266Q2.1829753 8.9325285 2.0871196 8.8665018Q1.9912639 8.8004751 1.8986665 8.7296791Q1.8060691 8.658884 1.716953 8.5834904Q1.6278367 8.5080967 1.5424165 8.4282846Q1.4569962 8.3484735 1.3754777 8.2644377Q1.2939591 8.1804018 1.2165388 8.0923443Q1.1391184 8.0042858 1.0659826 7.9124174Q0.99284679 7.820549 0.92417181 7.7250915Q0.85549676 7.6296349 0.79144806 7.5308189Q0.72739935 7.432003 0.66813123 7.3300667Q0.60886312 7.2281303 0.55451834 7.1233187Q0.50017357 7.018507 0.45088303 6.9110727Q0.40159249 6.8036385 0.35747498 6.69384Q0.31335747 6.5840416 0.27451926 6.4721446Q0.23568107 6.3602471 0.2022157 6.24652Q0.16875035 6.1327925 0.14073847 6.0175099Q0.11272658 5.9022264 0.090235673 5.7856655Q0.067744762 5.6691046 0.050828997 5.5515461Q0.033913232 5.4339876 0.022613365 5.3157158Q0.011313496 5.197443 0.0056567481 5.0787416Q0 4.9600401 0 4.8411956Q0 4.7223511 0.0056567481 4.6036491Q0.011313496 4.4849482 0.022613365 4.3666759Q0.033913232 4.2484031 0.050828993 4.1308446Q0.067744762 4.0132861 0.090235673 3.8967247Q0.11272658 3.7801638 0.14073846 3.6648805Q0.16875035 3.5495977 0.2022157 3.4358704Q0.23568107 3.3221431 0.27451926 3.2102454Q0.31335747 3.0983481 0.35747498 2.9885499Q0.40159249 2.8787518 0.45088303 2.7713175Q0.50017357 2.6638832 0.55451834 2.5590718Q0.60886312 2.4542601 0.66813123 2.3523235Q0.72739941 2.2503872 0.79144812 2.1515713Q0.85549682 2.0527554 0.92417181 1.9572985Q0.99284679 1.8618417 1.0659826 1.7699735Q1.1391184 1.6781054 1.2165388 1.5900471Q1.2939591 1.5019891 1.3754777 1.4179533Q1.4569962 1.3339174 1.5424165 1.2541062Q1.6278367 1.1742949 1.716953 1.0989008Q1.8060691 1.0235065 1.8986666 0.95271081Q1.9912639 0.88191509 2.0871196 0.81588852Q2.1829753 0.74986196 2.281858 0.68876356Q2.3807411 0.62766516 2.4824133 0.57164222Q2.584085 0.51561916 2.6883011 0.46480653Q2.7925172 0.4139939 2.8990262 0.368514Q3.0055351 0.32303411 3.1140809 0.28299657Q3.2226267 0.24295899 3.3329473 0.20846023Q3.4432678 0.17396143 3.5550973 0.14508453Q3.6669269 0.11620764 3.7799964 0.093022197Q3.8930659 0.069836751 4.007103 0.052398622Q4.1211395 0.03496049 4.2358694 0.023311676Q4.3505983 0.011662862 4.4657445 0.0058314311Q4.5808897 0 4.6961746 0Q4.8114595 0 4.9266052 0.0058314311Q5.0417509 0.011662862 5.1564803 0.023311676Q5.2712097 0.03496049 5.3852468 0.052398622Q5.4992833 0.069836751 5.6123524 0.093022197Q5.7254219 0.11620764 5.8372517 0.14508453Q5.9490814 0.17396143 6.0594025 0.20846023Q6.1697226 0.24295899 6.2782679 0.28299657Q6.3868132 0.32303411 6.4933224 0.368514Q6.5998316 0.4139939 6.7040482 0.4648065Q6.8082638 0.51561916 6.909936 0.57164216Q7.0116076 0.62766516 7.1104908 0.6887635Q7.2093735 0.74986196 7.3052292 0.81588846Q7.4010849 0.88191509 7.4936824 0.95271075Q7.5862799 1.0235065 7.6753964 1.0989008Q7.764513 1.1742949 7.8499327 1.2541063Q7.9353533 1.3339174 8.0168715 1.4179533Q8.0983906 1.5019891 8.1758118 1.5900471Q8.253231 1.6781054 8.3263674 1.7699735Q8.3995028 1.8618417 8.4681778 1.9572985Q8.5368519 2.0527554 8.6009007 2.1515713Q8.6649494 2.2503872 8.7242174 2.3523235Q8.7834854 2.4542601 8.8378305 2.5590718Q8.8921757 2.6638832 8.9414654 2.7713175Q8.990757 2.8787518 9.034874 2.9885499Q9.0789919 3.0983481 9.1178303 3.2102456Q9.1566687 3.3221431 9.190134 3.4358706Q9.2235985 3.5495977 9.2516108 3.6648808Q9.279623 3.7801638 9.3021135 3.8967249Q9.324604 4.0132861 9.3415194 4.1308446Q9.3584356 4.2484031 9.3697357 4.3666759Q9.3810358 4.4849482 9.386693 4.6036491Q9.3923492 4.7223511 9.3923492 4.8411956Z"/>
	<defs>
		<linearGradient id="gradient_2" gradientUnits="userSpaceOnUse" x1="14.373719" y1="-8.8448982" x2="14.373719" y2="22.652348">
			<stop offset="0" stop-color="#5534A5"/>
			<stop offset="0.5" stop-color="#E565BB"/>
			<stop offset="1" stop-color="#FFC44D"/>
		</linearGradient>
	</defs>
	<path fill="url(#gradient_2)" transform="translate(9.62586 13.9502)" d="M5.2669802 14.793028C5.2669802 9.3901463 9.7036982 5.0571427 15.02257 5.4315996C19.537125 5.752563 23.169525 9.523881 23.454927 14.177848C23.584656 16.264109 23.065741 18.189888 22.053858 19.794704C21.405216 20.864582 21.586836 22.255423 22.443045 23.138071L22.443045 23.138071C23.636547 24.368431 25.608421 24.127708 26.490576 22.656628C27.969482 20.249403 28.7738 17.38748 28.670015 14.311583C28.436504 6.4747305 22.157642 0.13570637 14.555547 0.0019716802C6.5383205 -0.131763 0 6.5549712 0 14.793028C0 17.708445 0.80431718 20.409883 2.2053859 22.683374C3.0875401 24.127708 5.0853605 24.341684 6.2529178 23.111324L6.2529178 23.111324C7.1091261 22.228676 7.2907462 20.837835 6.6421032 19.794704C5.7858949 18.35037 5.2669802 16.638567 5.2669802 14.793028Z"/>
</svg>
