<?xml version="1.0" encoding="UTF-8"?>
<svg width="16px" height="16px" viewBox="0 0 16 16" version="1.1" xmlns="http://www.w3.org/2000/svg" xmlns:xlink="http://www.w3.org/1999/xlink">
    <title>Icons / 16x16 / Auto-detect@1x</title>
    <g id="Icons-/-16x16-/-Auto-detect" stroke="none" stroke-width="1" fill="none" fill-rule="evenodd">
        <path d="M8,0 C8.48,0 8.8,0.32 8.8,0.8 L8.8,2.479984 C11.2,2.799984 13.2,4.72 13.52,7.2 L15.2,7.2 C15.68,7.2 16,7.52 16,8 C16,8.48 15.68,8.8 15.2,8.8 L13.52,8.8 C13.2,11.2 11.28,13.19992 8.8,13.51992 L8.8,15.2 C8.8,15.68 8.48,16 8,16 C7.52,16 7.2,15.68 7.2,15.2 L7.2,13.51992 C4.8,13.19992 2.800008,11.28 2.480008,8.8 L0.8,8.8 C0.32,8.8 0,8.48 0,8 C0,7.52 0.32,7.2 0.8,7.2 L2.480008,7.2 C2.800008,4.8 4.72,2.799984 7.2,2.479984 L7.2,0.8 C7.2,0.32 7.52,0 8,0 Z M8,4 C5.76,4 4,5.76 4,8 C4,10.24 5.76,12 8,12 C10.24,12 12,10.24 12,8 C12,5.76 10.24,4 8,4 Z M8,5.6 C9.32552,5.6 10.4,6.67448 10.4,8 C10.4,9.32552 9.32552,10.4 8,10.4 C6.67448,10.4 5.6,9.32552 5.6,8 C5.6,6.67448 6.67448,5.6 8,5.6 Z" id="Shape" fill="#6D6A94" fill-rule="nonzero"></path>
    </g>
</svg>