<?xml version="1.0" encoding="utf-8" ?>
<svg xmlns="http://www.w3.org/2000/svg" xmlns:xlink="http://www.w3.org/1999/xlink" width="16" height="16">
	<path fill="#6D6A94" d="M8 0C12.418278 0 16 3.581722 16 8C16 12.418278 12.418278 16 8 16C3.581722 16 0 12.418278 0 8C0 3.581722 3.581722 0 8 0ZM8 1.5C4.4101491 1.5 1.5 4.4101491 1.5 8C1.5 11.58985 4.4101491 14.5 8 14.5C11.58985 14.5 14.5 11.58985 14.5 8C14.5 4.4101491 11.58985 1.5 8 1.5ZM7.9508982 10.779233C8.4258099 10.779233 8.8108025 11.164225 8.8108025 11.639136C8.8108025 12.114049 8.4258099 12.499041 7.9508982 12.499041C7.475986 12.499041 7.0909939 12.114049 7.0909939 11.639136C7.0909939 11.164225 7.475986 10.779233 7.9508982 10.779233ZM7.9960327 3.1500001C9.4905329 3.1500001 10.702065 4.3615322 10.702065 5.8560324C10.702065 6.7861352 10.084595 7.5431213 8.950573 8.1740732L8.7460003 8.283L8.7460327 9.2289238C8.7460327 9.6086197 8.4638786 9.9224148 8.0978031 9.9720774L7.9960327 9.9789238C7.5818191 9.9789238 7.2460327 9.6431379 7.2460327 9.2289238L7.2460327 7.8120651C7.2460327 7.5164151 7.4197206 7.2483511 7.6895599 7.1275396C8.7526741 6.6515675 9.2020655 6.2021766 9.2020655 5.8560324C9.2020655 5.189959 8.6621056 4.6500001 7.9960327 4.6500001C7.3715887 4.6500001 6.8579874 5.1245732 6.7962265 5.7327228L6.79 5.8560324C6.79 6.270246 6.4542136 6.6060324 6.04 6.6060324C5.6257863 6.6060324 5.29 6.270246 5.29 5.8560324C5.29 4.3615322 6.5015321 3.1500001 7.9960327 3.1500001Z"/>
</svg>
