<?xml version="1.0" encoding="utf-8" ?>
<svg xmlns="http://www.w3.org/2000/svg" xmlns:xlink="http://www.w3.org/1999/xlink" width="16" height="16">
	<path fill="none" stroke="#6D6A94" stroke-width="3" stroke-miterlimit="5" d="M16 8Q16 8.1963882 15.990363 8.3925409Q15.980727 8.5886936 15.961478 8.7841368Q15.942228 8.9795799 15.913412 9.1738424Q15.884595 9.3681059 15.846281 9.5607214Q15.807967 9.7533369 15.760248 9.94384Q15.71253 10.134344 15.655521 10.322277Q15.598513 10.510208 15.532351 10.695117Q15.466188 10.880026 15.391034 11.061466Q15.31588 11.242905 15.231913 11.420439Q15.147945 11.597973 15.055368 11.771173Q14.962791 11.944372 14.861827 12.11282Q14.760862 12.281267 14.651754 12.444559Q14.542646 12.607851 14.425658 12.765593Q14.30867 12.923334 14.184082 13.075146Q14.059494 13.226955 13.927608 13.37247Q13.795721 13.517984 13.656853 13.656853Q13.517984 13.795721 13.372471 13.927608Q13.226955 14.059494 13.075146 14.184082Q12.923334 14.30867 12.765593 14.425658Q12.607851 14.542646 12.444559 14.651754Q12.281267 14.760862 12.11282 14.861827Q11.944372 14.962791 11.771173 15.055369Q11.597973 15.147945 11.420439 15.231914Q11.242905 15.31588 11.061466 15.391035Q10.880026 15.46619 10.695118 15.532351Q10.510208 15.598513 10.322277 15.655522Q10.134344 15.71253 9.94384 15.760249Q9.7533369 15.807968 9.5607214 15.846281Q9.3681059 15.884595 9.1738434 15.913411Q8.9795799 15.942228 8.7841377 15.961478Q8.5886936 15.980727 8.3925409 15.990364Q8.1963882 16 8 16Q7.8036108 16 7.6074586 15.990363Q7.4113064 15.980727 7.2158632 15.961478Q7.0204191 15.942228 6.8261557 15.913412Q6.6318922 15.884595 6.4392772 15.846281Q6.2466617 15.807967 6.0561581 15.760248Q5.8656549 15.71253 5.6777225 15.655521Q5.4897895 15.598513 5.3048806 15.532351Q5.1199713 15.466188 4.9385319 15.391034Q4.757092 15.31588 4.5795584 15.231913Q4.4020252 15.147945 4.2288256 15.055368Q4.0556259 14.962791 3.8871777 14.861827Q3.7187293 14.760862 3.5554378 14.651754Q3.3921463 14.542646 3.2344055 14.425658Q3.0766644 14.30867 2.9248538 14.184082Q2.7730432 14.059494 2.6275284 13.927608Q2.4820137 13.795721 2.3431456 13.656853Q2.2042775 13.517984 2.072391 13.372471Q1.9405042 13.226955 1.8159164 13.075146Q1.6913285 12.923334 1.5743396 12.765593Q1.4573509 12.607851 1.348243 12.444559Q1.239135 12.281267 1.138171 12.11282Q1.0372069 11.944372 0.94462985 11.771173Q0.85205269 11.597973 0.76808554 11.420439Q0.68411845 11.242905 0.60896367 11.061466Q0.53380889 10.880026 0.46764743 10.695118Q0.40148598 10.510208 0.3444773 10.322277Q0.28746858 10.134344 0.23974995 9.94384Q0.19203132 9.7533369 0.15371774 9.5607214Q0.11540415 9.3681059 0.086587913 9.1738434Q0.057771668 8.9795799 0.038522184 8.7841377Q0.019272698 8.5886936 0.009636349 8.3925409Q0 8.1963882 0 8Q0 7.8036108 0.009636349 7.6074586Q0.019272698 7.4113064 0.038522184 7.2158632Q0.057771668 7.0204191 0.086587906 6.8261557Q0.11540415 6.6318922 0.15371774 6.4392772Q0.19203132 6.2466617 0.23974994 6.0561581Q0.28746858 5.8656549 0.3444773 5.6777225Q0.40148598 5.4897895 0.46764743 5.3048806Q0.53380889 5.1199713 0.60896367 4.9385319Q0.68411845 4.757092 0.76808554 4.5795584Q0.85205263 4.4020252 0.94462979 4.2288256Q1.0372069 4.0556259 1.138171 3.8871777Q1.239135 3.7187293 1.348243 3.5554378Q1.4573509 3.3921463 1.5743396 3.2344055Q1.6913284 3.0766644 1.8159163 2.9248538Q1.9405041 2.7730432 2.0723908 2.6275284Q2.2042775 2.4820137 2.3431456 2.3431456Q2.4820137 2.2042775 2.6275284 2.072391Q2.7730432 1.9405042 2.9248538 1.8159164Q3.0766644 1.6913285 3.2344055 1.5743396Q3.3921466 1.4573509 3.555438 1.348243Q3.7187295 1.239135 3.8871777 1.138171Q4.0556259 1.0372069 4.2288256 0.94462985Q4.4020252 0.85205269 4.5795584 0.76808554Q4.757092 0.68411845 4.9385319 0.60896367Q5.1199713 0.53380889 5.3048801 0.46764743Q5.4897895 0.40148598 5.6777225 0.3444773Q5.8656549 0.28746858 6.0561581 0.23974995Q6.2466617 0.19203132 6.4392772 0.15371774Q6.6318922 0.11540415 6.8261557 0.086587913Q7.0204191 0.057771668 7.2158632 0.038522184Q7.4113064 0.019272698 7.6074591 0.009636349Q7.8036108 0 8 0Q8.1963882 0 8.3925409 0.009636349Q8.5886936 0.019272698 8.7841368 0.038522184Q8.9795799 0.057771668 9.1738424 0.086587906Q9.3681059 0.11540415 9.5607214 0.15371774Q9.7533369 0.19203132 9.94384 0.23974994Q10.134344 0.28746858 10.322277 0.3444773Q10.510208 0.40148598 10.695117 0.46764743Q10.880026 0.53380889 11.061466 0.60896367Q11.242905 0.68411845 11.420439 0.76808554Q11.597973 0.85205263 11.771173 0.94462979Q11.944372 1.0372069 12.11282 1.138171Q12.281267 1.239135 12.444559 1.348243Q12.607851 1.4573509 12.765593 1.5743396Q12.923334 1.6913284 13.075146 1.8159163Q13.226955 1.9405041 13.37247 2.0723908Q13.517984 2.2042775 13.656853 2.3431456Q13.795721 2.4820137 13.927608 2.6275284Q14.059494 2.7730432 14.184082 2.9248538Q14.30867 3.0766644 14.425658 3.2344055Q14.542646 3.3921466 14.651754 3.555438Q14.760862 3.7187295 14.861827 3.8871777Q14.962791 4.0556259 15.055369 4.2288256Q15.147945 4.4020252 15.231914 4.5795584Q15.31588 4.757092 15.391035 4.9385319Q15.46619 5.1199713 15.532351 5.3048801Q15.598513 5.4897895 15.655522 5.6777225Q15.71253 5.8656549 15.760249 6.0561581Q15.807968 6.2466617 15.846281 6.4392772Q15.884595 6.6318922 15.913411 6.8261557Q15.942228 7.0204191 15.961478 7.2158632Q15.980727 7.4113064 15.990364 7.6074591Q16 7.8036108 16 8Z"/>
	<path fill="none" stroke="#6D6A94" stroke-width="1.5" stroke-linecap="round" stroke-linejoin="round" transform="translate(6.04 3.9)" d="M1.9560325 5.3289237L1.9560325 3.912065C3.2600541 3.3282347 3.912065 2.6762238 3.912065 1.9560325C3.912065 0.87574559 3.0363195 0 1.9560325 0C0.87574559 0 0 0.87574559 0 1.9560325" fill-rule="evenodd"/>
	<path fill="#6D6A94" transform="translate(7.09099 10.7792)" d="M1.7198081 0.85990405Q1.719808 0.94459718 1.7032851 1.027663Q1.6867622 1.1107287 1.6543516 1.1889749Q1.6219409 1.2672212 1.5748879 1.337641Q1.5278349 1.4080608 1.4679478 1.467948Q1.4080608 1.527835 1.3376409 1.574888Q1.2672212 1.621941 1.1889749 1.6543517Q1.1107287 1.6867623 1.027663 1.7032851Q0.94459718 1.719808 0.85990405 1.7198081Q0.77521086 1.719808 0.69214505 1.7032851Q0.60907924 1.6867622 0.53083295 1.6543516Q0.45258671 1.6219409 0.38216692 1.5748879Q0.31174713 1.5278349 0.25186005 1.4679478Q0.19197294 1.4080608 0.14491995 1.3376409Q0.097866952 1.2672212 0.065456286 1.1889749Q0.033045623 1.1107287 0.016522812 1.027663Q0 0.94459718 0 0.85990405Q0 0.77521086 0.016522812 0.69214505Q0.033045623 0.60907924 0.065456286 0.53083295Q0.097866952 0.45258671 0.14491993 0.38216692Q0.19197294 0.31174713 0.25186005 0.25186005Q0.31174713 0.19197294 0.38216692 0.14491995Q0.45258671 0.097866952 0.53083295 0.065456286Q0.60907924 0.033045623 0.69214505 0.016522812Q0.77521086 0 0.85990405 0Q0.94459718 0 1.027663 0.016522812Q1.1107287 0.033045623 1.1889749 0.065456286Q1.2672212 0.097866952 1.337641 0.14491993Q1.4080608 0.19197294 1.467948 0.25186005Q1.527835 0.31174713 1.574888 0.38216692Q1.621941 0.45258671 1.6543517 0.53083295Q1.6867623 0.60907924 1.7032851 0.69214505Q1.719808 0.77521086 1.7198081 0.85990405Z"/>
</svg>
