<?xml version="1.0" encoding="utf-8" ?>
<svg xmlns="http://www.w3.org/2000/svg" xmlns:xlink="http://www.w3.org/1999/xlink" width="16" height="16">
	<path fill="none" stroke="#6D6A94" stroke-width="1.5" stroke-linecap="round" stroke-linejoin="round" transform="translate(1 1)" d="M14 7Q14 7.1718402 13.991568 7.3434739Q13.983135 7.5151072 13.966292 7.68612Q13.949449 7.8571329 13.924234 8.027113Q13.899019 8.197093 13.865496 8.3656311Q13.83197 8.5341702 13.790217 8.700861Q13.748464 8.8675518 13.698582 9.0319929Q13.648699 9.196434 13.590806 9.3582287Q13.532915 9.5200233 13.467155 9.6787834Q13.401394 9.8375435 13.327923 9.9928856Q13.254452 10.148228 13.173448 10.299777Q13.092443 10.451326 13.004099 10.598719Q12.915755 10.746111 12.820286 10.88899Q12.724816 11.03187 12.622452 11.169893Q12.520086 11.307918 12.411073 11.440753Q12.302058 11.573587 12.186657 11.700912Q12.071257 11.828238 11.949747 11.949747Q11.828238 12.071257 11.700912 12.186658Q11.573587 12.302058 11.440753 12.411073Q11.307918 12.520086 11.169893 12.622451Q11.03187 12.724816 10.88899 12.820286Q10.746111 12.915755 10.598719 13.004099Q10.451326 13.092443 10.299777 13.173449Q10.148228 13.254454 9.9928856 13.327925Q9.8375435 13.401396 9.6787834 13.467155Q9.5200233 13.532916 9.3582287 13.590808Q9.196434 13.648699 9.0319929 13.698583Q8.8675518 13.748465 8.700861 13.790218Q8.5341702 13.831971 8.3656311 13.865496Q8.197093 13.899019 8.027113 13.924234Q7.8571329 13.94945 7.68612 13.966293Q7.5151072 13.983136 7.3434734 13.991568Q7.1718402 14 7 14Q6.8281598 14 6.6565266 13.991568Q6.4848933 13.983135 6.3138804 13.966292Q6.1428671 13.949449 5.9728866 13.924234Q5.802906 13.899019 5.6343675 13.865496Q5.4658289 13.83197 5.2991385 13.790217Q5.1324482 13.748464 4.9680071 13.698582Q4.803566 13.648699 4.6417708 13.590806Q4.4799757 13.532915 4.3212156 13.467155Q4.1624556 13.401394 4.0071144 13.327923Q3.8517723 13.254452 3.700223 13.173448Q3.5486732 13.092443 3.4012804 13.004099Q3.2538881 12.915755 3.1110082 12.820286Q2.9681282 12.724816 2.8301048 12.622452Q2.6920815 12.520086 2.559247 12.411073Q2.4264126 12.302058 2.299087 12.186657Q2.171762 12.071257 2.0502524 11.949747Q1.9287429 11.828238 1.813342 11.700912Q1.6979411 11.573587 1.5889268 11.440753Q1.4799124 11.307918 1.3775473 11.169893Q1.275182 11.03187 1.1797127 10.88899Q1.0842432 10.746111 0.99589968 10.598719Q0.90755606 10.451326 0.82655108 10.299777Q0.74554604 10.148228 0.67207485 9.9928856Q0.59860361 9.8375435 0.53284317 9.6787834Q0.46708274 9.5200233 0.40919149 9.3582287Q0.35130021 9.196434 0.30141759 9.0319929Q0.25153497 8.8675518 0.20978118 8.700861Q0.16802739 8.5341702 0.13450301 8.3656311Q0.10097862 8.197093 0.075764418 8.027113Q0.0505502 7.8571329 0.033706907 7.68612Q0.016863609 7.5151072 0.0084318044 7.3434734Q0 7.1718402 0 7Q0 6.8281598 0.0084318044 6.6565266Q0.016863609 6.4848933 0.033706907 6.3138804Q0.0505502 6.1428671 0.07576441 5.9728866Q0.10097862 5.802906 0.13450301 5.6343675Q0.16802739 5.4658289 0.20978117 5.2991385Q0.25153497 5.1324482 0.30141759 4.9680071Q0.35130021 4.803566 0.40919146 4.6417708Q0.46708274 4.4799757 0.53284317 4.3212156Q0.59860361 4.1624556 0.67207479 4.0071144Q0.74554598 3.8517723 0.82655102 3.700223Q0.90755594 3.5486732 0.99589956 3.4012804Q1.0842431 3.2538881 1.1797125 3.1110082Q1.2751819 2.9681282 1.3775471 2.8301048Q1.4799123 2.6920815 1.5889268 2.559247Q1.6979411 2.4264126 1.8133421 2.299087Q1.9287429 2.171762 2.0502524 2.0502524Q2.171762 1.9287429 2.299087 1.813342Q2.4264126 1.6979411 2.559247 1.5889268Q2.6920815 1.4799124 2.8301048 1.3775473Q2.9681282 1.275182 3.1110082 1.1797127Q3.2538881 1.0842432 3.4012806 0.99589968Q3.5486729 0.90755606 3.7002227 0.82655108Q3.8517723 0.74554604 4.0071139 0.67207485Q4.1624556 0.59860361 4.3212156 0.53284317Q4.4799757 0.46708274 4.6417708 0.40919149Q4.803566 0.35130021 4.9680071 0.30141759Q5.1324482 0.25153497 5.2991385 0.20978118Q5.4658289 0.16802739 5.6343675 0.13450301Q5.802906 0.10097862 5.9728866 0.075764418Q6.1428671 0.0505502 6.31388 0.033706907Q6.4848928 0.016863609 6.6565266 0.0084318044Q6.8281598 0 7 0Q7.1718402 0 7.3434739 0.0084318044Q7.5151072 0.016863609 7.68612 0.033706907Q7.8571329 0.0505502 8.027113 0.07576441Q8.197093 0.10097862 8.3656311 0.13450301Q8.5341702 0.16802739 8.700861 0.20978117Q8.8675518 0.25153497 9.0319929 0.30141759Q9.196434 0.35130021 9.3582287 0.40919146Q9.5200233 0.46708274 9.6787834 0.53284317Q9.8375435 0.59860361 9.9928856 0.67207479Q10.148228 0.74554598 10.299777 0.82655102Q10.451326 0.90755594 10.598719 0.99589956Q10.746111 1.0842431 10.88899 1.1797125Q11.03187 1.2751819 11.169893 1.3775471Q11.307918 1.4799123 11.440753 1.5889268Q11.573587 1.6979411 11.700912 1.8133421Q11.828238 1.9287429 11.949747 2.0502524Q12.071257 2.171762 12.186658 2.299087Q12.302058 2.4264126 12.411073 2.559247Q12.520086 2.6920815 12.622451 2.8301048Q12.724816 2.9681282 12.820286 3.1110082Q12.915755 3.2538881 13.004099 3.4012806Q13.092443 3.5486729 13.173449 3.7002227Q13.254454 3.8517723 13.327925 4.0071139Q13.401396 4.1624556 13.467155 4.3212156Q13.532916 4.4799757 13.590808 4.6417708Q13.648699 4.803566 13.698583 4.9680071Q13.748465 5.1324482 13.790218 5.2991385Q13.831971 5.4658289 13.865496 5.6343675Q13.899019 5.802906 13.924234 5.9728866Q13.94945 6.1428671 13.966293 6.31388Q13.983136 6.4848928 13.991568 6.6565266Q14 6.8281598 14 7Z"/>
	<path fill="none" stroke="#6D6A94" stroke-width="1.5" stroke-linecap="round" stroke-linejoin="round" transform="translate(1.77778 7.52137)" d="M0 0.47863248L12.444445 0.47863248" fill-rule="evenodd"/>
	<path fill="none" stroke="#6D6A94" stroke-width="1.5" stroke-linecap="round" stroke-linejoin="round" transform="translate(4.82906 1)" d="M6.3418803 7C6.1861258 9.5598364 5.075634 12.011298 3.1709402 14C1.2662461 12.011298 0.15575469 9.5598364 0 7C0.15575469 4.4401641 1.2662461 1.9887018 3.1709402 0C5.075634 1.9887018 6.1861258 4.4401641 6.3418803 7Z" fill-rule="evenodd"/>
</svg>
