<?xml version="1.0" encoding="utf-8" ?>
<svg xmlns="http://www.w3.org/2000/svg" xmlns:xlink="http://www.w3.org/1999/xlink" width="16" height="16">
	<path fill="#6D6A94" transform="translate(11.75 1.75)" d="M0.5 0L2 0C2.2761424 -5.072653e-17 2.5 0.22385763 2.5 0.5L2.5 2C2.5 2.2761424 2.2761424 2.5 2 2.5L0.5 2.5C0.22385763 2.5 1.6908844e-17 2.2761424 0 2L0 0.5C-3.3817688e-17 0.22385763 0.22385763 3.3817688e-17 0.5 0Z" fill-rule="evenodd"/>
	<path fill="#6D6A94" transform="translate(5.75 11.75)" d="M0.5 0L2 0C2.2761424 -5.072653e-17 2.5 0.22385763 2.5 0.5L2.5 2C2.5 2.2761424 2.2761424 2.5 2 2.5L0.5 2.5C0.22385763 2.5 1.6908844e-17 2.2761424 0 2L0 0.5C-3.3817688e-17 0.22385763 0.22385763 3.3817688e-17 0.5 0Z" fill-rule="evenodd"/>
	<path fill="#6D6A94" transform="translate(9.75 7.75)" d="M0.5 0L2 0C2.2761424 -5.072653e-17 2.5 0.22385763 2.5 0.5L2.5 2C2.5 2.2761424 2.2761424 2.5 2 2.5L0.5 2.5C0.22385763 2.5 1.6908844e-17 2.2761424 0 2L0 0.5C-3.3817688e-17 0.22385763 0.22385763 3.3817688e-17 0.5 0Z" fill-rule="evenodd"/>
	<path fill="#6D6A94" transform="translate(9.75 11.75)" d="M0.5 0L2 0C2.2761424 -5.072653e-17 2.5 0.22385763 2.5 0.5L2.5 2C2.5 2.2761424 2.2761424 2.5 2 2.5L0.5 2.5C0.22385763 2.5 1.6908844e-17 2.2761424 0 2L0 0.5C-3.3817688e-17 0.22385763 0.22385763 3.3817688e-17 0.5 0Z" fill-rule="evenodd"/>
	<path fill="#6D6A94" transform="translate(5.75 3.75)" d="M0.5 0L2 0C2.2761424 -5.072653e-17 2.5 0.22385763 2.5 0.5L2.5 2C2.5 2.2761424 2.2761424 2.5 2 2.5L0.5 2.5C0.22385763 2.5 1.6908844e-17 2.2761424 0 2L0 0.5C-3.3817688e-17 0.22385763 0.22385763 3.3817688e-17 0.5 0Z" fill-rule="evenodd"/>
	<path fill="#6D6A94" transform="translate(1.75 3.75)" d="M0.5 0L2 0C2.2761424 -5.072653e-17 2.5 0.22385763 2.5 0.5L2.5 2C2.5 2.2761424 2.2761424 2.5 2 2.5L0.5 2.5C0.22385763 2.5 1.6908844e-17 2.2761424 0 2L0 0.5C-3.3817688e-17 0.22385763 0.22385763 3.3817688e-17 0.5 0Z" fill-rule="evenodd"/>
	<path fill="#6D6A94" transform="translate(1.75 7.75)" d="M0.5 0L2 0C2.2761424 -5.072653e-17 2.5 0.22385763 2.5 0.5L2.5 2C2.5 2.2761424 2.2761424 2.5 2 2.5L0.5 2.5C0.22385763 2.5 1.6908844e-17 2.2761424 0 2L0 0.5C-3.3817688e-17 0.22385763 0.22385763 3.3817688e-17 0.5 0Z" fill-rule="evenodd"/>
	<path fill="#6D6A94" transform="translate(1.75 11.75)" d="M0.5 0L2 0C2.2761424 -5.072653e-17 2.5 0.22385763 2.5 0.5L2.5 2C2.5 2.2761424 2.2761424 2.5 2 2.5L0.5 2.5C0.22385763 2.5 1.6908844e-17 2.2761424 0 2L0 0.5C-3.3817688e-17 0.22385763 0.22385763 3.3817688e-17 0.5 0Z" fill-rule="evenodd"/>
	<path fill="#6D6A94" transform="translate(5.75 7.75)" d="M0.5 0L2 0C2.2761424 -5.072653e-17 2.5 0.22385763 2.5 0.5L2.5 2C2.5 2.2761424 2.2761424 2.5 2 2.5L0.5 2.5C0.22385763 2.5 1.6908844e-17 2.2761424 0 2L0 0.5C-3.3817688e-17 0.22385763 0.22385763 3.3817688e-17 0.5 0Z" fill-rule="evenodd"/>
</svg>
