<?xml version="1.0" encoding="UTF-8"?>
<svg width="16px" height="16px" viewBox="0 0 16 16" version="1.1" xmlns="http://www.w3.org/2000/svg" xmlns:xlink="http://www.w3.org/1999/xlink">
    <title>Icons / 16x16 / Plus@1x</title>
    <g id="Icons-/-16x16-/-Plus" stroke="none" stroke-width="1" fill="none" fill-rule="evenodd">
        <path d="M8,2 C8.41421356,2 8.75,2.33578644 8.75,2.75 L8.75,7.25 L13.25,7.25 C13.6642136,7.25 14,7.58578644 14,8 C14,8.41421356 13.6642136,8.75 13.25,8.75 L8.75,8.75 L8.75,13.25 C8.75,13.6642136 8.41421356,14 8,14 C7.58578644,14 7.25,13.6642136 7.25,13.25 L7.25,8.749 L2.75,8.75 C2.33578644,8.75 2,8.41421356 2,8 C2,7.58578644 2.33578644,7.25 2.75,7.25 L7.25,7.249 L7.25,2.75 C7.25,2.33578644 7.58578644,2 8,2 Z" id="Path" fill="#6D6A94"></path>
    </g>
</svg>