<?xml version="1.0" encoding="utf-8" ?>
<svg xmlns="http://www.w3.org/2000/svg" xmlns:xlink="http://www.w3.org/1999/xlink" width="17" height="17">
	<path fill="none" stroke="#6D6A94" stroke-width="1.5" stroke-linecap="round" stroke-linejoin="round" transform="translate(4.9611 12.7947)" d="M0.31111112 2.3988264L0.31111112 0" fill-rule="evenodd"/>
	<path fill="none" stroke="#6D6A94" stroke-width="1.5" stroke-linecap="round" stroke-linejoin="round" transform="translate(8.61292 12.7947)" d="M0.31111112 2.3988264L0.31111112 0" fill-rule="evenodd"/>
	<path fill="none" stroke="#6D6A94" stroke-width="1.5" stroke-linecap="round" stroke-linejoin="round" transform="translate(4.05452 12.4881)" d="M0 0.30652013L6.0872002 0.30652013" fill-rule="evenodd"/>
	<path fill="none" stroke="#6D6A94" stroke-width="1.5" stroke-linecap="round" stroke-linejoin="round" transform="translate(1.01123 4.61793)" d="M0 10.575549L0 0.58789706C0.016460789 0.24827212 0.30856058 -0.014301394 0 0.00060448668L5.8800001 0.00060448668C6.2247729 -0.014301394 6.5168724 0.24827212 6.5333333 0.58789706L6.5333333 5.977747" fill-rule="evenodd"/>
	<path fill="none" stroke="#6D6A94" stroke-width="1.5" stroke-linecap="round" stroke-linejoin="round" transform="translate(2.8779 2.77889)" d="M2.8 0.30704728C2.7886508 0.12759823 2.6325312 -0.0092484457 2.4503112 0.00052715972L0.3503111 0.00052715972C0.16785465 -0.0095981499 0.011346293 0.12734573 0 0.30704728L0 1.8396479L2.8 1.8396479L2.8 0.30704728Z" fill-rule="evenodd"/>
	<path fill="none" stroke="#6D6A94" stroke-width="1.5" stroke-linecap="round" stroke-linejoin="round" transform="translate(3.95963 1.5)" d="M0.30395555 1.0991812L0.31826666 0" fill-rule="evenodd"/>
	<path fill="none" stroke="#6D6A94" stroke-width="1.5" stroke-linecap="round" stroke-linejoin="round" transform="translate(2.8779 6.61092)" d="M0 0.30652013L2.8 0.30652013" fill-rule="evenodd"/>
	<path fill="none" stroke="#6D6A94" stroke-width="1.5" stroke-linecap="round" stroke-linejoin="round" transform="translate(2.8779 9.3696)" d="M0 0.30652013L2.8 0.30652013" fill-rule="evenodd"/>
	<path fill="none" stroke="#6D6A94" stroke-width="1.5" stroke-linecap="round" stroke-linejoin="round" transform="translate(1.01123 14.887)" d="M0 0.30652013L14 0.30652013" fill-rule="evenodd"/>
	<path fill="none" stroke="#6D6A94" stroke-width="1.5" stroke-linecap="round" stroke-linejoin="round" transform="translate(10.3446 6.45766)" d="M4.6666665 2.2989008Q4.6666665 2.4118385 4.6554308 2.5242324Q4.6441951 2.6366265 4.6218319 2.7473941Q4.5994692 2.8581619 4.5661941 2.9662366Q4.5329189 3.0743113 4.4890518 3.1786518Q4.4451852 3.2829928 4.3911495 3.3825951Q4.3371134 3.4821973 4.2734284 3.5761015Q4.209744 3.670006 4.1370239 3.757308Q4.0643039 3.8446102 3.9832487 3.924469Q3.9021935 4.0043283 3.8135839 4.0759754Q3.7249742 4.1476226 3.6296632 4.2103672Q3.5343528 4.2731123 3.4332585 4.3263507Q3.3321645 4.3795891 3.2262607 4.4228082Q3.1203573 4.4660277 3.010664 4.4988117Q2.9009705 4.5315962 2.7885437 4.5536289Q2.6761174 4.5756617 2.5620401 4.5867319Q2.4479628 4.5978017 2.3333333 4.5978017Q2.218704 4.5978017 2.1046267 4.5867319Q1.9905492 4.5756617 1.8781223 4.5536289Q1.7656958 4.5315962 1.6560024 4.4988117Q1.546309 4.4660277 1.4404051 4.4228082Q1.3345015 4.3795891 1.2334075 4.3263507Q1.1323135 4.2731123 1.0370027 4.2103672Q0.94169199 4.1476226 0.85308236 4.0759754Q0.76447266 4.0043287 0.68341744 3.9244692Q0.60236228 3.8446102 0.52964222 3.757308Q0.45692217 3.6700063 0.3932375 3.5761015Q0.32955289 3.4821975 0.27551699 3.3825951Q0.22148113 3.2829931 0.17761439 3.178652Q0.13374767 3.0743113 0.10047254 2.9662366Q0.067197412 2.8581619 0.044834338 2.7473941Q0.022471273 2.6366265 0.011235637 2.5242326Q0 2.4118385 0 2.2989008Q0 2.1859632 0.011235637 2.0735693Q0.022471273 1.9611752 0.044834338 1.8504075Q0.067197412 1.7396399 0.10047254 1.6315652Q0.13374767 1.5234904 0.17761439 1.4191495Q0.22148113 1.3148086 0.27551702 1.2152064Q0.32955289 1.1156042 0.39323753 1.0216999Q0.45692217 0.92779565 0.52964222 0.84049362Q0.60236228 0.75319159 0.68341744 0.67333245Q0.76447266 0.59347343 0.8530823 0.52182651Q0.94169199 0.45017952 1.0370027 0.38743463Q1.1323135 0.32468981 1.2334075 0.27145129Q1.3345015 0.2182128 1.4404051 0.17499338Q1.546309 0.13177398 1.6560023 0.098989889Q1.7656958 0.066205785 1.8781223 0.044172727Q1.9905492 0.022139668 2.1046267 0.011069834Q2.218704 0 2.3333333 0Q2.4479628 0 2.5620401 0.011069834Q2.6761174 0.022139668 2.7885437 0.044172727Q2.9009705 0.066205785 3.010664 0.098989889Q3.1203575 0.13177398 3.2262609 0.17499338Q3.3321648 0.2182128 3.4332588 0.27145129Q3.5343528 0.32468981 3.6296635 0.38743463Q3.7249742 0.45017952 3.8135839 0.52182645Q3.9021935 0.59347343 3.9832487 0.67333245Q4.0643039 0.75319159 4.1370239 0.84049356Q4.209744 0.92779565 4.2734284 1.0216999Q4.3371134 1.1156042 4.391149 1.2152064Q4.4451852 1.3148086 4.4890518 1.4191494Q4.5329189 1.5234904 4.5661941 1.631565Q4.5994692 1.7396398 4.6218319 1.8504074Q4.6441951 1.9611752 4.6554308 2.0735691Q4.6666665 2.1859632 4.6666665 2.2989008Z"/>
	<path fill="none" stroke="#6D6A94" stroke-width="1.5" stroke-linecap="round" stroke-linejoin="round" transform="translate(12.3668 9.21634)" d="M0.31111112 5.9771423L0.31111112 0" fill-rule="evenodd"/>
</svg>
