<?xml version="1.0" encoding="utf-8" ?>
<svg xmlns="http://www.w3.org/2000/svg" xmlns:xlink="http://www.w3.org/1999/xlink" width="16" height="16">
	<path fill="#6D6A94" transform="translate(3.27145 3.40533)" d="M0.21966991 0.21966991C0.51256311 -0.073223308 0.98743689 -0.073223308 1.2803301 0.21966991L4.5939999 3.5339999L7.9090099 0.21966991C8.2019033 -0.073223308 8.6767769 -0.073223308 8.9696703 0.21966991C9.2625628 0.51256311 9.2625628 0.98743689 8.9696703 1.2803301L5.6550002 4.5939999L8.9696703 7.9090099C9.2359362 8.1752768 9.2601423 8.5919399 9.0422878 8.8855515L8.9696703 8.9696703C8.6767769 9.2625628 8.2019033 9.2625628 7.9090099 8.9696703L4.5939999 5.6550002L1.2803301 8.9696703C0.98743689 9.2625628 0.51256311 9.2625628 0.21966991 8.9696703C-0.073223308 8.6767769 -0.073223308 8.2019033 0.21966991 7.9090099L3.5339999 4.5939999L0.21966991 1.2803301C-0.04659665 1.0140635 -0.070802696 0.59739983 0.14705177 0.30378833L0.21966991 0.21966991Z" fill-rule="evenodd"/>
</svg>
