<?xml version="1.0" encoding="utf-8" ?>
<svg xmlns="http://www.w3.org/2000/svg" xmlns:xlink="http://www.w3.org/1999/xlink" width="24" height="24">
	<path fill="#E54B4B" d="M6 0L18 0C21.313709 -6.0871837e-16 24 2.6862915 24 6L24 18C24 21.313709 21.313709 24 18 24L6 24C2.6862915 24 2.0290612e-16 21.313709 0 18L0 6C-4.0581224e-16 2.6862915 2.6862915 4.0581224e-16 6 0Z"/>
	<path fill="white" transform="translate(4.35 4.35)" d="M7.6500001 0C11.874978 0 15.3 3.4250216 15.3 7.6500001C15.3 11.874978 11.874978 15.3 7.6500001 15.3C3.4250216 15.3 0 11.874978 0 7.6500001C0 3.4250216 3.4250216 0 7.6500001 0ZM7.6500001 1.3C4.142992 1.3 1.3 4.142992 1.3 7.6500001C1.3 11.157008 4.142992 14 7.6500001 14C11.157008 14 14 11.157008 14 7.6500001C14 4.142992 11.157008 1.3 7.6500001 1.3ZM7.6500001 9.4141436C8.2022848 9.4141436 8.6499996 9.8618593 8.6499996 10.414144C8.6499996 10.966429 8.2022848 11.414144 7.6500001 11.414144C7.0977154 11.414144 6.6500001 10.966429 6.6500001 10.414144C6.6500001 9.8618593 7.0977154 9.4141436 7.6500001 9.4141436ZM7.6500001 4.164144C8.0642138 4.164144 8.3999996 4.4999304 8.3999996 4.914144L8.3999996 7.914144C8.3999996 8.3283577 8.0642138 8.6641436 7.6500001 8.6641436C7.2357864 8.6641436 6.9000001 8.3283577 6.9000001 7.914144L6.9000001 4.914144C6.9000001 4.4999304 7.2357864 4.164144 7.6500001 4.164144Z"/>
</svg>
