<?xml version="1.0" encoding="utf-8" ?>
<svg xmlns="http://www.w3.org/2000/svg" xmlns:xlink="http://www.w3.org/1999/xlink" width="16" height="16">
	<path fill="none" stroke="#6D6A94" stroke-width="1.5" stroke-linecap="round" stroke-linejoin="round" transform="translate(6.58923 10.9843)" d="M1.4107692 2.8233588C2.189923 2.8233588 2.8215384 2.1913409 2.8215384 1.4116902C2.8215384 0.63203961 2.189923 0 1.4107692 0C0.63162613 0 0 0.63203961 0 1.4116902C0 2.1913409 0.63162613 2.8233588 1.4107692 2.8233588Z" fill-rule="evenodd"/>
	<path fill="none" stroke="#6D6A94" stroke-width="1.5" stroke-linecap="round" stroke-linejoin="round" transform="translate(5.34 8.09116)" d="M0 1.1366842C0.35018307 0.77694577 0.76883692 0.49102363 1.2312354 0.29580384C1.6936338 0.10057331 2.1904292 0 2.6923077 0C3.1941862 0 3.6909816 0.10057331 4.1533799 0.29580384C4.6157784 0.49102363 5.0344214 0.77694577 5.3846154 1.1366842" fill-rule="evenodd"/>
	<path fill="none" stroke="#6D6A94" stroke-width="1.5" stroke-linecap="round" stroke-linejoin="round" transform="translate(3.00307 5.32504)" d="M0 2.0818772C0.65553385 1.4220999 1.4349569 0.89851093 2.293437 0.5412187C3.151917 0.18393719 4.0725245 0 5.0023079 0C5.9320798 0 6.8526878 0.18393719 7.7111678 0.5412187C8.5696259 0.89851093 9.349103 1.4220999 10.004626 2.0818772" fill-rule="evenodd"/>
	<path fill="none" stroke="#6D6A94" stroke-width="1.5" stroke-linecap="round" stroke-linejoin="round" transform="translate(1 2.5)" d="M0 2.9024124C0.91907847 1.982263 2.0103354 1.2523441 3.2114277 0.75433755C4.4125094 0.25633103 5.6998844 0 7 0C8.3001156 0 9.587491 0.25633103 10.788615 0.75433755C11.989708 1.2523441 13.080954 1.982263 14 2.9024124" fill-rule="evenodd"/>
</svg>
