<?xml version="1.0" standalone="no"?>
<!DOCTYPE svg PUBLIC "-//W3C//DTD SVG 20010904//EN"
 "http://www.w3.org/TR/2001/REC-SVG-20010904/DTD/svg10.dtd">
<svg version="1.0" xmlns="http://www.w3.org/2000/svg"
 width="260.000000pt" height="260.000000pt" viewBox="0 0 260.000000 260.000000"
 preserveAspectRatio="xMidYMid meet">
<metadata>
Created by potrace 1.14, written by Peter Selinger 2001-2017
</metadata>
<g transform="translate(0.000000,260.000000) scale(0.100000,-0.100000)"
fill="#000000" stroke="none">
<path d="M1115 2395 c-44 -7 -100 -18 -125 -24 -25 -6 -52 -13 -60 -15 -8 -2
-46 -16 -83 -30 -444 -168 -760 -568 -835 -1056 -4 -25 -7 -112 -6 -195 1
-206 29 -340 111 -530 41 -96 132 -242 178 -287 90 -90 254 0 231 126 -4 18
-33 75 -66 125 -67 105 -112 207 -141 319 -153 595 236 1190 839 1282 79 12
246 9 317 -5 17 -3 39 -7 50 -9 80 -14 240 -85 340 -151 76 -50 218 -192 269
-269 240 -363 240 -813 -1 -1174 -51 -77 -58 -93 -58 -137 0 -108 105 -176
198 -129 42 22 47 28 112 128 151 235 216 467 210 756 -4 213 -47 387 -145
580 -37 73 -114 189 -155 235 -101 112 -215 215 -290 262 -162 102 -333 170
-500 198 -79 13 -310 13 -390 0z"/>
<path d="M1177 1870 c-383 -64 -669 -416 -652 -805 2 -49 6 -101 9 -115 3 -14
9 -41 12 -60 10 -52 69 -187 100 -227 34 -45 84 -66 135 -58 104 18 149 124
95 225 -63 119 -84 268 -52 386 99 371 555 495 824 224 153 -154 186 -395 81
-595 -37 -69 -41 -126 -14 -173 40 -67 139 -89 203 -43 40 28 105 158 133 266
27 105 29 272 4 370 -79 313 -314 540 -620 600 -51 10 -208 13 -258 5z"/>
<path d="M1245 1340 c-160 -38 -243 -216 -170 -365 47 -97 144 -152 251 -142
209 20 303 285 153 436 -59 59 -158 89 -234 71z"/>
</g>
</svg>
