<?xml version="1.0" standalone="no"?>
<!DOCTYPE svg PUBLIC "-//W3C//DTD SVG 20010904//EN"
 "http://www.w3.org/TR/2001/REC-SVG-20010904/DTD/svg10.dtd">
<svg version="1.0" xmlns="http://www.w3.org/2000/svg"
 width="260.000000pt" height="260.000000pt" viewBox="0 0 260.000000 260.000000"
 preserveAspectRatio="xMidYMid meet">
<metadata>
Created by potrace 1.14, written by Peter Selinger 2001-2017
</metadata>
<g transform="translate(0.000000,260.000000) scale(0.100000,-0.100000)"
fill="#000000" stroke="none">
<path d="M1298 2184 c-2 -1 -25 -3 -53 -5 -101 -5 -210 -56 -293 -137 -88 -85
-140 -195 -149 -318 -11 -146 62 -289 237 -464 131 -132 206 -191 248 -197 36
-5 44 0 128 69 142 120 256 246 321 359 55 96 69 214 38 334 -30 117 -146 253
-262 307 -56 26 -205 63 -215 52z m292 -282 c16 -13 21 -24 16 -38 -3 -11 -51
-64 -105 -117 -93 -92 -99 -100 -99 -139 -2 -95 -117 -137 -183 -67 -41 44
-41 100 2 140 30 28 49 34 94 31 13 -1 58 35 129 103 59 58 112 105 116 105 4
0 18 -8 30 -18z"/>
<path d="M419 1639 c-85 -14 -118 -56 -183 -227 l-54 -141 215 -211 c118 -115
218 -210 221 -210 4 0 78 70 165 154 142 138 157 156 148 175 -6 11 -17 24
-24 28 -27 17 -127 151 -165 223 -23 41 -48 105 -58 143 -14 56 -20 67 -38 68
-98 4 -199 3 -227 -2z"/>
<path d="M1939 1642 c-10 -2 -20 -25 -28 -63 -7 -33 -32 -98 -56 -144 l-44
-84 277 -268 c152 -147 299 -290 327 -318 99 -97 99 -97 127 -84 28 12 48 43
50 74 1 17 -87 265 -176 500 -13 33 -43 113 -67 179 -66 182 -99 207 -278 209
-65 1 -124 1 -132 -1z"/>
<path d="M1677 1194 c-34 -46 -231 -214 -281 -239 -93 -47 -181 -29 -280 54
-27 23 -52 40 -56 39 -15 -6 -320 -306 -320 -315 0 -5 14 -22 31 -39 l30 -29
459 0 458 -1 143 139 143 140 -143 138 c-78 77 -147 139 -154 139 -7 0 -20
-12 -30 -26z"/>
<path d="M115 1089 c-111 -308 -116 -325 -108 -353 4 -16 20 -38 35 -49 25
-19 44 -21 208 -22 l181 -1 34 33 c36 35 42 49 26 55 -5 2 -81 73 -168 158
-201 196 -201 196 -208 179z"/>
<path d="M2038 752 c-43 -42 -80 -79 -82 -82 -3 -3 72 -5 165 -5 l170 0 -85
82 c-47 46 -87 83 -88 83 -2 0 -38 -35 -80 -78z"/>
</g>
</svg>
