<?xml version="1.0" encoding="utf-8" ?>
<svg xmlns="http://www.w3.org/2000/svg" xmlns:xlink="http://www.w3.org/1999/xlink" width="16" height="16">
	<path fill="#ACAFCD" transform="translate(1.25119 1.25)" d="M6.7804446 0.21978424L12.280444 5.7221556C12.573275 6.0151119 12.573173 6.4899859 12.280216 6.7828159C11.98726 7.0756459 11.512385 7.0755439 11.219556 6.7825875L7 2.562L7 13.000252C7 13.414466 6.6642137 13.750252 6.25 13.750252C5.8357863 13.750252 5.5 13.414466 5.5 13.000252L5.5 2.5599999L1.2804444 6.7825875C1.0142353 7.0489111 0.5975768 7.0732069 0.30391833 6.8554158L0.21978424 6.7828159C-0.073172107 6.4899859 -0.073274463 6.0151119 0.21955562 5.7221556L5.7195554 0.21978424C6.012475 -0.07326141 6.487525 -0.07326141 6.7804446 0.21978424Z" fill-rule="evenodd"/>
</svg>
