<?xml version="1.0" encoding="utf-8" ?>
<svg xmlns="http://www.w3.org/2000/svg" xmlns:xlink="http://www.w3.org/1999/xlink" width="24" height="24">
	<path d="M0 0L24 0L24 24L0 24L0 0Z"/>
	<path fill="white" transform="translate(1 5)" d="M11.666667 0C12.141387 0 12.783408 0.10700352 13.447213 0.43890613C14.608126 1.0193621 15.333333 2.1071737 15.333333 3.6666667L15.333333 10.333333C15.333333 10.808054 15.22633 11.450075 14.894427 12.11388C14.313972 13.274793 13.226159 14 11.666667 14L3.6666667 14C3.191946 14 2.5499249 13.892997 1.8861197 13.561094C0.72520775 12.980638 0 11.892826 0 10.333333L0 3.6666667C0 3.191946 0.10700352 2.5499251 0.43890613 1.8861197C1.0193621 0.72520775 2.1071737 0 3.6666667 0L11.666667 0ZM3.4944158 2.004858C2.8303554 2.0436423 2.4611857 2.3136964 2.2277606 2.7805469C2.0596631 3.1167417 2 3.4747205 2 3.6666667L2 10.333333C2 11.107174 2.2747922 11.519362 2.7805469 11.77224C3.1167417 11.940337 3.4747205 12 3.6666667 12L11.666667 12C12.440507 12 12.852695 11.725207 13.105573 11.219453C13.27367 10.883258 13.333333 10.525279 13.333333 10.333333L13.333333 3.6666667C13.333333 2.8928263 13.058541 2.4806378 12.552786 2.2277606C12.216592 2.0596631 11.858613 2 11.666667 2L3.6666667 2L3.4944158 2.004858ZM19.586956 1.9222666C20.103548 1.6629698 20.717634 1.6900069 21.209438 1.9937016C21.701242 2.2973962 22.000458 2.8343329 22 3.4115555L22 10.587556C22 11.165009 21.701078 11.701308 21.209961 12.005032C20.718851 12.30875 20.105522 12.336622 19.588446 12.07848L16.552891 10.561146C16.058884 10.314215 15.858589 9.7135649 16.10552 9.2195578C16.352451 8.7255507 16.953102 8.5252552 17.447109 8.7721872L20 10.048249L20 3.9512494L17.447109 5.2278128C16.988388 5.4571061 16.437716 5.3007812 16.163681 4.8817492L16.10552 4.7804422C15.858589 4.2864347 16.058884 3.6857851 16.552891 3.4388537L19.586956 1.9222666Z"/>
</svg>
