<?xml version="1.0" encoding="utf-8" ?>
<svg xmlns="http://www.w3.org/2000/svg" xmlns:xlink="http://www.w3.org/1999/xlink" width="17" height="16">
	<path d="M0 0L16 0L16 16L0 16L0 0Z"/>
	<path fill="white" transform="translate(0.249912 0.249962)" d="M4.4827886 5.5991278C6.0566034 5.5991278 7.3324327 6.8749571 7.3324327 8.4487715C7.3324327 9.5255508 6.7352076 10.46284 5.8539329 10.947464C7.4788532 11.463346 8.7208843 12.87842 8.9587994 14.647755C9.0139999 15.058273 8.7259579 15.435814 8.3154392 15.491014C7.9049201 15.546215 7.5273795 15.258173 7.4721789 14.847654C7.2708807 13.350629 5.9932871 12.233329 4.4827886 12.233329C2.9722898 12.233329 1.6946964 13.350629 1.493398 14.847654C1.4381973 15.258173 1.060657 15.546215 0.65013808 15.491014C0.23961921 15.435814 -0.048423126 15.058273 0.0067775482 14.647755C0.24471515 12.878249 1.4869636 11.463074 3.1122546 10.945548C2.2304397 10.462951 1.6331444 9.5256138 1.6331444 8.4487715L1.6379818 8.2813339C1.724655 6.7854538 2.9651811 5.5991278 4.4827886 5.5991278ZM4.4827886 7.0991278C3.7374005 7.0991278 3.1331444 7.7033839 3.1331444 8.4487715C3.1331444 9.1941595 3.7374005 9.7984161 4.4827886 9.7984161C5.2281766 9.7984161 5.8324327 9.1941595 5.8324327 8.4487715C5.8324327 7.7033839 5.2281766 7.0991278 4.4827886 7.0991278ZM11.485221 0L11.690178 0.0052113361C13.15048 0.079327814 14.462337 0.94430804 15.101821 2.2715242C15.771761 3.6619542 15.585065 5.3133655 14.621616 6.519136C13.749926 7.6100717 12.382119 8.1613359 11.015589 7.9997354L10.902208 7.9830379L9.0172844 9.1456165C8.4960155 9.4670887 7.8465366 9.0628729 7.8737388 8.4778957L7.884676 8.3788195L8.236208 6.3580379L8.1936646 6.3023729C7.4273295 5.2135715 7.2506104 3.8068874 7.7350025 2.5564029L7.8218684 2.3495166C8.4729433 0.91258621 9.9076757 -0.0075635244 11.485221 0ZM11.482594 1.499979C10.491916 1.4952724 9.5951185 2.0704231 9.1881599 2.9685855C8.7812004 3.8667505 8.9400702 4.9202123 9.5938072 5.6584158C9.7450027 5.8291464 9.8103027 6.0593948 9.7712507 6.284081L9.6482077 6.9940381L10.359417 6.5555968C10.49375 6.4727521 10.649869 6.4349189 10.805371 6.4457827L10.921532 6.463119C11.86344 6.6801891 12.846378 6.3379283 13.449759 5.5827866C14.053141 4.8276448 14.170064 3.7934105 13.750499 2.9226217C13.330934 2.0518355 12.449209 1.4987587 11.482594 1.499979Z"/>
</svg>
