<?xml version="1.0" encoding="utf-8" ?>
<svg xmlns="http://www.w3.org/2000/svg" xmlns:xlink="http://www.w3.org/1999/xlink" width="24" height="24">
	<path d="M0 0L24 0L24 24L0 24L0 0Z"/>
	<path fill="white" transform="translate(1 1)" d="M11 0C17.075132 0 22 4.9248676 22 11C22 17.075132 17.075132 22 11 22C4.9248676 22 0 17.075132 0 11L0.0037074047 10.711593C0.15663482 4.7697635 5.0212984 0 11 0ZM11 2C6.0294371 2 2 6.0294371 2 11C2 15.970563 6.0294371 20 11 20C15.970563 20 20 15.970563 20 11C20 6.0294371 15.970563 2 11 2ZM11 6.4285712C11.552285 6.4285712 12 6.8762865 12 7.4285712L12 10.585L16.170992 14.75773C16.561474 15.148296 16.561407 15.781462 16.170841 16.171944C15.780275 16.562428 15.14711 16.562359 14.756627 16.171793L10.292818 11.707031C10.257427 11.671634 10.225245 11.634243 10.196271 11.595221L10.124619 11.483969L10.093654 11.4231L10.059881 11.341638L10.035817 11.26589L10.011038 11.148599L10.003889 11.088804L10 11L10 7.4285712C10 6.8762865 10.447715 6.4285712 11 6.4285712Z"/>
</svg>
