<?xml version="1.0" encoding="utf-8" ?>
<svg xmlns="http://www.w3.org/2000/svg" xmlns:xlink="http://www.w3.org/1999/xlink" width="32" height="32">
	<path d="M0 0L32 0L32 32L0 32L0 0Z"/>
	<path fill="white" transform="translate(2 2)" d="M20.066668 10.688889C24.283556 10.688889 27.842165 12.422358 27.994894 14.98359L28 15.155556L28 23.533333C28 26.190601 24.377033 28 20.066668 28C15.7563 28 12.133333 26.190601 12.133333 23.533333L12.133333 15.155556L12.138439 14.98359C12.291168 12.422358 15.849777 10.688889 20.066668 10.688889ZM7.9333334 0C12.150223 0 15.708832 1.7334684 15.861561 4.2947016L15.866667 4.4666667L15.866667 9.0888891C15.866667 9.6411734 15.418951 10.088889 14.866667 10.088889C14.314382 10.088889 13.866667 9.6411734 13.866667 9.0888891L13.867066 7.4921432C12.402204 8.4016542 10.268721 8.9333334 7.9333334 8.9333334C5.5984697 8.9333334 3.4654193 8.4018927 2.0005851 7.4927549L2 8.8000002C2 9.9751873 4.5859346 11.266666 7.9306793 11.26667C8.5515471 11.265022 9.1714821 11.218438 9.7856236 11.127281C10.331923 11.046194 10.840521 11.423325 10.921608 11.969624C11.002694 12.515924 10.625565 13.024521 10.079265 13.105608C9.3696604 13.210934 8.6533632 13.264759 7.9333334 13.266666C5.5985951 13.266666 3.4655342 12.735804 2.0006642 11.826882L2 13.133333C2 14.30852 4.5859346 15.6 7.9368896 15.600006C8.540741 15.602154 9.1439133 15.559325 9.7414026 15.471875C10.287866 15.391893 10.795699 15.770051 10.87568 16.316515C10.955662 16.862976 10.577504 17.37081 10.031041 17.450792C9.3352957 17.552622 8.6329308 17.602495 7.9333334 17.6C5.5985951 17.6 3.4655342 17.069138 2.0006642 16.160215L2 17.466667C2 18.641853 4.5859346 19.933332 7.9306793 19.933336C8.5515471 19.931688 9.1714821 19.885105 9.7856236 19.793947C10.331923 19.712862 10.840521 20.089991 10.921608 20.636292C11.002694 21.18259 10.625565 21.691187 10.079265 21.772274C9.3696604 21.8776 8.6533632 21.931425 7.9333334 21.933332C5.5985951 21.933332 3.4655342 21.40247 2.0006642 20.493549L2 21.799999C2 22.975212 4.5859647 24.26675 7.9367623 24.266756C8.5408068 24.268827 9.1440201 24.225977 9.7414026 24.138542C10.287866 24.058561 10.795699 24.436718 10.87568 24.983181C10.955662 25.529644 10.577504 26.037477 10.031041 26.117458C9.3354654 26.219265 8.6331453 26.269156 7.9333334 26.266911C3.6230001 26.266911 0 24.457273 0 21.799999L0 4.4666667L0.005106051 4.2947016C0.1578353 1.7334684 3.7164438 0 7.9333334 0ZM26.00032 22.226271C24.535421 23.135567 22.401928 23.666666 20.066668 23.666666C17.731405 23.666666 15.597911 23.135567 14.133012 22.226271L14.133333 23.533333C14.133333 24.708521 16.719269 26 20.066668 26C23.414066 26 26 24.708521 26 23.533333L26.00032 22.226271ZM26.000401 18.181032C24.535538 19.090544 22.402054 19.622223 20.066668 19.622223C17.731279 19.622223 15.597796 19.090544 14.132934 18.181032L14.133333 19.200001C14.133333 20.375187 16.719269 21.666666 20.066668 21.666666C23.414066 21.666666 26 20.375187 26 19.200001L26.000401 18.181032ZM20.066668 12.688889C16.718916 12.688889 14.133333 13.981681 14.133333 15.155556C14.133333 16.329432 16.718916 17.622223 20.066668 17.622223C23.414417 17.622223 26 16.329432 26 15.155556C26 13.981681 23.414417 12.688889 20.066668 12.688889ZM7.9333334 2C4.5855832 2 2 3.2927916 2 4.4666667C2 5.640542 4.5855832 6.9333334 7.9333334 6.9333334C11.281084 6.9333334 13.866667 5.640542 13.866667 4.4666667C13.866667 3.2927916 11.281084 2 7.9333334 2Z"/>
</svg>
