<?xml version="1.0" encoding="utf-8" ?>
<svg xmlns="http://www.w3.org/2000/svg" xmlns:xlink="http://www.w3.org/1999/xlink" width="25" height="24">
	<path fill="none" stroke="#ACAFCD" stroke-width="1.5" stroke-linecap="round" stroke-linejoin="round" transform="translate(3 3.45)" d="M9 2.6219726C6.4113193 1.035096 3.4614589 0.13293166 0.428 0.00037253386C0.31658599 -0.0043705222 0.20802332 0.036340479 0.12719999 0.11317253C0.046558708 0.18928187 0.00059359026 0.29508838 0 0.40597254L0 13.799573C0.00022568832 14.01878 0.17299491 14.198954 0.39199999 14.208372C3.1693251 13.812761 5.989078 14.550492 8.2167997 16.255573C8.4645433 16.358225 8.7345295 16.395416 9.0008001 16.363573" fill-rule="evenodd"/>
	<path fill="none" stroke="#ACAFCD" stroke-width="1.5" stroke-linecap="round" stroke-linejoin="round" transform="translate(11.9992 3.45)" d="M0.00079999998 2.6219726C2.5894809 1.035096 5.539341 0.13293166 8.5727997 0.00037253386C8.6842136 -0.0043705222 8.7927771 0.036340479 8.8736 0.11317253C8.9548454 0.18985523 9.0008001 0.29665378 9.0008001 0.40837252L9.0008001 13.799573C9.0005741 14.01878 8.8278055 14.198954 8.6087999 14.208372C5.8314748 13.812761 3.0117221 14.550492 0.78399998 16.255573C0.53625655 16.358225 0.26627091 16.395416 0 16.363573" fill-rule="evenodd"/>
	<path fill="none" stroke="#ACAFCD" stroke-width="1.5" stroke-linecap="round" stroke-linejoin="round" transform="translate(11.3379 6.07197)" d="M0.66206896 0L0.66206896 13.7496" fill-rule="evenodd"/>
	<path fill="none" stroke="#ACAFCD" stroke-width="1.5" stroke-linecap="round" stroke-linejoin="round" transform="translate(4.2 17.5824)" d="M0 0.0128L0 2.5936C-0.0003453251 2.717962 0.055936564 2.8357193 0.15292571 2.9135597C0.24991485 2.9914002 0.37706313 3.020858 0.49840158 2.9935999C2.9000089 2.4928246 5.3467398 2.2402968 7.8000016 2.24C10.10902 2.2387972 12.411244 2.4901586 14.665602 2.9895999C14.786862 3.0162208 14.913656 2.9865196 15.010478 2.908813C15.107301 2.8311067 15.163743 2.7137482 15.164001 2.5896001L15.164001 0" fill-rule="evenodd"/>
</svg>
