<?xml version="1.0" encoding="utf-8" ?>
<svg xmlns="http://www.w3.org/2000/svg" xmlns:xlink="http://www.w3.org/1999/xlink" width="24" height="24">
	<path fill="#4B7BE5" transform="translate(1 1.99998)" d="M11 5.6195126C12.656842 5.6195126 13.999978 6.9626484 13.999978 8.6194906C13.999978 9.9253626 13.165606 11.036358 12.000894 11.448445L12 19.227371C12 19.779655 11.552285 20.227371 11 20.227371C10.447715 20.227371 10 19.779655 10 19.227371L10.000096 11.448795C8.8348665 11.036986 8.0000219 9.9257326 8.0000219 8.6194906L8.0051155 8.4432192C8.0963612 6.8684235 9.4023314 5.6195126 11 5.6195126ZM18.123974 0.23804128C20.582876 2.3278501 22 5.3920498 22 8.6190462C22 11.846042 20.582876 14.910242 18.123974 17.00005C17.703144 17.357712 17.072054 17.306503 16.714394 16.885674C16.356733 16.464844 16.40794 15.833754 16.82877 15.476092C18.840559 13.766284 20 11.259262 20 8.6190462C20 5.9788299 18.840559 3.471808 16.82877 1.761999C16.40794 1.4043382 16.356733 0.77324748 16.714394 0.35241821C17.072054 -0.068411097 17.703144 -0.11961939 18.123974 0.23804128ZM5.2856069 0.35241821C5.6432676 0.77324748 5.5920591 1.4043382 5.1712298 1.761999C3.1594412 3.471808 2 5.9788299 2 8.6190462C2 11.259262 3.1594412 13.766284 5.1712298 15.476092C5.5920591 15.833754 5.6432676 16.464844 5.2856069 16.885674C4.9279461 17.306503 4.2968554 17.357712 3.8760262 17.00005C1.4171234 14.910242 0 11.846042 0 8.6190462C0 5.3920498 1.4171234 2.3278501 3.8760262 0.23804128C4.2968554 -0.11961939 4.9279461 -0.068411097 5.2856069 0.35241821ZM15.532821 3.2859471C17.097801 4.6157665 17.999765 6.5658145 17.999765 8.6194906C17.999765 10.673166 17.097801 12.623214 15.532821 13.953033C15.111959 14.310656 14.480873 14.259388 14.123251 13.838526C13.76563 13.417664 13.816896 12.786577 14.237759 12.428956C15.355541 11.479136 15.999764 10.086322 15.999764 8.6194906C15.999764 7.1526589 15.355541 5.7598438 14.237759 4.8100247C13.816896 4.4524031 13.76563 3.821317 14.123251 3.4004545C14.480873 2.9795923 15.111959 2.9283254 15.532821 3.2859471ZM7.876749 3.4004545C8.2343702 3.821317 8.1831036 4.4524031 7.7622414 4.8100247C6.6444592 5.7598438 6.0002351 7.1526589 6.0002351 8.6194906C6.0002351 10.086322 6.6444592 11.479136 7.7622414 12.428956C8.1831036 12.786577 8.2343702 13.417664 7.876749 13.838526C7.5191274 14.259388 6.8880415 14.310656 6.4671788 13.953033C4.9021983 12.623214 4.0002351 10.673166 4.0002351 8.6194906C4.0002351 6.5658145 4.9021983 4.6157665 6.4671788 3.2859471C6.8880415 2.9283254 7.5191274 2.9795923 7.876749 3.4004545ZM11 7.6195126C10.447727 7.6195126 10.000022 8.0672178 10.000022 8.6194906C10.000022 9.1717625 10.447727 9.6194677 11 9.6194677C11.552273 9.6194677 11.999978 9.1717625 11.999978 8.6194906C11.999978 8.0672178 11.552273 7.6195126 11 7.6195126Z"/>
</svg>
