<?xml version="1.0" encoding="utf-8" ?>
<svg xmlns="http://www.w3.org/2000/svg" xmlns:xlink="http://www.w3.org/1999/xlink" width="25" height="24">
	<path fill="none" stroke="#ACAFCD" stroke-width="1.5" stroke-linecap="round" stroke-linejoin="round" transform="translate(4.5 11.0901)" d="M3.4615433 0L3.4615433 8.0785284C3.4623413 8.3877411 3.3087668 8.6768856 3.0523095 8.8490133L3.0523095 8.8490133C2.2518735 9.382802 1.2096698 9.382802 0.40923372 8.8490133L0.40923372 8.8490133C0.15277645 8.6768856 -0.00079802208 8.3877411 0 8.0785284L0 0" fill-rule="evenodd"/>
	<path fill="none" stroke="#ACAFCD" stroke-width="1.5" stroke-linecap="round" stroke-linejoin="round" transform="translate(4.5 9.93436)" d="M0 1.1557266C0 1.7940167 0.77489144 2.3114531 1.7307686 2.3114531C2.6866455 2.3114531 3.4615371 1.7940167 3.4615371 1.1557266C3.4615371 0.51743639 2.6866455 0 1.7307686 0C0.77489144 0 0 0.51743639 0 1.1557266" fill-rule="evenodd"/>
	<path fill="none" stroke="#ACAFCD" stroke-width="1.5" stroke-linecap="round" stroke-linejoin="round" transform="translate(10.2692 7.62291)" d="M3.4615433 0L3.4615433 11.545709C3.4623413 11.85492 3.3087668 12.144065 3.0523095 12.316193L3.0523095 12.316193C2.2518735 12.849982 1.2096698 12.849982 0.40923372 12.316193L0.40923372 12.316193C0.15277645 12.144065 -0.00079802208 11.85492 0 11.545709L0 0" fill-rule="evenodd"/>
	<path fill="none" stroke="#ACAFCD" stroke-width="1.5" stroke-linecap="round" stroke-linejoin="round" transform="translate(10.2692 6.46718)" d="M0 1.1557266C0 1.7940167 0.77489144 2.3114531 1.7307686 2.3114531C2.6866455 2.3114531 3.4615371 1.7940167 3.4615371 1.1557266C3.4615371 0.51743639 2.6866455 0 1.7307686 0C0.77489144 0 0 0.51743639 0 1.1557266" fill-rule="evenodd"/>
	<path fill="none" stroke="#ACAFCD" stroke-width="1.5" stroke-linecap="round" stroke-linejoin="round" transform="translate(16.0385 4.15573)" d="M3.4615433 0L3.4615433 15.012888C3.4623413 15.322101 3.3087668 15.611245 3.0523095 15.783373L3.0523095 15.783373C2.2518735 16.317162 1.2096698 16.317162 0.40923372 15.783373L0.40923372 15.783373C0.15277645 15.611245 -0.00079802208 15.322101 0 15.012888L0 0" fill-rule="evenodd"/>
	<path fill="none" stroke="#ACAFCD" stroke-width="1.5" stroke-linecap="round" stroke-linejoin="round" transform="translate(16.0385 3)" d="M0 1.1557267C0 1.568628 0.32988259 1.9501646 0.86538422 2.1566153C1.4008859 2.363066 2.0606511 2.363066 2.5961528 2.1566153C3.1316545 1.9501646 3.4615371 1.568628 3.4615371 1.1557267C3.4615371 0.74282527 3.1316545 0.3612887 2.5961528 0.15483801C2.0606511 -0.051612668 1.4008859 -0.051612668 0.86538422 0.15483801C0.32988259 0.3612887 0 0.74282527 0 1.1557267" fill-rule="evenodd"/>
</svg>
