<?xml version="1.0" encoding="utf-8" ?>
<svg xmlns="http://www.w3.org/2000/svg" xmlns:xlink="http://www.w3.org/1999/xlink" width="24" height="24">
	<path d="M0 0L24 0L24 24L0 24L0 0Z"/>
	<path fill="white" transform="translate(1 6)" d="M15 12.666667L21 12.666667L21.075239 12.663878L21.200726 12.646426L21.312143 12.616929L21.423222 12.572993L21.520708 12.520671L21.617022 12.453739L21.70714 12.373755C21.7425 12.33838 21.774687 12.300992 21.803665 12.261973L21.875328 12.150729L21.928774 12.038003L21.964155 11.93266L21.993093 11.784762L22 11.666667L22 5.6666665C22 5.1143818 21.552284 4.6666665 21 4.6666665C20.447716 4.6666665 20 5.1143818 20 5.6666665L20 9.2526665L14.650444 3.9028976C14.212816 3.4649892 13.619098 3.2189512 13 3.2189512C12.380902 3.2189512 11.787184 3.4649892 11.349782 3.9026711L8.5691109 6.683342C8.5065928 6.7459006 8.4217758 6.7810488 8.333333 6.7810488C8.2448912 6.7810488 8.1600742 6.7459006 8.0973291 6.6831155L1.7071068 0.29289323C1.3165824 -0.097631074 0.6834175 -0.097631074 0.29289323 0.29289323C-0.097631074 0.6834175 -0.097631074 1.3165824 0.29289323 1.7071068L6.682889 8.0971022C7.1205168 8.5350103 7.7142358 8.7810488 8.333333 8.7810488C8.9524307 8.7810488 9.5461502 8.5350103 9.983551 8.0973291L12.764222 5.316658C12.82674 5.2540994 12.911557 5.2189512 13 5.2189512C13.088443 5.2189512 13.17326 5.2540994 13.236004 5.3168845L18.584 10.666667L15 10.666667C14.487164 10.666667 14.064493 11.052707 14.006728 11.550046L14 11.666667C14 12.218951 14.447715 12.666667 15 12.666667Z"/>
</svg>
