<?xml version="1.0" encoding="utf-8" ?>
<svg xmlns="http://www.w3.org/2000/svg" xmlns:xlink="http://www.w3.org/1999/xlink" width="24" height="24">
	<path fill="#4B7BE5" transform="translate(1 2)" d="M16.999836 0C17.552122 0 17.999836 0.44771525 17.999836 1C17.999836 1.5522847 17.552122 2 16.999836 2L2.3333197 2C2.1492324 2 2 2.1492324 2 2.3333197L2 3.9990001L12.333218 3.9999592C12.885503 3.9999592 13.333218 4.4476743 13.333218 4.999959C13.333218 5.5522437 12.885503 5.999959 12.333218 5.999959L2 5.9990001L2 16.999836C2 17.183924 2.1492324 17.333157 2.3333197 17.333157L18.333157 17.333157C18.517244 17.333157 18.666475 17.183924 18.666475 16.999836L18.666475 8.999918C18.666475 8.4476337 19.114191 7.9999185 19.666475 7.9999185C20.218761 7.9999185 20.666475 8.4476337 20.666475 8.999918L20.666475 16.999836C20.666475 18.288494 19.621813 19.333157 18.333157 19.333157L2.3333197 19.333157C1.0446628 19.333157 0 18.288494 0 16.999836L0 2.3333197C0 1.0446628 1.0446628 0 2.3333197 0L16.999836 0ZM13.666537 13.333198C14.218822 13.333198 14.666537 13.780912 14.666537 14.333198C14.666537 14.885482 14.218822 15.333198 13.666537 15.333198L4.999959 15.333198C4.4476743 15.333198 3.9999592 14.885482 3.9999592 14.333198C3.9999592 13.780912 4.4476743 13.333198 4.999959 13.333198L13.666537 13.333198ZM19.584255 1.3333446C20.159735 1.3333446 20.713963 1.5392677 21.107054 1.8719223L21.295019 2.045433C22.234993 2.9868898 22.234993 4.5117207 21.295019 5.4531775L16.207403 10.540794C16.067753 10.680445 15.889879 10.775617 15.696212 10.814308L13.195792 11.313859C12.496043 11.45366 11.87925 10.836614 12.019337 10.136921L12.519776 7.6373906C12.55852 7.4438763 12.653659 7.2661524 12.79321 7.1266012L17.879805 2.0400066C18.331648 1.5875705 18.944834 1.3333446 19.584255 1.3333446ZM8.999918 9.3332376C9.5522032 9.3332376 9.999918 9.7809534 9.999918 10.333238C9.999918 10.885523 9.5522032 11.333238 8.999918 11.333238L4.999959 11.333238C4.4476743 11.333238 3.9999592 10.885523 3.9999592 10.333238C3.9999592 9.7809534 4.4476743 9.3332376 4.999959 9.3332376L8.999918 9.3332376ZM19.584255 3.3333447C19.475721 3.3333447 19.371641 3.3764961 19.294483 3.4537556L14.420877 8.3263445L14.273877 9.0583448L15.007877 8.9113445L19.880249 4.0395217C20.040102 3.879415 20.040102 3.6191955 19.936563 3.5112388L19.873562 3.4532912C19.796869 3.3764961 19.692789 3.3333447 19.584255 3.3333447Z"/>
</svg>
