<?xml version="1.0" encoding="utf-8" ?>
<svg xmlns="http://www.w3.org/2000/svg" xmlns:xlink="http://www.w3.org/1999/xlink" width="16" height="16">
	<path d="M0 0L16 0L16 16L0 16L0 0Z"/>
	<path fill="white" transform="translate(0.25 2.25)" d="M13.75 0C13.977571 0 14.267833 0.046562746 14.575234 0.19450012C15.136582 0.46464887 15.5 0.9893325 15.5 1.7125L15.5 9.4125004C15.5 9.6424084 15.449636 9.933259 15.290554 10.239492C15.008415 10.78261 14.47482 11.125 13.75 11.125L1.75 11.125C1.5224289 11.125 1.2321676 11.078437 0.92476529 10.9305C0.36341724 10.660351 0 10.135668 0 9.4125004L0 1.7125C0 1.4825914 0.050363723 1.1917409 0.20944594 0.88550764C0.49158511 0.34238976 1.0251795 0 1.75 0L13.75 0ZM14 2.4230001L9.540966 5.7250743C8.4830875 6.508359 7.0169125 6.508359 5.9590797 5.7251081L1.5 2.424L1.5 9.4125004C1.5 9.5315199 1.5115827 9.5482426 1.5752348 9.5788755C1.6428324 9.6114063 1.7275711 9.625 1.75 9.625L13.75 9.625C13.90018 9.625 13.929085 9.606452 13.959446 9.548008C13.987864 9.4933033 14 9.4232168 14 9.4125004L14 2.4230001ZM12.726 1.5L2.773 1.5L6.8516331 4.5195589C7.3792162 4.9101973 8.1207838 4.9101973 8.6484127 4.5195251L12.726 1.5Z"/>
</svg>
