<?xml version="1.0" encoding="utf-8" ?>
<svg xmlns="http://www.w3.org/2000/svg" xmlns:xlink="http://www.w3.org/1999/xlink" width="24" height="24">
	<path d="M0 0L24 0L24 24L0 24L0 0Z"/>
	<path fill="white" transform="translate(2 3)" d="M1.6010401 0L18.400883 0C18.843422 0.00082651933 19.265909 0.184664 19.56815 0.50791621C19.870392 0.83116841 20.025461 1.2650403 19.996588 1.7066371C19.694689 5.910233 16.811579 9.4389172 12.831126 10.609057L12.802002 10.617L12.802333 15.747062C12.802704 16.170248 12.63551 16.574036 12.341969 16.871546L12.226048 16.977961L9.8206549 18.982454C9.3433752 19.379995 8.6792479 19.465651 8.1167183 19.202223C7.5541887 18.938795 7.1947522 18.37381 7.1945195 17.752279L7.1940022 10.616L7.1656094 10.608675C3.2771156 9.4638329 0.4367792 6.0679235 0.028114749 1.9934058L0.0035660621 1.7080559C-0.025974641 1.2659317 0.12900817 0.83133161 0.4316383 0.50766301C0.73433572 0.18392244 1.1577212 0 1.6010401 0ZM17.957003 2L2.0420022 2L2.053133 2.0902472C2.5018287 5.356688 4.9141417 8.0300837 8.1385021 8.7986822L8.3947229 8.8553801C8.860218 8.9504995 9.194519 9.3600197 9.194519 9.8351345L9.1940022 16.9L10.802002 15.56L10.802333 9.8351345C10.802333 9.3994627 11.083428 9.0189667 11.488982 8.8854418L11.602556 8.8552923C14.955967 8.1715765 17.486191 5.4435849 17.946903 2.0903704L17.957003 2Z"/>
</svg>
