<?xml version="1.0" encoding="utf-8" ?>
<svg xmlns="http://www.w3.org/2000/svg" xmlns:xlink="http://www.w3.org/1999/xlink" width="24" height="24">
	<path d="M0 0L24 0L24 24L0 24L0 0Z"/>
	<path fill="white" transform="translate(1 3.00003)" d="M11.007559 0C17.026972 0.045500696 21.88866 4.8843837 21.998142 10.860735L21.999716 12.999621C21.999716 14.288264 20.955065 15.332915 19.66642 15.332915L2.3335938 15.332915C1.0449508 15.332915 0.00029941168 14.288264 0.00029941168 12.999621L0.0003290819 11.161156C-0.022301883 8.2233839 1.1231304 5.3969688 3.1845994 3.3037994C5.163609 1.2943571 7.8311815 0.11872271 10.640571 0.0082452549L11.007559 0ZM11 1.9989715L10.694203 2.0077176C8.4012871 2.1042178 6.2253499 3.0665462 4.6095624 4.7071815C2.9203289 6.4223914 1.9817252 8.7384462 2.0002995 11.153453L2.0002995 12.999621C2.0002995 13.183695 2.1495204 13.332915 2.3335938 13.332915L7.3484325 13.332201C7.4946847 11.712904 8.6937304 10.397318 10.255752 10.075262L12.051266 4.6862936C12.225913 4.1623502 12.792233 3.8791902 13.316176 4.0538378C13.84012 4.2284856 14.12328 4.7948055 13.948632 5.318749L12.307747 10.239761C13.587689 10.728543 14.523481 11.913871 14.651582 13.332201L19.66642 13.332915C19.850494 13.332915 19.999716 13.183695 19.999716 12.999621L19.999743 11.143348C20.036362 6.2207928 16.147219 2.1843169 11.25999 2.0058343L11 1.9989715ZM10.971522 12.002204L11.000008 11.99968C10.194143 11.99968 9.5218697 12.571646 9.3669968 13.331768L12.633018 13.331768C12.480684 12.584108 11.827776 12.018484 11.039534 12.000139L10.971522 12.002204ZM17.333157 12.002346C16.596781 12.002346 15.999832 11.405396 15.999832 10.669023C15.999832 9.9326477 16.596781 9.3356991 17.333157 9.3356991C18.06953 9.3356991 18.666479 9.9326477 18.666479 10.669023C18.666479 11.362081 18.137693 11.931634 17.461563 11.996243L17.333157 12.002346ZM4.6668591 9.3330326C5.4032331 9.3330326 6.0001826 9.9299812 6.0001826 10.666356C6.0001826 11.359414 5.4713969 11.928967 4.7952671 11.993576L4.6668591 11.99968C3.9304848 11.99968 3.3335354 11.40273 3.3335354 10.666356C3.3335354 9.9299812 3.9304848 9.3330326 4.6668591 9.3330326ZM6.0001535 6.0024629C6.7365279 6.0024629 7.333477 6.599412 7.333477 7.3357863C7.333477 8.0288448 6.8046913 8.5983982 6.1285615 8.6630068L6.0001535 8.6691103C5.2637792 8.6691103 4.6668296 8.0721607 4.6668296 7.3357863C4.6668296 6.599412 5.2637792 6.0024629 6.0001535 6.0024629ZM15.999862 5.9997964C16.736237 5.9997964 17.333185 6.5967455 17.333185 7.3331199C17.333185 8.0261784 16.804399 8.5957317 16.128269 8.6603403L15.999862 8.6664438C15.263487 8.6664438 14.666537 8.0694942 14.666537 7.3331199C14.666537 6.5967455 15.263487 5.9997964 15.999862 5.9997964ZM8.6667423 3.3358741C9.4031162 3.3358741 10.000066 3.9328234 10.000066 4.6691976C10.000066 5.3622556 9.4712801 5.9318094 8.7951498 5.9964175L8.6667423 6.002521C7.9303679 6.002521 7.3334184 5.4055719 7.3334184 4.6691976C7.3334184 3.9328234 7.9303679 3.3358741 8.6667423 3.3358741Z"/>
</svg>
