<?xml version="1.0" encoding="utf-8" ?>
<svg xmlns="http://www.w3.org/2000/svg" xmlns:xlink="http://www.w3.org/1999/xlink" width="32" height="32">
	<path d="M0 0L32 0L32 32L0 32L0 0Z"/>
	<path fill="white" transform="translate(3 1.80519)" d="M23 2.1948054C23 4.2943282 21.897654 6.230639 20.240974 7.5955558L23.4 7.5948052C24.835939 7.5948052 26 8.7588654 26 10.194805L26 12.594806C26 13.521263 25.30007 14.284244 24.400154 14.383802L24.4 24.594805C24.4 26.030746 23.235941 27.194805 21.799999 27.194805L4.1999998 27.194805C2.7640595 27.194805 1.6 26.030746 1.6 24.594805L1.5988396 14.383691C0.69940829 14.283675 0 13.520918 0 12.594806L0 10.194805C0 8.7588654 1.1640596 7.5948052 2.5999999 7.5948052L5.7590261 7.5955558C4.1023459 6.230639 3 4.2943282 3 2.1948054C3 0.28407824 4.4062972 -0.39561296 6.1376872 0.22069168C7.2913322 0.63134253 8.7280245 1.6102029 10.081993 2.8514385C11.41059 4.0694151 12.49606 5.3908896 13.000807 6.4678988L12.984533 6.4994659C13.482705 5.416779 14.576401 4.0813417 15.918007 2.8514385C17.271976 1.6102029 18.708668 0.63134253 19.862312 0.22069168C21.593702 -0.39561296 23 0.28407824 23 2.1948054ZM12 14.394L3.5999999 14.394805L3.5999999 24.594805C3.5999999 24.89304 3.8175895 25.140451 4.1026769 25.186953L4.1999998 25.194805L12 25.194L12 14.394ZM22.4 14.394805L14 14.394L14 25.194L21.799999 25.194805C22.131371 25.194805 22.4 24.926176 22.4 24.594805L22.4 14.394805ZM12 9.5939999L2.5999999 9.5948057C2.2686291 9.5948057 2 9.8634348 2 10.194805L2 12.394805L12 12.394L12 9.5939999ZM23.4 9.5948057L14 9.5939999L14 12.394L24 12.394805L24 10.194805C24 9.8965712 23.78241 9.6491585 23.497324 9.6026583L23.4 9.5948057ZM5 2.1948054C5 5.0088401 8.0325403 7.5948052 11.2 7.5948052C11.232403 7.5948052 11.262272 7.5941038 11.289607 7.5928512L11.303 7.590981C11.285347 7.5421162 11.265927 7.4908895 11.24078 7.4312167L11.198572 7.335465C10.831023 6.5366645 9.8933573 5.3917432 8.7304859 4.3256936C7.5563703 3.2493367 6.3247809 2.4102187 5.4669924 2.1048808C4.9040556 1.9044981 5 1.8581262 5 2.1948054ZM20.533009 2.1048808C19.675219 2.4102187 18.44363 3.2493367 17.269514 4.3256936C16.106644 5.3917432 15.168977 6.5366645 14.801428 7.335465C14.754541 7.4373655 14.722265 7.5210986 14.69943 7.5841517L14.710393 7.5928512L14.8 7.5948052C17.967461 7.5948052 21 5.0088401 21 2.1948054C21 1.8581262 21.095945 1.9044981 20.533009 2.1048808Z"/>
</svg>
