<?xml version="1.0" encoding="utf-8" ?>
<svg xmlns="http://www.w3.org/2000/svg" xmlns:xlink="http://www.w3.org/1999/xlink" width="16" height="16">
	<path fill="#DBDEEA" transform="translate(0 4)" d="M0.75 0L15.25 0C15.664213 0 16 0.33578643 16 0.75C16 1.1642135 15.664213 1.5 15.25 1.5L0.75 1.5C0.33578643 1.5 0 1.1642135 0 0.75C0 0.37030423 0.28215387 0.05650904 0.64822942 0.006846616L0.75 0ZM0.75 6.5L15.25 6.5C15.664213 6.5 16 6.8357863 16 7.25C16 7.6642137 15.664213 8 15.25 8L0.75 8C0.33578643 8 0 7.6642137 0 7.25C0 6.8703041 0.28215387 6.556509 0.64822942 6.5068464L0.75 6.5Z" fill-rule="evenodd"/>
</svg>
