<?xml version="1.0" encoding="utf-8" ?>
<svg xmlns="http://www.w3.org/2000/svg" xmlns:xlink="http://www.w3.org/1999/xlink" width="24" height="24">
	<path fill="#4B7BE5" transform="translate(0.49826 3.5)" d="M17.10174 0C17.428053 0 17.733843 0.15921098 17.920971 0.42653766L22.820972 7.4265375L22.857327 7.4820743L22.911741 7.5848069C22.96397 7.6966887 22.992765 7.8122716 23.00099 7.9270382L23.00174 13.6C23.00174 14.925484 21.927223 16 20.60174 16L2.4017398 16C1.0762565 16 0.0017399355 14.925484 0.0017399355 13.6L0.0010168707 8.0413647C-0.00434059 7.9235535 0.011354918 7.8032498 0.050873373 7.6857734L0.10338109 7.5602255L0.18250802 7.4265375L5.0825081 0.42653766C5.2696366 0.15921098 5.5754261 0 5.9017401 0L17.10174 0ZM21.000999 9L2.0009999 9L2.00174 13.6C2.00174 13.7933 2.1388528 13.954575 2.321126 13.991874L2.4017398 14L20.60174 14C20.822655 14 21.00174 13.820914 21.00174 13.6L21.000999 9ZM18.50174 10.4C19.109253 10.4 19.60174 10.892487 19.60174 11.5C19.60174 12.067013 19.172729 12.533824 18.621597 12.593545L18.50174 12.6C17.894226 12.6 17.401739 12.107513 17.401739 11.5C17.401739 10.892487 17.894226 10.4 18.50174 10.4ZM14.75174 12.6C14.144227 12.6 13.65174 12.107513 13.65174 11.5C13.65174 10.892487 14.144227 10.4 14.75174 10.4C15.359253 10.4 15.85174 10.892487 15.85174 11.5C15.85174 12.067013 15.422729 12.533824 14.871597 12.593545L14.75174 12.6ZM6.6017399 10.5C7.1540246 10.5 7.6017399 10.947715 7.6017399 11.5C7.6017399 12.052285 7.1540246 12.5 6.6017399 12.5L3.8017399 12.5C3.2494552 12.5 2.8017399 12.052285 2.8017399 11.5C2.8017399 10.947715 3.2494552 10.5 3.8017399 10.5L6.6017399 10.5ZM16.58074 2L6.4217401 2L2.9219999 6.9990001L20.079 6.9990001L16.58074 2Z"/>
</svg>
