<?xml version="1.0" encoding="utf-8" ?>
<svg xmlns="http://www.w3.org/2000/svg" xmlns:xlink="http://www.w3.org/1999/xlink" width="24" height="24">
	<path fill="#4B7BE5" transform="translate(1 1)" d="M13 0C14.656855 0 16 1.3431457 16 3L16 6L19 6C20.597681 6 21.903662 7.24892 21.994907 8.8237276L22 9L22 13C22 14.656855 20.656855 16 19 16L16 16L16 19C16 20.597681 14.75108 21.903662 13.176272 21.994907L13 22L9 22C7.3431458 22 6 20.656855 6 19L6 16L3 16C1.4023191 16 0.096339121 14.75108 0.0050926935 13.176272L0 13L0 9C0 7.3431458 1.3431457 6 3 6L6 6L6 3C6 1.4023191 7.24892 0.096339121 8.8237276 0.0050926935L9 0L13 0ZM13 2L9 2C8.4477148 2 8 2.4477153 8 3L8 7C8 7.5522847 7.5522847 8 7 8L3 8C2.4477153 8 2 8.4477148 2 9L2 13C2 13.552285 2.4477153 14 3 14L7 14C7.5522847 14 8 14.447715 8 15L8 19C8 19.552284 8.4477148 20 9 20L13 20C13.552285 20 14 19.552284 14 19L14 15C14 14.447715 14.447715 14 15 14L19 14C19.552284 14 20 13.552285 20 13L20 9C20 8.4477148 19.552284 8 19 8L15 8C14.447715 8 14 7.5522847 14 7L14 3C14 2.4477153 13.552285 2 13 2Z"/>
</svg>
