<?xml version="1.0" encoding="utf-8" ?>
<svg xmlns="http://www.w3.org/2000/svg" xmlns:xlink="http://www.w3.org/1999/xlink" width="24" height="24">
	<path d="M0 0L24 0L24 24L0 24L0 0Z"/>
	<path fill="white" transform="translate(2 2)" d="M2.8 0C4.3463974 0 5.5999999 1.2536027 5.5999999 2.8C5.5999999 4.3463974 4.3463974 5.5999999 2.8 5.5999999C1.2536027 5.5999999 0 4.3463974 0 2.8L0.005110045 2.6294317C0.0932611 1.1624628 1.3108767 0 2.8 0ZM2.8 2C2.3581722 2 2 2.3581722 2 2.8C2 3.2418277 2.3581722 3.5999999 2.8 3.5999999C3.2418277 3.5999999 3.5999999 3.2418277 3.5999999 2.8C3.5999999 2.3581722 3.2418277 2 2.8 2ZM2.8 7.1999998C4.3463974 7.1999998 5.5999999 8.4536028 5.5999999 10C5.5999999 11.546397 4.3463974 12.8 2.8 12.8C1.2536027 12.8 0 11.546397 0 10L0.005110045 9.8294315C0.0932611 8.362463 1.3108767 7.1999998 2.8 7.1999998ZM2.8 9.1999998C2.3581722 9.1999998 2 9.5581722 2 10C2 10.441828 2.3581722 10.8 2.8 10.8C3.2418277 10.8 3.5999999 10.441828 3.5999999 10C3.5999999 9.5581722 3.2418277 9.1999998 2.8 9.1999998ZM2.8 14.4C4.3463974 14.4 5.5999999 15.653603 5.5999999 17.200001C5.5999999 18.746397 4.3463974 20 2.8 20C1.2536027 20 0 18.746397 0 17.200001L0.005110045 17.029432C0.0932611 15.562463 1.3108767 14.4 2.8 14.4ZM2.8 16.4C2.3581722 16.4 2 16.758173 2 17.200001C2 17.641829 2.3581722 18 2.8 18C3.2418277 18 3.5999999 17.641829 3.5999999 17.200001C3.5999999 16.758173 3.2418277 16.4 2.8 16.4ZM19 1.8C19.552284 1.8 20 2.2477152 20 2.8C20 3.3522847 19.552284 3.8 19 3.8L7 3.8C6.4477153 3.8 6 3.3522847 6 2.8C6 2.2477152 6.4477153 1.8 7 1.8L19 1.8ZM19 9C19.552284 9 20 9.4477148 20 10C20 10.552285 19.552284 11 19 11L7 11C6.4477153 11 6 10.552285 6 10C6 9.4477148 6.4477153 9 7 9L19 9ZM19 16.200001C19.552284 16.200001 20 16.647715 20 17.200001C20 17.752285 19.552284 18.200001 19 18.200001L7 18.200001C6.4477153 18.200001 6 17.752285 6 17.200001C6 16.647715 6.4477153 16.200001 7 16.200001L19 16.200001Z"/>
</svg>
