<?xml version="1.0" encoding="utf-8" ?>
<svg xmlns="http://www.w3.org/2000/svg" xmlns:xlink="http://www.w3.org/1999/xlink" width="32" height="32">
	<path d="M0 0L32 0L32 32L0 32L0 0Z"/>
	<path fill="white" transform="translate(1 3.99832)" d="M25.405766 1.0016814L25.405766 20.806559C25.405766 21.605255 24.515619 22.081646 23.851065 21.638609L22.490015 20.731243C18.555607 18.108891 13.98151 16.623524 9.270998 16.427511C9.4997435 18.156 10.313359 19.766388 11.591622 20.982195C11.9918 21.36282 12.007651 21.995787 11.627026 22.395964C11.246401 22.796143 10.613434 22.811995 10.213256 22.431368C8.5320063 20.832266 7.4886336 18.691473 7.252871 16.405043L5.5011086 16.40523C2.4629302 16.40523 0 13.942299 0 10.90412C0 7.865942 2.4629302 5.4030118 5.5011086 5.4030118L8.2016888 5.4030118C13.287004 5.4025793 18.258486 3.8973856 22.489929 1.0770546L23.851065 0.16963112C24.515619 -0.27340537 25.405766 0.20298603 25.405766 1.0016814ZM23.404774 2.8666813L23.140614 3.0404112C18.989462 5.690546 14.210645 7.1871686 9.296031 7.3813581L9.2017736 7.3836813L9.2017736 14.423681L9.296031 14.426883C14.210646 14.621073 18.989468 16.117699 23.14069 18.767881L23.404774 18.940681L23.404774 2.8666813ZM7.2010002 7.4030118L5.5011086 7.4030118C3.6319535 7.4030118 2.1049068 8.867753 2.0051806 10.712025L2 10.90412C2 12.837729 3.5674996 14.405229 5.5011086 14.405229L7.2010002 14.405012L7.2010002 7.4030118ZM28.006653 8.1036768C28.558937 8.1036768 29.006653 8.5513926 29.006653 9.1036768L29.006653 12.704564C29.006653 13.256848 28.558937 13.704564 28.006653 13.704564C27.454367 13.704564 27.006653 13.256848 27.006653 12.704564L27.006653 9.1036768C27.006653 8.5513926 27.454367 8.1036768 28.006653 8.1036768Z"/>
</svg>
