<?xml version="1.0" encoding="utf-8" ?>
<svg xmlns="http://www.w3.org/2000/svg" xmlns:xlink="http://www.w3.org/1999/xlink" width="24" height="24">
	<path fill="#4B7BE5" transform="translate(5 1)" d="M10.333333 0C10.808054 0 11.450075 0.10700352 12.11388 0.43890613C13.274793 1.0193621 14 2.1071737 14 3.6666667L14 18.333334C14 18.808054 13.892997 19.450075 13.561094 20.11388C12.980638 21.274792 11.892826 22 10.333333 22L3.6666667 22C3.191946 22 2.5499251 21.892996 1.8861197 21.561094C0.72520775 20.980639 0 19.892826 0 18.333334L0 3.6666667C0 3.191946 0.10700352 2.5499251 0.43890613 1.8861197C1.0193621 0.72520775 2.1071737 0 3.6666667 0L10.333333 0ZM12 17.111L2 17.111L2 18.333334C2 19.107174 2.2747922 19.519361 2.7805469 19.77224C3.1167417 19.940336 3.4747205 20 3.6666667 20L10.333333 20C11.107174 20 11.519362 19.725208 11.77224 19.219454C11.940337 18.883259 12 18.52528 12 18.333334L12 17.111ZM10.333333 2L3.6666667 2L3.4944158 2.004858C2.8303554 2.0436423 2.4611857 2.3136964 2.2277606 2.7805469C2.0596631 3.1167417 2 3.4747205 2 3.6666667L2 15.111L12 15.111L12 3.6666667C12 2.8928263 11.725207 2.4806378 11.219453 2.2277606C10.883258 2.0596631 10.525279 2 10.333333 2Z"/>
</svg>
