<?xml version="1.0" encoding="utf-8" ?>
<svg xmlns="http://www.w3.org/2000/svg" xmlns:xlink="http://www.w3.org/1999/xlink" width="26" height="24">
	<path transform="translate(0.100098 0)" d="M0 0L24 0L24 24L0 24L0 0Z"/>
	<path fill="white" transform="translate(0.0998716 2)" d="M1.2298342 10.970006L23.229834 16.160049C23.767365 16.28686 24.100319 16.825413 23.973509 17.362942C23.846701 17.900471 23.308147 18.233425 22.770618 18.106617L14.202 16.084999L15.714428 17.975306C16.238239 18.630068 15.772065 19.6 14.933559 19.6L9.0668926 19.6C8.2283859 19.6 7.7622132 18.630068 8.2860241 17.975306L10.497 15.211L0.77061754 12.916572C0.23308814 12.789762 -0.099866427 12.25121 0.026942739 11.71368C0.15375189 11.176151 0.69230473 10.843197 1.2298342 10.970006ZM11.999892 16.533333L11.146893 17.599333L12.851892 17.599333L11.999892 16.533333ZM17.133558 0C20.925915 0 24.000225 3.0743115 24.000225 6.8666668C24.000225 10.659022 20.925915 13.733334 17.133558 13.733334C13.341204 13.733334 10.266892 10.659022 10.266892 6.8666668L10.270874 6.6306009C10.395301 2.9475493 13.420211 0 17.133558 0ZM17.133558 2C14.445773 2 12.266892 4.1788807 12.266892 6.8666668C12.266892 9.5544529 14.445773 11.733334 17.133558 11.733334C19.821344 11.733334 22.000225 9.5544529 22.000225 6.8666668C22.000225 4.1788807 19.821344 2 17.133558 2ZM17.133558 2.2C17.593431 2.2 17.980801 2.5104201 18.097561 2.9331529L18.600225 2.9333334C19.15251 2.9333334 19.600225 3.3810487 19.600225 3.9333334C19.600225 4.4856181 19.15251 4.9333334 18.600225 4.9333334L16.613102 4.9333334C16.463615 4.9334373 16.335182 5.0394998 16.306814 5.1862712C16.278448 5.3330426 16.358109 5.4793243 16.494673 5.5342746L18.513067 6.3410454C19.54262 6.752902 20.134823 7.8376813 19.924479 8.926424C19.743702 9.8621254 19.013891 10.574302 18.109112 10.755216C18.008183 11.200507 17.609739 11.533334 17.133558 11.533334C16.674053 11.533334 16.286934 11.223406 16.169836 10.801188L15.666892 10.800002C15.114608 10.800002 14.666892 10.352285 14.666892 9.8000011C14.666892 9.247716 15.114608 8.8000011 15.666892 8.8000011L17.653917 8.8000011C17.803633 8.8001747 17.932392 8.6940365 17.960791 8.5470409C17.989191 8.4000444 17.909235 8.253583 17.770491 8.198081L15.750238 7.3905644C14.72307 6.9772744 14.133051 5.8938246 14.343155 4.8067465C14.523791 3.8721333 15.252259 3.1603904 16.157108 2.978637C16.25835 2.5333145 16.65703 2.2 17.133558 2.2Z"/>
</svg>
