<?xml version="1.0" encoding="utf-8" ?>
<svg xmlns="http://www.w3.org/2000/svg" xmlns:xlink="http://www.w3.org/1999/xlink" width="24" height="24">
	<path d="M0 0L24 0L24 24L0 24L0 0Z"/>
	<path fill="white" transform="translate(2 1)" d="M10.000004 13.2C11.877772 13.2 13.400003 14.722232 13.400003 16.6C13.400003 18.477768 11.877772 20 10.000004 20C8.1222353 20 6.6000037 18.477768 6.6000037 16.6L6.6050348 16.413452C6.7018809 14.622441 8.1848278 13.2 10.000004 13.2ZM19.707111 0.29289323C20.097635 0.6834175 20.097635 1.3165824 19.707111 1.7071068L16.970444 4.4430785C17.178566 4.4263921 17.393648 4.4744973 17.583742 4.5946031C18.332279 5.067544 19.034845 5.6095972 19.682222 6.2136521C20.086025 6.5904317 20.107931 7.2232175 19.731152 7.6270194C19.354372 8.0308208 18.721586 8.0527267 18.317785 7.6759477C17.761772 7.1571436 17.15836 6.6915908 16.515465 6.2853971C16.190979 6.08038 16.024696 5.7195272 16.052469 5.3617411L1.7071105 19.707108C1.3165863 20.097631 0.68342125 20.097631 0.29289696 19.707108C-0.097627334 19.316582 -0.097627334 18.683418 0.29289696 18.292892L18.292896 0.29289323C18.683422 -0.097631074 19.316586 -0.097631074 19.707111 0.29289323ZM10.000004 15.2C9.2268047 15.2 8.6000042 15.826801 8.6000042 16.6C8.6000042 17.373199 9.2268047 18 10.000004 18C10.773202 18 11.400003 17.373199 11.400003 16.6C11.400003 15.826801 10.773202 15.2 10.000004 15.2ZM12.843455 10.206061C13.627487 10.554225 14.34064 11.043904 14.94718 11.650562C15.337666 12.041124 15.337604 12.67429 14.947042 13.064775C14.556479 13.455262 13.923314 13.4552 13.532828 13.064638C13.100042 12.631767 12.591185 12.282366 12.031752 12.033939C11.526998 11.809793 11.29952 11.218903 11.523664 10.714149C11.74781 10.209394 12.338701 9.9819155 12.843455 10.206061ZM10.398946 6.9574776C10.432593 7.5087361 10.012985 7.9828959 9.4617262 8.0165424C7.370729 8.1441689 5.3991246 9.0341434 3.9202905 10.517925C3.5304189 10.909101 2.8972547 10.910158 2.5060787 10.520287C2.114903 10.130415 2.1138456 9.4972506 2.5037169 9.1060753C4.328073 7.2756157 6.7603331 6.1777029 9.3398809 6.0202575C9.89114 5.9866109 10.365299 6.4062185 10.398946 6.9574776ZM15.26108 7.3954935C16.07851 7.8637676 16.829956 8.4387875 17.495615 9.1053982C17.88586 9.4962015 17.885408 10.129366 17.494606 10.519611C17.103802 10.909857 16.470638 10.909405 16.080393 10.518601C15.540168 9.9776058 14.930323 9.5109406 14.266927 9.1309071C13.787706 8.8563786 13.621769 8.2453451 13.896297 7.7661233C14.170825 7.2869024 14.781859 7.1209655 15.26108 7.3954935ZM12.54092 2.6290085C13.084253 2.7280421 13.444428 3.2487831 13.345395 3.7921162C13.246362 4.3354492 12.72562 4.6956253 12.182287 4.5965915C8.3923025 3.9057887 4.4988456 5.047617 1.6822503 7.6759224C1.2784625 8.0527163 0.64567584 8.0308342 0.2688815 7.6270466C-0.10791283 7.223259 -0.086030416 6.5904722 0.31775725 6.2136779C3.5965745 3.1540504 8.128973 1.8248404 12.54092 2.6290085Z"/>
</svg>
