<?xml version="1.0" encoding="utf-8" ?>
<svg xmlns="http://www.w3.org/2000/svg" xmlns:xlink="http://www.w3.org/1999/xlink" width="32" height="32">
	<path d="M0 0L32 0L32 32L0 32L0 0Z"/>
	<path fill="white" transform="translate(1 1)" d="M15 0C17.614147 0 19.733334 2.1191854 19.733334 4.7333331C19.733334 7.0471501 18.073109 8.9732008 15.878931 9.3852167C19.625164 9.8191795 22.533333 13.003304 22.533333 16.866667L22.533333 19.666666C22.533333 20.218952 22.085619 20.666666 21.533333 20.666666L19.637667 20.666334L18.795036 29.099504C18.747849 29.571383 18.377687 29.939386 17.916941 29.993212L17.799999 30L12.2 30C11.686249 30 11.256083 29.610706 11.204963 29.099504L10.360666 20.666334L8.4666662 20.666666C7.9538307 20.666666 7.5311594 20.280626 7.4733944 19.783287L7.4666667 19.666666L7.4666667 16.866667C7.4666667 13.003304 10.374836 9.8191795 14.121454 9.384016C11.92689 8.9732008 10.266666 7.0471501 10.266666 4.7333331L10.271538 4.5166683C10.384781 2.0030882 12.458467 0 15 0ZM5.6666665 3.7333333C7.7653489 3.7333333 9.4666662 5.4346514 9.4666662 7.5333333C9.4666662 9.4804821 8.0021629 11.085578 6.1145601 11.307215C6.4420319 11.470063 6.6666665 11.808798 6.6666665 12.2C6.6666665 12.752285 6.2189512 13.2 5.6666665 13.2C3.6416225 13.2 2 14.841622 2 16.866667L2 18.666L2.8666666 18.666666C3.3321958 18.666666 3.7304776 18.98665 3.8381972 19.42948L3.8589447 19.542631L4.6820002 26.132999L7.5333333 26.133333C8.0461693 26.133333 8.4688406 26.519373 8.5266056 27.016712L8.5333338 27.133333C8.5333338 27.685617 8.085618 28.133333 7.5333333 28.133333L3.8 28.133333C3.2956767 28.133333 2.8702757 27.757797 2.8077221 27.257368L1.983 20.666L1 20.666666C0.48716417 20.666666 0.064492837 20.280626 0.0067277313 19.783287L0 19.666666L0 16.866667C0 14.0008 2.1274533 11.631827 4.889215 11.252892C3.163682 10.895251 1.8666667 9.3657589 1.8666667 7.5333333L1.8716112 7.3377857C1.9733871 5.3299804 3.6335685 3.7333333 5.6666665 3.7333333ZM26.233334 4.2424369C27.409058 4.9212413 28.133333 6.175724 28.133333 7.5333333C28.133333 8.8909426 27.409058 10.145425 26.233334 10.82423C25.877565 11.029633 25.496817 11.172881 25.106205 11.253977C27.870487 11.629535 30 13.999413 30 16.866667L30 19.666666C30 20.218952 29.552284 20.666666 29 20.666666L28.015667 20.666L27.192278 27.257368C27.134537 27.719303 26.767622 28.07482 26.314852 28.126781L26.200001 28.133333L22.466667 28.133333C21.914381 28.133333 21.466667 27.685617 21.466667 27.133333C21.466667 26.581049 21.914381 26.133333 22.466667 26.133333L25.316668 26.132999L26.141056 19.542631C26.198797 19.080698 26.56571 18.72518 27.018482 18.67322L27.133333 18.666666L27.999666 18.666L28 16.866667C28 14.906946 26.46258 13.30631 24.528067 13.205083L24.333334 13.2C23.781048 13.2 23.333334 12.752285 23.333334 12.2C23.333334 11.808388 23.558441 11.469352 23.886316 11.305229C23.382128 11.247286 22.887384 11.086377 22.433332 10.82423C21.257608 10.145425 20.533333 8.8909426 20.533333 7.5333333L20.539993 7.3081012C20.615202 6.0381141 21.322927 4.8835301 22.433332 4.2424369C23.609056 3.563632 25.05761 3.563632 26.233334 4.2424369ZM15 11.333333C11.944024 11.333333 9.4666662 13.810691 9.4666662 16.866667L9.4666662 18.666334L11.266666 18.666666C11.740899 18.666666 12.143909 18.998373 12.243313 19.451479L12.261703 19.567163L13.104667 27.999334L16.894667 27.999334L17.738297 19.567163C17.785484 19.095284 18.155645 18.72728 18.616394 18.673456L18.733334 18.666666L20.532667 18.666334L20.533333 16.866667C20.533333 13.883452 18.172541 11.451631 15.217275 11.337521L15 11.333333ZM5.6666665 5.7333331C4.672554 5.7333331 3.8666666 6.5392208 3.8666666 7.5333333C3.8666666 8.5274458 4.672554 9.333333 5.6666665 9.333333C6.660779 9.333333 7.4666667 8.5274458 7.4666667 7.5333333C7.4666667 6.5392208 6.660779 5.7333331 5.6666665 5.7333331ZM23.433332 5.9744873C22.876411 6.2960267 22.533333 6.8902555 22.533333 7.5333333C22.533333 8.1764116 22.876411 8.7706404 23.433332 9.0921793C23.990255 9.4137182 24.676411 9.4137182 25.233334 9.0921793C25.790255 8.7706404 26.133333 8.1764116 26.133333 7.5333333C26.133333 6.8902555 25.790255 6.2960267 25.233334 5.9744873C24.676411 5.6529484 23.990255 5.6529484 23.433332 5.9744873ZM15 2C13.490421 2 12.266666 3.2237551 12.266666 4.7333331C12.266666 6.2429118 13.490421 7.4666667 15 7.4666667C16.509579 7.4666667 17.733334 6.2429118 17.733334 4.7333331C17.733334 3.2237551 16.509579 2 15 2Z"/>
</svg>
