<?xml version="1.0" encoding="utf-8" ?>
<svg xmlns="http://www.w3.org/2000/svg" xmlns:xlink="http://www.w3.org/1999/xlink" width="24" height="25">
	<path transform="translate(0 0.159195)" d="M0 0L24 0L24 24L0 24L0 0Z"/>
	<path fill="white" transform="translate(0 0.159195)" d="M18.915913 12.810016C22.029408 13.896967 24 15.692489 24 17.863802C24 21.458265 18.561691 23.994776 12 23.994776C5.4404225 23.994776 0 21.453941 0 17.858915C0 15.69472 1.9571807 13.904124 5.0537 12.815615C5.5747299 12.632459 6.1455855 12.906359 6.3287416 13.427389C6.5118976 13.94842 6.2379971 14.519275 5.7169671 14.702431C3.3306725 15.541278 2 16.75869 2 17.858915C2 19.933853 6.4128351 21.994776 12 21.994776C17.589045 21.994776 22 19.937439 22 17.863802C22 16.759247 20.658176 15.536631 18.25671 14.698256C17.735287 14.516222 17.460157 13.945958 17.642191 13.424535C17.824224 12.903111 18.394489 12.627982 18.915913 12.810016ZM13.783161 0.47758523C14.886756 1.1144532 15.566667 2.2915523 15.566667 3.5654871C15.566667 4.6840644 15.042476 5.727984 14.167547 6.39709C15.652748 7.1761618 16.666666 8.734149 16.666666 10.528953L16.666666 12.723055C16.666666 13.274038 16.22098 13.721213 15.669998 13.723049L15.082334 13.724971L14.458938 18.716003C14.401172 19.177914 14.034266 19.533403 13.581514 19.58536L13.466666 19.591911L10.533334 19.591911C10.029032 19.591911 9.6036415 19.216406 9.5410624 18.716003L8.9163332 13.726971L8.333333 13.727942C7.8204975 13.727942 7.3978262 13.341901 7.3400612 12.844563L7.3333335 12.727942L7.3333335 10.528953C7.3333335 8.734149 8.3472519 7.1761618 9.8336763 6.3959994C8.9575243 5.727984 8.4333334 4.6840644 8.4333334 3.5654871L8.4395847 3.3541374C8.5101862 2.1624308 9.1745548 1.0790716 10.216839 0.47758523C11.320282 -0.15919508 12.679718 -0.15919508 13.783161 0.47758523ZM12 7.8639708C10.527138 7.8639708 9.333333 9.0572262 9.333333 10.528953L9.333333 11.726971L9.8000002 11.727942C10.26551 11.727942 10.66378 12.047898 10.771519 12.490704L10.792271 12.60385L11.415334 17.590971L12.584333 17.590971L13.207729 12.60385C13.265349 12.143102 13.630623 11.788062 14.082125 11.734849L14.196669 11.727947L14.666333 11.72597L14.666667 10.528953C14.666667 9.1138315 13.562927 7.9561715 12.168655 7.8692141L12 7.8639708ZM11.216495 2.2098351C10.731831 2.4895275 10.433333 3.0063016 10.433333 3.5654871C10.433333 4.1246729 10.731831 4.6414471 11.216495 4.9211392C11.70131 5.2009192 12.29869 5.2009192 12.783505 4.9211392C13.268169 4.6414471 13.566667 4.1246729 13.566667 3.5654871C13.566667 3.0063016 13.268169 2.4895275 12.783505 2.2098351C12.29869 1.930055 11.70131 1.930055 11.216495 2.2098351Z"/>
</svg>
