<?xml version="1.0" encoding="utf-8" ?>
<svg xmlns="http://www.w3.org/2000/svg" xmlns:xlink="http://www.w3.org/1999/xlink" width="16" height="16">
	<path d="M0 0L16 0L16 16L0 16L0 0Z"/>
	<path fill="white" transform="translate(2.25 0.25)" d="M5.75 0C8.9145155 0 11.5 2.4131219 11.5 5.4166727C11.5 7.3554192 9.0927839 11.719155 6.7780004 14.976051C6.5426803 15.30716 6.1571307 15.500281 5.75 15.500281C5.3428693 15.500281 4.9573197 15.30716 4.7220078 14.976063C2.4072156 11.719155 0 7.3554192 0 5.4166727C0 2.4131219 2.5854843 0 5.75 0ZM5.75 1.5C3.3916683 1.5 1.5 3.2655594 1.5 5.4166727C1.5 6.7717161 3.454308 10.432788 5.3908763 13.306403L5.75 13.831L5.9276896 13.573394C7.8593283 10.754781 9.8701849 7.0537553 9.9939766 5.554759L10 5.4166727C10 3.2655594 8.1083317 1.5 5.75 1.5ZM5.75 2.3333364C7.5338039 2.3333364 9 3.7017879 9 5.4166727C9 7.1315575 7.5338039 8.5000095 5.75 8.5000095C3.9661961 8.5000095 2.5 7.1315575 2.5 5.4166727L2.505183 5.2405486C2.6014946 3.6090391 4.0277066 2.3333364 5.75 2.3333364ZM5.75 3.8333364C4.7723799 3.8333364 4 4.5542254 4 5.4166727C4 6.2791204 4.7723799 7.0000091 5.75 7.0000091C6.7276201 7.0000091 7.5 6.2791204 7.5 5.4166727C7.5 4.5542254 6.7276201 3.8333364 5.75 3.8333364Z"/>
</svg>
