<?xml version="1.0" encoding="utf-8" ?>
<svg xmlns="http://www.w3.org/2000/svg" xmlns:xlink="http://www.w3.org/1999/xlink" width="26" height="26">
	<path transform="translate(0.236328 0.349045)" d="M0 0L24 0L24 24L0 24L0 0Z"/>
	<path fill="white" transform="translate(0.232492 0.349027)" d="M17.751768 9.5217047C20.204344 9.5107317 22.436083 10.9425 23.448912 13.177965C24.35178 15.170738 24.135811 17.470604 22.92598 19.248278L22.754358 19.486897L23.332462 22.817209C23.473501 23.6294 22.634277 24.237003 21.919037 23.892466L21.822376 23.83951L18.729359 21.931898L18.677811 21.941757C15.785292 22.37385 12.959246 20.729391 11.91833 17.973713L11.837878 17.747864C10.818238 14.704576 12.271203 11.383877 15.200018 10.066789C16.002665 9.7075539 16.872219 9.5217047 17.751768 9.5217047ZM12.230924 0.057360351C15.99498 0.46374202 19.197359 2.9819255 20.479965 6.5439734C20.667068 7.0635986 20.397507 7.6365161 19.877882 7.8236203C19.358257 8.010725 18.785339 7.7411633 18.598236 7.2215376C17.574831 4.3793445 15.019621 2.3700609 12.016244 2.045805C9.012867 1.7215492 6.087677 3.139148 4.4812198 5.6974115C2.8747625 8.2556753 2.868576 11.506257 4.4652839 14.070617C4.6454897 14.360032 4.6658292 14.721315 4.5192466 15.029129L3.1178358 17.971018L6.0611019 16.569914C6.3305297 16.441633 6.6409068 16.441236 6.9081926 16.563972L7.0198603 16.624098C7.9163227 17.182737 8.9159727 17.555391 9.9593601 17.719904C10.504905 17.80592 10.877426 18.317902 10.79141 18.863447C10.705394 19.408993 10.193412 19.781515 9.6478662 19.695498C8.6012478 19.530478 7.5897269 19.198425 6.6514702 18.71357L6.4458356 18.601019L1.4337193 20.988239C0.61752915 21.376846 -0.23294391 20.574509 0.058515981 19.757523L0.10098112 19.655409L2.4868357 14.645019L2.4352145 14.552023C0.82614374 11.53495 0.8869127 7.8874121 2.6150293 4.9189334L2.7874713 4.6338253C4.8008032 1.4276189 8.4668684 -0.34902132 12.230924 0.057360351ZM17.759254 11.521799C17.153767 11.521799 16.562632 11.648108 16.018671 11.891564C14.028832 12.786395 13.041141 15.043731 13.734268 17.112486C14.427395 19.181242 16.575676 20.387884 18.702963 19.90329C18.958548 19.84507 19.226772 19.88953 19.449902 20.027105L20.981358 20.971897L20.705879 19.381359C20.661306 19.12468 20.718868 18.862566 20.863087 18.649593L20.942347 18.547457C22.046412 17.300177 22.3146 15.520614 21.627169 14.003346C20.939739 12.486083 19.424994 11.514301 17.759254 11.521799ZM17.755678 13.188526C18.307962 13.188526 18.755678 13.636242 18.755678 14.188526L18.755678 17.121786C18.755678 17.67407 18.307962 18.121786 17.755678 18.121786C17.203394 18.121786 16.755678 17.67407 16.755678 17.121786L16.755678 14.188526C16.755678 13.636242 17.203394 13.188526 17.755678 13.188526ZM10.170271 10.255267C10.925055 10.255267 11.536928 10.867141 11.536928 11.621924C11.536928 12.33231 10.994923 12.916102 10.301888 12.982326L10.170271 12.988582C9.4154863 12.988582 8.8036127 12.376709 8.8036127 11.621924C8.8036127 10.867141 9.4154863 10.255267 10.170271 10.255267ZM10.170271 4.3887491C11.735052 4.3887491 13.003557 5.6572547 13.003557 7.2220359C13.003557 8.7868166 11.735052 10.055323 10.170271 10.055323C9.6179857 10.055323 9.1702709 9.6076078 9.1702709 9.0553226C9.1702709 8.5424871 9.5563107 8.1198158 10.053649 8.0620508L10.170271 8.0553226C10.630482 8.0553226 11.003557 7.6822476 11.003557 7.2220359C11.003557 6.7618241 10.630482 6.3887491 10.170271 6.3887491C9.7454596 6.3887491 9.3948956 6.7066355 9.3434763 7.1175103L9.3369837 7.2220359C9.3369837 7.7743206 8.8892679 8.2220354 8.3369837 8.2220354C7.784699 8.2220354 7.3369837 7.7743206 7.3369837 7.2220359C7.3369837 5.6572547 8.6054897 4.3887491 10.170271 4.3887491Z"/>
</svg>
