<?xml version="1.0" encoding="utf-8" ?>
<svg xmlns="http://www.w3.org/2000/svg" xmlns:xlink="http://www.w3.org/1999/xlink" width="25" height="24">
	<path fill="white" transform="translate(3 3)" d="M6.9201369 12.790578L12.79255 6.9173651C14.184258 7.5815029 15.843439 7.296567 16.933836 6.2061706C18.024233 5.1157737 18.309168 3.4565921 17.645031 2.0648847L16.505106 3.2080092C16.031498 3.6816175 15.263627 3.6816175 14.790018 3.2080092C14.31641 2.7344012 14.31641 1.9665306 14.790018 1.4929223L15.929143 0.35299745C14.537723 -0.30885246 12.880308 -0.022863494 11.791149 1.0670136C10.701991 2.1568909 10.417095 3.8144934 11.079863 5.2054777L5.2074499 11.077091C3.8157425 10.412953 2.1565607 10.697889 1.0661643 11.788285C-0.024232227 12.878682 -0.30916813 14.537864 0.35496968 15.929571L1.4948945 14.790446C1.8012654 14.484076 2.2478104 14.364424 2.6663208 14.476563C3.084831 14.588703 3.4117248 14.915597 3.5238643 15.334106C3.6360037 15.752617 3.5163524 16.199162 3.2099814 16.505533L2.0708566 17.643059C3.4622779 18.304909 5.1196918 18.018919 6.2088504 16.929043C7.2980089 15.839165 7.5829048 14.181562 6.9201369 12.790578Z" fill-rule="evenodd"/>
</svg>
