<?xml version="1.0" encoding="utf-8" ?>
<svg xmlns="http://www.w3.org/2000/svg" xmlns:xlink="http://www.w3.org/1999/xlink" width="24" height="25">
	<path transform="translate(0 0.12587)" d="M0 0L24 0L24 24L0 24L0 0Z"/>
	<path fill="white" transform="translate(1 0.125597)" d="M19.944614 0.67209125C20.125864 1.1937876 19.849878 1.7636378 19.32818 1.9448873L9.5749998 5.3330002L20.111111 5.3336058C21.154316 5.3336058 22 6.1792903 22 7.2224946L22 20.111383C22 21.154589 21.154316 22.000273 20.111111 22.000273L1.8888888 22.000273C0.84568435 22.000273 0 21.154589 0 20.111383L0 7.2224946C0 6.1792903 0.84568435 5.3336058 1.8888888 5.3336058L3.4779999 5.3330002L18.67182 0.055657636C19.193516 -0.12559181 19.763365 0.15039492 19.944614 0.67209125ZM20 13.555L2 13.555L2 19.999605L20 19.999605L20 13.555ZM6.3333335 14.000273C7.325738 14.000273 8.2427568 14.529714 8.7389593 15.389161C9.2351618 16.24861 9.2351618 17.307491 8.7389593 18.166939C8.2427568 19.026386 7.325738 19.555828 6.3333335 19.555828C4.7992091 19.555828 3.5555556 18.312174 3.5555556 16.778049C3.5555556 15.243926 4.7992091 14.000273 6.3333335 14.000273ZM16.555555 17.111383C17.10784 17.111383 17.555555 17.559099 17.555555 18.111383C17.555555 18.663668 17.10784 19.111383 16.555555 19.111383L11.666667 19.111383C11.114382 19.111383 10.666667 18.663668 10.666667 18.111383C10.666667 17.559099 11.114382 17.111383 11.666667 17.111383L16.555555 17.111383ZM6.3333335 16.000273C5.9037786 16.000273 5.5555558 16.348495 5.5555558 16.778049C5.5555558 17.207605 5.9037786 17.555828 6.3333335 17.555828C6.6112065 17.555828 6.8679719 17.407585 7.0069089 17.166939C7.1458454 16.926294 7.1458454 16.629807 7.0069089 16.389162C6.8679719 16.148516 6.6112065 16.000273 6.3333335 16.000273ZM16.555555 14.444716C17.10784 14.444716 17.555555 14.892432 17.555555 15.444716C17.555555 15.997002 17.10784 16.444717 16.555555 16.444717L11.666667 16.444717C11.114382 16.444717 10.666667 15.997002 10.666667 15.444716C10.666667 14.892432 11.114382 14.444716 11.666667 14.444716L16.555555 14.444716ZM20 7.3336058L2 7.3336058L2 11.555L20 11.555L20 7.3336058ZM4.5555553 8.0002728C5.3533001 8.0002728 6 8.6469727 6 9.4447165C6 10.195536 5.427145 10.812556 4.6946654 10.882549L4.5555553 10.889161C3.7578108 10.889161 3.1111112 10.242461 3.1111112 9.4447165C3.1111112 8.6469727 3.7578108 8.0002728 4.5555553 8.0002728ZM18.333334 8.6669388C18.885618 8.6669388 19.333334 9.1146545 19.333334 9.6669388C19.333334 10.219224 18.885618 10.666939 18.333334 10.666939L16.111111 10.666939C15.558826 10.666939 15.111111 10.219224 15.111111 9.6669388C15.111111 9.1146545 15.558826 8.6669388 16.111111 8.6669388L18.333334 8.6669388ZM13.444445 8.6669388C13.996729 8.6669388 14.444445 9.1146545 14.444445 9.6669388C14.444445 10.219224 13.996729 10.666939 13.444445 10.666939L8.5555553 10.666939C8.0032711 10.666939 7.5555553 10.219224 7.5555553 9.6669388C7.5555553 9.1146545 8.0032711 8.6669388 8.5555553 8.6669388L13.444445 8.6669388Z"/>
</svg>
