<?xml version="1.0" encoding="utf-8" ?>
<svg xmlns="http://www.w3.org/2000/svg" xmlns:xlink="http://www.w3.org/1999/xlink" width="24" height="24">
	<path fill="#4B7BE5" transform="translate(1.5 2.5)" d="M18.114576 0C19.708153 0 21 1.2918477 21 2.8854227L21 15.581244C21 17.174818 19.708153 18.466667 18.114576 18.466667L2.8854227 18.466667C1.2918477 18.466667 0 17.174818 0 15.581244L0 2.8854227C0 1.2918477 1.2918477 0 2.8854227 0L18.114576 0ZM19 5.8000002L2 5.8000002L2 15.581244C2 16.07025 2.3964174 16.466667 2.8854227 16.466667L18.114576 16.466667C18.603582 16.466667 19 16.07025 19 15.581244L19 5.8000002ZM15.452497 8.6593065L15.079013 9.5276461C14.889895 9.9605494 14.696846 10.393564 14.504396 10.814306L14.079356 11.72442L13.945127 12.002858C13.356682 13.212653 12.919954 13.983425 12.551021 14.352779C11.418093 15.485707 9.5819073 15.485707 8.4493818 14.353182C7.3168573 13.220657 7.3168573 11.384471 8.4493818 10.251946C8.8187027 9.8826256 9.5890007 9.4459867 10.797991 8.8579025L11.367949 8.5854597C11.773335 8.3947639 12.197187 8.2012177 12.627119 8.0093479L13.586906 7.5878119L14.143401 7.3500066C14.969198 7.0032768 15.799356 7.8335624 15.452497 8.6593065ZM12.407022 10.583241L12.568989 10.232031L11.94017 10.527541L11.672833 10.656416C10.702168 11.128573 10.007301 11.522453 9.863596 11.66616C9.5121193 12.017636 9.5121193 12.587492 9.863596 12.938969C10.215072 13.290444 10.784928 13.290444 11.136404 12.938969C11.279786 12.795424 11.673957 12.099759 12.146594 11.128053L12.407022 10.583241ZM18.114576 2L2.8854227 2C2.3964174 2 2 2.3964174 2 2.8854227L2 3.8L19 3.8L19 2.8854227C19 2.3964174 18.603582 2 18.114576 2Z"/>
</svg>
