<?xml version="1.0" encoding="utf-8" ?>
<svg xmlns="http://www.w3.org/2000/svg" xmlns:xlink="http://www.w3.org/1999/xlink" width="32" height="32">
	<path fill="#4B7BE5" d="M0 0L32 0L32 32L0 32L0 0Z"/>
	<path fill="none" stroke="#4B7BE5" stroke-width="2" stroke-linecap="round" stroke-linejoin="round" transform="translate(2 15.3333)" d="M28 0L0 0L0 7.4666667C0 8.4975986 0.83573514 9.333333 1.8666667 9.333333L26.133333 9.333333C27.164265 9.333333 28 8.4975986 28 7.4666667L28 0Z" fill-rule="evenodd"/>
	<path fill="none" stroke="#4B7BE5" stroke-width="2" stroke-linecap="round" stroke-linejoin="round" transform="translate(2 6)" d="M21.466667 0L6.5333333 0L0 9.333333L28 9.333333L21.466667 0Z" fill-rule="evenodd"/>
	<path fill="none" stroke="#4B7BE5" stroke-width="2" stroke-linecap="round" stroke-linejoin="round" transform="translate(5.73333 18.9701)" d="M0 1.0298851L3.7333333 1.0298851" fill-rule="evenodd"/>
	<path fill="none" stroke="#4B7BE5" stroke-width="2" stroke-miterlimit="10" transform="translate(18.4701 18.9701)" d="M1.2632184 1.4965518C1.0054855 1.4965518 0.7965517 1.2876179 0.7965517 1.0298851C0.7965517 0.77215219 1.0054855 0.56321841 1.2632184 0.56321841" fill-rule="evenodd"/>
	<path fill="none" stroke="#4B7BE5" stroke-width="2" stroke-miterlimit="10" transform="translate(18.9368 18.9701)" d="M0.7965517 1.4965518C1.0542846 1.4965518 1.2632184 1.2876179 1.2632184 1.0298851C1.2632184 0.77215219 1.0542846 0.56321841 0.7965517 0.56321841" fill-rule="evenodd"/>
	<path fill="none" stroke="#4B7BE5" stroke-width="1.5" stroke-miterlimit="10" transform="translate(24.0701 18.9701)" d="M1.2632184 1.4965518C1.0054855 1.4965518 0.7965517 1.2876179 0.7965517 1.0298851C0.7965517 0.77215219 1.0054855 0.56321841 1.2632184 0.56321841" fill-rule="evenodd"/>
	<path fill="none" stroke="#4B7BE5" stroke-width="1.5" stroke-miterlimit="10" transform="translate(24.5368 18.9701)" d="M0.7965517 1.4965518C1.0542846 1.4965518 1.2632184 1.2876179 1.2632184 1.0298851C1.2632184 0.77215219 1.0542846 0.56321841 0.7965517 0.56321841" fill-rule="evenodd"/>
</svg>
