<?xml version="1.0" encoding="utf-8" ?>
<svg xmlns="http://www.w3.org/2000/svg" xmlns:xlink="http://www.w3.org/1999/xlink" width="16" height="16">
	<path d="M0 0L16 0L16 16L0 16L0 0Z"/>
	<path fill="white" transform="translate(0.25 0.25)" d="M6.75 8.8817842e-16C10.477922 8.8817842e-16 13.5 3.022078 13.5 6.75C13.5 8.3438148 12.947607 9.8086119 12.023829 10.963384L15.28033 14.21967C15.573223 14.512563 15.573223 14.987437 15.28033 15.28033C14.987437 15.573223 14.512563 15.573223 14.21967 15.28033L10.963384 12.023829C9.8086119 12.947607 8.3438148 13.5 6.75 13.5C3.022078 13.5 0 10.477922 0 6.75L0.0040819161 6.5130286C0.12891859 2.8948469 3.1013954 8.8817842e-16 6.75 8.8817842e-16ZM6.75 1.5C3.8505051 1.5 1.5 3.8505051 1.5 6.75C1.5 9.6494951 3.8505051 12 6.75 12C9.6494951 12 12 9.6494951 12 6.75C12 3.8505051 9.6494951 1.5 6.75 1.5Z"/>
	<path fill="white" transform="translate(4 5)" d="M0.75 0L5.25 0C5.6642137 -7.6089797e-17 6 0.33578643 6 0.75C6 1.1642135 5.6642137 1.5 5.25 1.5L0.75 1.5C0.33578643 1.5 2.5363265e-17 1.1642135 0 0.75C-5.072653e-17 0.33578643 0.33578643 5.072653e-17 0.75 0Z" fill-rule="evenodd"/>
	<path fill="white" transform="translate(4 7.5)" d="M0.75 0L3.25 0C3.6642137 -7.6089797e-17 4 0.33578643 4 0.75C4 1.1642135 3.6642137 1.5 3.25 1.5L0.75 1.5C0.33578643 1.5 2.5363265e-17 1.1642135 0 0.75C-5.072653e-17 0.33578643 0.33578643 5.072653e-17 0.75 0Z" fill-rule="evenodd"/>
</svg>
