<?xml version="1.0" encoding="utf-8" ?>
<svg xmlns="http://www.w3.org/2000/svg" xmlns:xlink="http://www.w3.org/1999/xlink" width="24" height="24">
	<path d="M0 0L24 0L24 24L0 24L0 0Z"/>
	<path fill="white" transform="translate(1.99974 1.99974)" d="M15.844222 5.0249653C16.997063 7.7374735 16.615225 10.858967 14.842545 13.21361L14.748 13.334L19.707415 18.294001C20.097912 18.684553 20.097866 19.317719 19.707314 19.708216C19.316763 20.098711 18.683598 20.098667 18.2931 19.708115L13.335237 14.749434C11.634011 16.08024 9.4509306 16.709667 7.2501316 16.440454C4.3246107 16.082588 1.8122363 14.191161 0.65939611 11.478653L0.56250113 11.240634C-1.0481877 7.1037788 0.91090786 2.4079075 5.0249653 0.65939611C9.2181396 -1.1227405 14.062086 0.8317914 15.844222 5.0249653ZM5.8072605 2.500052C2.6306529 3.8501389 1.149965 7.5197501 2.500052 10.696358C3.373405 12.751263 5.2766953 14.184145 7.4929719 14.455252C9.7092485 14.726358 11.901806 13.794501 13.244729 12.010703C14.587652 10.226905 14.87692 7.8621659 14.003567 5.8072605C12.65348 2.6306529 8.9838686 1.149965 5.8072605 2.500052Z"/>
</svg>
