<?xml version="1.0" encoding="utf-8" ?>
<svg xmlns="http://www.w3.org/2000/svg" xmlns:xlink="http://www.w3.org/1999/xlink" width="24" height="24">
	<path fill="#4B7BE5" transform="translate(1.99999 1.99996)" d="M14.06663 0.19572566C15.07013 0.61157179 15.703428 1.6138611 15.648192 2.698513L15.591389 3.8186588C15.583344 3.9786589 15.643323 4.1345973 15.756504 4.2479506C15.869671 4.36129 16.025473 4.4214864 16.183537 4.4137716L17.30545 4.3568716C18.389574 4.3034201 19.390205 4.9374142 19.804953 5.940516C20.219688 6.9435945 19.958992 8.0991182 19.153057 8.8275537L18.31955 9.5795183C18.200161 9.6873636 18.132021 9.8407393 18.132021 10.001646C18.132021 10.162553 18.200161 10.315928 18.31908 10.423351L19.15365 11.176273C19.9596 11.904547 20.22016 13.06116 19.804356 14.064686C19.38854 15.068235 18.386284 15.701592 17.301641 15.64635L16.180414 15.589484C16.020109 15.581238 15.863814 15.641323 15.750302 15.754844C15.636776 15.868377 15.576678 16.024719 15.584964 16.185804L15.642082 17.312521C15.690156 18.391657 15.057803 19.385523 14.059939 19.799126C13.062052 20.212738 11.912024 19.957613 11.178386 19.15616L10.42487 18.322515C10.317191 18.203251 10.164043 18.135189 10.003383 18.135189C9.842721 18.135189 9.6895742 18.203251 9.580102 18.324495L8.8230295 19.158529C8.0947323 19.959112 6.9426856 20.217121 5.9425077 19.803633C4.9423528 19.390154 4.3087869 18.393982 4.3586092 17.30727L4.4162354 16.186684C4.4244838 16.02632 4.364387 15.869978 4.2508607 15.756444C4.1373477 15.642924 3.9810541 15.582838 3.8200264 15.591122L2.7009962 15.647875C1.6163592 15.704491 0.61347872 15.07237 0.19665636 14.069401C-0.2201563 13.066455 0.039260838 11.90972 0.84535015 11.18006L1.6784122 10.427775C1.7978009 10.31993 1.8659393 10.166555 1.8659393 10.005649C1.8659393 9.8447409 1.7978009 9.6913662 1.6765689 9.581851L0.84366667 8.8257103C0.041156512 8.0977001 -0.21787632 6.9441996 0.19629651 5.9429488C0.61047894 4.9416752 1.608712 4.3082657 2.6939189 4.3601437L3.816278 4.417069C3.9768932 4.4255137 4.1335425 4.3653493 4.2472262 4.2515478C4.3609238 4.137733 4.4209471 3.9809766 4.412055 3.8146074L4.3583879 2.6923258C4.3076468 1.6106988 4.9407916 0.61345202 5.9412398 0.19926496C6.9417109 -0.21493171 8.0944767 0.042980131 8.8245697 0.84565938L9.5769091 1.6764864C9.6860418 1.7976316 9.8389492 1.8656911 9.9993811 1.8656911C10.159813 1.8656911 10.312719 1.7976316 10.423982 1.6741424L11.178246 0.84648538C11.906493 0.040462118 13.063107 -0.2201301 14.06663 0.19572566ZM12.659369 2.1904562L11.9061 3.0170097C11.419448 3.5572479 10.72648 3.8656909 9.9993811 3.8656909C9.2722816 3.8656909 8.5793133 3.5572479 8.0926609 3.0170097L7.3435555 2.1897542C7.1824222 2.0126021 6.9275098 1.9555697 6.7062721 2.0471625C6.4850111 2.1387649 6.3449664 2.3593447 6.3561478 2.5977004L6.409483 3.7133722C6.4484162 4.4404683 6.1767697 5.1498985 5.6621714 5.6650295C5.1475592 6.1801744 4.4383998 6.4525418 3.713119 6.4144058L2.59552 6.3577199C2.3564467 6.3462915 2.1359279 6.4862175 2.04442 6.7074356C1.9529024 6.9286766 2.0101402 7.1835623 2.1877234 7.3446598L3.0190554 8.0993795C3.5582378 8.5864296 3.8659394 9.279047 3.8659394 10.005649C3.8659394 10.732249 3.5582378 11.424867 3.0189421 11.91202L2.186645 12.663612C2.008738 12.824651 1.9514155 13.080251 2.0435164 13.301867C2.1356075 13.523458 2.3571527 13.6631 2.5982168 13.650518L3.7179992 13.593726C4.4437308 13.556393 5.1512804 13.828404 5.6651187 14.342276C6.1789436 14.856133 6.4509239 15.563688 6.4135957 16.289408L6.3562407 17.404411C6.3452797 17.643564 6.4854174 17.863907 6.7066135 17.955353C6.9277864 18.046787 7.1825395 17.989735 7.3428736 17.813488L8.0974216 16.982241C8.5843096 16.442968 9.2768431 16.135189 10.003383 16.135189C10.729922 16.135189 11.422455 16.442968 11.908968 16.981823L12.657859 17.810381C12.819166 17.986593 13.073473 18.043009 13.294139 17.951546C13.514829 17.860073 13.654698 17.64024 13.644356 17.407673L13.587567 16.287819C13.550239 15.562088 13.822219 14.854532 14.336043 14.340674C14.849882 13.826803 15.557431 13.554791 16.28244 13.592088L17.40316 13.648928C17.643061 13.661147 17.864712 13.521078 17.95668 13.299114C18.04866 13.077127 17.991022 12.821273 17.813349 12.660724L16.978905 11.907915C16.439724 11.420865 16.132021 10.728248 16.132021 10.001646C16.132021 9.2750444 16.439724 8.582427 16.979374 8.0949545L17.812666 7.3431854C17.990778 7.1822009 18.048447 6.9265881 17.956703 6.7046995C17.864969 6.4828343 17.643679 6.3426251 17.405348 6.3543749L16.282951 6.4112983C15.558808 6.446651 14.853484 6.174139 14.341212 5.6610851C13.828954 5.1480451 13.557505 4.442317 13.593933 3.7177968L13.65077 2.5970078C13.662991 2.3570304 13.522912 2.135335 13.300976 2.0433657C13.079063 1.951406 12.8233 2.0090311 12.659369 2.1904562ZM12.300216 6.0167403C13.723954 6.838788 14.601004 8.3579779 14.601004 10.002047C14.601004 11.646114 13.723954 13.165305 12.300216 13.987352C10.876456 14.809412 9.1223049 14.809412 7.6985455 13.987352C6.2748075 13.165305 5.397758 11.646114 5.397758 10.002047L5.4031634 9.7786827C5.4786196 8.2213106 6.3395228 6.8014221 7.6985455 6.0167403C9.1223049 5.1946802 10.876456 5.1946802 12.300216 6.0167403ZM8.6985931 7.7487636C7.8936396 8.2135334 7.397758 9.0724792 7.397758 10.002047C7.397758 10.931613 7.8936396 11.79056 8.6985931 12.255329C9.5035257 12.720087 10.495235 12.720087 11.300168 12.255329C12.105122 11.79056 12.601004 10.931613 12.601004 10.002047C12.601004 9.0724792 12.105122 8.2135334 11.300168 7.7487636C10.495235 7.2840056 9.5035257 7.2840056 8.6985931 7.7487636Z"/>
</svg>
