<?xml version="1.0" encoding="utf-8" ?>
<svg xmlns="http://www.w3.org/2000/svg" xmlns:xlink="http://www.w3.org/1999/xlink" width="26" height="25">
	<path transform="translate(0.0742188 0.0736821)" d="M0 0L24 0L24 24L0 24L0 0Z"/>
	<path fill="none" stroke="white" stroke-width="2" stroke-linecap="round" stroke-linejoin="round" transform="translate(9.21708 9.21441)" d="M0 2.85658C0 4.4342256 1.2791865 5.71316 2.8571429 5.71316C4.4350991 5.71316 5.7142859 4.4342256 5.7142859 2.85658C5.7142859 1.2789345 4.4350991 0 2.8571429 0C1.2791865 0 0 1.2789345 0 2.85658" fill-rule="evenodd"/>
	<path fill="none" stroke="white" stroke-width="2" stroke-linecap="round" stroke-linejoin="round" transform="translate(7.7885 17.7842)" d="M0 4.2848701C0 1.9184016 1.9187796 0 4.2857141 0C6.6526489 0 8.5714283 1.9184016 8.5714283 4.2848701L0 4.2848701Z" fill-rule="evenodd"/>
	<path fill="none" stroke="white" stroke-width="2" stroke-linecap="round" stroke-linejoin="round" transform="translate(5.64565 5.64374)" d="M1.8828571 10.972068C-0.62763351 8.4620409 -0.62761694 4.3925109 1.8828943 1.8825048C4.3934054 -0.62750161 8.4637375 -0.62750161 10.974249 1.8825048C13.484759 4.3925109 13.484776 8.4620409 10.974286 10.972068" fill-rule="evenodd"/>
	<path fill="none" stroke="white" stroke-width="2" stroke-linecap="round" stroke-linejoin="round" transform="translate(2.07422 2.07368)" d="M2.9285715 17.067345C-0.97637832 13.162766 -0.97616297 6.8325481 2.9290524 2.9282351C6.8342676 -0.97607833 13.165732 -0.97607833 17.070948 2.9282351C20.976164 6.8325481 20.976377 13.162766 17.071428 17.067345" fill-rule="evenodd"/>
</svg>
