<?xml version="1.0" encoding="utf-8" ?>
<svg xmlns="http://www.w3.org/2000/svg" xmlns:xlink="http://www.w3.org/1999/xlink" width="24" height="24">
	<path fill="#4B7BE5" transform="translate(2 2)" d="M7.6890411 14.211753L14.213944 7.6859608C15.760286 8.423892 17.603821 8.107296 18.815372 6.8957448C20.026924 5.6841931 20.343519 3.8406579 19.605589 2.2943163L18.339006 3.5644548C17.812775 4.0906863 16.959585 4.0906863 16.433353 3.5644548C15.907123 3.0382235 15.907123 2.185034 16.433353 1.6588026L17.699049 0.39221939C16.153025 -0.34316939 14.311453 -0.025403881 13.101277 1.1855707C11.891101 2.3965454 11.574551 4.2383261 12.310959 5.783864L5.7860556 12.307878C4.2397137 11.569948 2.3961785 11.886543 1.1846269 13.098095C-0.026924698 14.309647 -0.34352016 16.153181 0.39441076 17.699524L1.6609939 16.433828C2.001406 16.093416 2.4975672 15.960471 2.9625785 16.08507C3.4275901 16.209669 3.7908053 16.572886 3.9154048 17.037897C4.0400043 17.502909 3.9070582 17.999069 3.5666461 18.339481L2.3009517 19.603397C3.8469753 20.338787 5.6885467 20.021021 6.8987226 18.810047C8.1088991 17.599072 8.4254494 15.757292 7.6890411 14.211753Z" fill-rule="evenodd"/>
</svg>
