<?xml version="1.0" encoding="utf-8" ?>
<svg xmlns="http://www.w3.org/2000/svg" xmlns:xlink="http://www.w3.org/1999/xlink" width="16" height="16">
	<path d="M0 0L16 0L16 16L0 16L0 0Z"/>
	<path fill="white" transform="translate(0.25 0.25)" d="M7.75 0C12.03008 0 15.5 3.4699197 15.5 7.75C15.5 12.03008 12.03008 15.5 7.75 15.5C3.4699197 15.5 0 12.03008 0 7.75C0 3.4699197 3.4699197 0 7.75 0ZM7.75 1.5C4.298347 1.5 1.5 4.298347 1.5 7.75C1.5 11.201653 4.298347 14 7.75 14C11.201653 14 14 11.201653 14 7.75C14 4.298347 11.201653 1.5 7.75 1.5ZM11.513345 8.8666668C11.927559 8.8667469 12.26328 9.2025986 12.2632 9.6168118C12.26312 10.031025 11.927268 10.366747 11.513055 10.366667C10.202205 10.366413 9.0044546 11.109066 8.421855 12.283334C8.2377596 12.654388 7.7877216 12.80595 7.4166665 12.621855C7.0456114 12.43776 6.8940501 11.987721 7.078145 11.616667C7.9140496 9.9318476 9.6325607 8.8663025 11.513345 8.8666668ZM4.9499998 5.8333335C5.4930801 5.8333335 5.9333334 6.2735868 5.9333334 6.8166666C5.9333334 7.3209553 5.5537271 7.7365823 5.0646772 7.7933846L4.9499998 7.8000002C4.40692 7.8000002 3.9666667 7.3597465 3.9666667 6.8166666C3.9666667 6.2735868 4.40692 5.8333335 4.9499998 5.8333335ZM10.083333 5.8333335C10.626413 5.8333335 11.066667 6.2735868 11.066667 6.8166666C11.066667 7.3209553 10.68706 7.7365823 10.19801 7.7933846L10.083333 7.8000002C9.5402536 7.8000002 9.1000004 7.3597465 9.1000004 6.8166666C9.1000004 6.2735868 9.5402536 5.8333335 10.083333 5.8333335Z"/>
</svg>
