<?xml version="1.0" encoding="utf-8" ?>
<svg xmlns="http://www.w3.org/2000/svg" xmlns:xlink="http://www.w3.org/1999/xlink" width="24" height="27">
	<path fill="none" stroke="#4B7BE5" stroke-width="2" stroke-linecap="round" stroke-linejoin="round" transform="translate(1.00195 11.878)" d="M4.6153908 0L4.6153908 10.771372C4.6164551 11.183655 4.4116893 11.56918 4.069746 11.798684L4.069746 11.798684C3.0024979 12.510404 1.6128931 12.510404 0.54564494 11.798684L0.54564494 11.798684C0.20370194 11.56918 -0.0010640295 11.183655 0 10.771372L0 0" fill-rule="evenodd"/>
	<path fill="none" stroke="#4B7BE5" stroke-width="2" stroke-linecap="round" stroke-linejoin="round" transform="translate(1.00196 10.3371)" d="M0 1.5409688C0 2.3920224 1.0331886 3.0819376 2.3076913 3.0819376C3.5821941 3.0819376 4.6153827 2.3920224 4.6153827 1.5409688C4.6153827 0.68991524 3.5821941 0 2.3076913 0C1.0331886 0 0 0.68991524 0 1.5409688" fill-rule="evenodd"/>
	<path fill="none" stroke="#4B7BE5" stroke-width="2" stroke-linecap="round" stroke-linejoin="round" transform="translate(8.69426 7.25514)" d="M4.6153908 0L4.6153908 15.394278C4.6164551 15.806561 4.4116893 16.192087 4.069746 16.421591L4.069746 16.421591C3.0024979 17.13331 1.6128931 17.13331 0.54564494 16.421591L0.54564494 16.421591C0.20370194 16.192087 -0.0010640295 15.806561 0 15.394278L0 0" fill-rule="evenodd"/>
	<path fill="none" stroke="#4B7BE5" stroke-width="2" stroke-linecap="round" stroke-linejoin="round" transform="translate(8.69426 5.71417)" d="M0 1.5409688C0 2.3920224 1.0331886 3.0819376 2.3076913 3.0819376C3.5821941 3.0819376 4.6153827 2.3920224 4.6153827 1.5409688C4.6153827 0.68991524 3.5821941 0 2.3076913 0C1.0331886 0 0 0.68991524 0 1.5409688" fill-rule="evenodd"/>
	<path fill="none" stroke="#4B7BE5" stroke-width="2" stroke-linecap="round" stroke-linejoin="round" transform="translate(16.3866 2.63224)" d="M4.6153908 0L4.6153908 20.017185C4.6164551 20.429468 4.4116893 20.814993 4.069746 21.044497L4.069746 21.044497C3.0024979 21.756216 1.6128931 21.756216 0.54564494 21.044497L0.54564494 21.044497C0.20370194 20.814993 -0.0010640295 20.429468 0 20.017185L0 0" fill-rule="evenodd"/>
	<path fill="none" stroke="#4B7BE5" stroke-width="2" stroke-linecap="round" stroke-linejoin="round" transform="translate(16.3866 1.09127)" d="M0 1.5409688C0 2.0915039 0.43984345 2.6002195 1.1538457 2.8754869C1.8678478 3.1507545 2.7475348 3.1507545 3.4615371 2.8754869C4.175539 2.6002195 4.6153827 2.0915039 4.6153827 1.5409688C4.6153827 0.99043369 4.175539 0.48171824 3.4615371 0.20645067C2.7475348 -0.068816893 1.8678478 -0.068816893 1.1538457 0.20645067C0.43984345 0.48171824 0 0.99043369 0 1.5409688" fill-rule="evenodd"/>
</svg>
