<?xml version="1.0" encoding="utf-8" ?>
<svg xmlns="http://www.w3.org/2000/svg" xmlns:xlink="http://www.w3.org/1999/xlink" width="16" height="16">
	<path d="M0 0L16 0L16 16L0 16L0 0Z"/>
	<path fill="white" transform="translate(0.25 0.25)" d="M10.198251 0.086384609C10.621937 0.22761318 10.972135 0.53142029 11.171665 0.93074882L12.435946 3.4595082C13.648896 3.6873002 14.566667 4.7520399 14.566667 6.031137L14.567259 6.3906641C15.120207 6.6665792 15.5 7.2378387 15.5 7.8978033L15.5 10.697803C15.5 11.357768 15.120207 11.929028 14.567259 12.204943L14.566667 12.56447C14.566667 14.009615 13.395145 15.181137 11.95 15.181137L2.6166666 15.181137C1.1715215 15.181137 0 14.009615 0 12.56447L0 6.031137C0 4.6507812 1.0688319 3.5200646 2.4240291 3.4214532L8.9127216 0.17791736C9.3121223 -0.021916954 9.7745647 -0.054843958 10.198251 0.086384609ZM11.95 4.9144702L2.6166666 4.9144702C1.9999487 4.9144702 1.5 5.4144187 1.5 6.031137L1.5 12.56447C1.5 13.181189 1.9999487 13.681137 2.6166666 13.681137L11.95 13.681137C12.566718 13.681137 13.066667 13.181189 13.066667 12.56447L13.066 12.381L11.483334 12.381137C9.7804556 12.381137 8.3999996 11.000682 8.3999996 9.2978039C8.3999996 7.5949254 9.7804556 6.2144699 11.483334 6.2144699L13.066 6.2140002L13.066667 6.031137C13.066667 5.4144187 12.566718 4.9144702 11.95 4.9144702ZM13.816667 7.7144699L11.483334 7.7144699C10.608883 7.7144699 9.8999996 8.4233522 9.8999996 9.2978039C9.8999996 10.172255 10.608883 10.881137 11.483334 10.881137L13.816667 10.881137C13.917919 10.881137 14 10.799056 14 10.697803L14 7.8978033C14 7.7965512 13.917919 7.7144699 13.816667 7.7144699ZM11.483334 10.281137C10.940253 10.281137 10.5 9.8408833 10.5 9.2978039C10.5 8.7547235 10.940253 8.3144703 11.483334 8.3144703C12.026413 8.3144703 12.466666 8.7547235 12.466666 9.2978039C12.466666 9.8020916 12.087061 10.217719 11.598011 10.274521L11.483334 10.281137ZM9.5837212 1.5194683L5.7940001 3.414L10.736 3.414L9.8299341 1.6013895C9.8081932 1.5578787 9.7700529 1.5247909 9.7239094 1.5094095C9.6777649 1.4940282 9.6274004 1.4976144 9.5837212 1.5194683Z"/>
</svg>
